{"glyphs":{"0":{"ha":714,"x_min":97,"x_max":617,"o":"m 617 256 q 544 66 617 140 q 357 -8 471 -8 q 170 66 243 -8 q 97 256 97 140 l 97 733 q 170 923 97 849 q 357 997 243 997 q 544 923 471 997 q 617 733 617 849 l 617 256 m 546 726 q 497 876 546 818 q 357 935 447 935 q 217 876 267 935 q 168 726 168 818 l 168 263 q 217 113 168 171 q 357 54 267 54 q 497 113 447 54 q 546 263 546 171 l 546 726 z "},"1":{"ha":714,"x_min":185,"x_max":435,"o":"m 364 0 l 364 908 l 185 750 l 185 835 l 364 989 l 435 989 l 435 0 l 364 0 z "},"2":{"ha":714,"x_min":100,"x_max":624,"o":"m 100 0 l 100 63 l 497 583 q 553 738 553 654 q 502 881 553 828 q 363 935 451 935 q 226 885 279 935 q 172 738 172 836 l 101 738 q 172 924 101 850 q 363 997 243 997 q 552 926 481 997 q 624 738 624 854 q 556 547 624 636 l 185 63 l 624 63 l 624 0 l 100 0 z "},"3":{"ha":714,"x_min":58,"x_max":621,"o":"m 621 264 q 542 63 621 135 q 340 -10 464 -10 q 143 53 219 -10 q 58 240 67 117 l 129 240 q 197 99 138 146 q 340 53 256 53 q 490 110 431 53 q 550 264 550 167 q 335 475 550 475 l 318 475 l 318 538 l 335 538 q 531 736 531 538 q 476 883 531 831 q 339 936 422 936 q 202 888 253 936 q 142 756 151 840 l 71 756 q 155 934 82 869 q 339 999 228 999 q 529 927 457 999 q 601 736 601 856 q 461 511 601 571 q 621 264 621 457 z "},"4":{"ha":714,"x_min":60,"x_max":654,"o":"m 522 163 l 522 0 l 451 0 l 451 163 l 60 163 l 60 225 l 424 989 l 499 989 l 135 225 l 451 225 l 451 539 l 522 539 l 522 225 l 654 225 l 654 163 l 522 163 z "},"5":{"ha":714,"x_min":103,"x_max":626,"o":"m 626 324 q 612 172 626 235 q 550 61 597 108 q 360 -10 479 -10 q 169 57 233 -10 q 103 218 111 115 l 174 218 q 360 53 197 53 q 496 103 446 53 q 538 172 524 131 q 553 244 551 214 q 556 324 556 274 q 549 418 556 376 q 524 501 542 460 q 467 565 506 542 q 371 588 428 588 q 255 560 303 588 q 192 483 207 533 l 129 483 l 129 989 l 604 989 l 604 926 l 192 926 l 192 576 q 379 650 257 650 q 546 590 486 650 q 626 324 626 510 z "},"6":{"ha":714,"x_min":99,"x_max":622,"o":"m 622 279 q 552 74 622 156 q 361 -8 482 -8 q 169 69 239 -8 q 99 269 99 146 q 154 476 99 361 l 408 989 l 479 989 l 251 532 q 367 556 303 556 q 553 477 485 556 q 622 279 622 399 m 551 274 q 501 430 551 367 q 360 493 450 493 q 221 433 272 493 q 169 274 169 374 q 221 114 169 174 q 360 54 272 54 q 499 114 447 54 q 551 274 551 174 z "},"7":{"ha":714,"x_min":119,"x_max":638,"o":"m 288 0 l 215 0 l 565 926 l 190 926 l 190 771 l 119 771 l 119 989 l 638 989 l 638 926 l 288 0 z "},"8":{"ha":714,"x_min":75,"x_max":639,"o":"m 639 267 q 558 70 639 149 q 357 -8 478 -8 q 156 70 236 -8 q 75 267 75 149 q 232 514 75 431 q 96 739 96 589 q 169 923 96 849 q 357 997 243 997 q 544 923 471 997 q 618 739 618 849 q 483 514 618 586 q 639 267 639 432 m 568 267 q 507 419 568 357 q 357 481 446 481 q 207 419 268 481 q 146 267 146 357 q 206 115 146 175 q 357 54 267 54 q 508 115 447 54 q 568 267 568 175 m 494 598 q 521 625 494 598 q 547 739 547 653 q 494 880 547 825 q 357 935 442 935 q 219 880 272 935 q 167 739 167 825 q 219 598 167 653 q 357 543 272 543 q 494 598 442 543 z "},"9":{"ha":714,"x_min":92,"x_max":615,"o":"m 615 719 q 560 513 615 628 l 306 0 l 235 0 l 463 457 q 346 433 411 433 q 160 512 228 433 q 92 710 92 590 q 162 915 92 833 q 353 997 232 997 q 545 920 475 997 q 615 719 615 843 m 492 556 q 518 585 492 556 q 544 715 544 615 q 492 875 544 815 q 353 935 440 935 q 214 875 265 935 q 163 715 163 815 q 213 559 163 622 q 353 496 263 496 q 492 556 440 496 z "},"\u0000":{"ha":0,"x_min":0,"x_max":0,"o":""},"\r":{"ha":354,"x_min":0,"x_max":0,"o":""}," ":{"ha":354,"x_min":0,"x_max":0,"o":""},"!":{"ha":422,"x_min":185,"x_max":278,"o":"m 265 267 l 197 267 l 193 989 l 269 989 l 265 267 m 185 0 l 185 93 l 278 93 l 278 0 l 185 0 z "},"\"":{"ha":567,"x_min":132,"x_max":435,"o":"m 132 772 l 132 989 l 219 989 l 219 772 l 132 772 m 347 772 l 347 989 l 435 989 l 435 772 l 347 772 z "},"#":{"ha":888,"x_min":117,"x_max":817,"o":"m 678 607 l 643 394 l 776 394 l 776 333 l 633 333 l 581 0 l 510 0 l 564 333 l 319 333 l 268 0 l 197 0 l 250 333 l 117 333 l 117 394 l 260 394 l 294 607 l 157 607 l 157 669 l 303 669 l 353 989 l 425 989 l 374 669 l 617 669 l 667 989 l 736 989 l 686 669 l 817 669 l 817 607 l 678 607 m 364 607 l 329 394 l 572 394 l 607 607 l 364 607 z "},"$":{"ha":815,"x_min":71,"x_max":733,"o":"m 733 265 q 653 73 733 146 q 431 -7 572 0 l 431 -158 l 368 -158 l 368 -8 q 205 26 274 -4 q 71 122 136 57 l 124 175 q 238 90 183 115 q 368 60 293 65 l 368 469 l 346 472 q 169 544 238 488 q 92 726 92 611 q 165 916 92 844 q 368 996 239 988 l 368 1119 l 431 1119 l 431 996 q 683 890 568 989 l 635 842 q 431 932 543 924 l 431 529 l 471 522 q 647 457 597 500 q 733 265 733 386 m 658 263 q 604 401 658 356 q 574 423 589 414 q 538 438 558 432 q 506 447 518 444 q 467 453 494 449 q 431 458 440 457 l 431 60 q 598 119 538 67 q 658 263 658 172 m 368 932 q 219 871 272 925 q 165 729 165 817 q 217 600 165 643 q 368 539 274 551 l 368 932 z "},"%":{"ha":1150,"x_min":96,"x_max":1054,"o":"m 1054 176 q 1003 42 1054 93 q 872 -10 953 -10 q 740 42 790 -10 q 689 176 689 93 l 689 325 q 740 460 689 408 q 872 511 790 511 q 1003 460 953 511 q 1054 325 1054 408 l 1054 176 m 461 664 q 410 531 461 582 q 279 479 360 479 q 147 531 197 479 q 96 664 96 582 l 96 813 q 147 947 96 896 q 279 999 197 999 q 410 947 360 999 q 461 813 461 896 l 461 664 m 993 322 q 872 458 993 458 q 750 322 750 458 l 750 179 q 872 43 750 43 q 993 179 993 43 l 993 322 m 400 810 q 279 946 400 946 q 157 810 157 946 l 157 667 q 279 532 157 532 q 400 667 400 532 l 400 810 m 376 0 l 314 0 l 775 989 l 838 989 l 376 0 z "},"&":{"ha":1036,"x_min":117,"x_max":919,"o":"m 824 0 l 728 117 q 424 -8 603 -8 q 202 69 288 -8 q 117 274 117 147 q 131 360 117 319 q 161 426 146 400 q 215 485 176 451 q 273 532 254 518 q 343 581 292 546 q 290 649 308 624 q 252 717 271 674 q 233 800 233 760 q 292 940 233 883 q 435 997 351 997 q 577 940 518 997 q 636 799 636 882 q 522 621 636 699 q 449 571 471 585 l 732 228 q 778 329 765 278 q 790 474 790 381 l 864 474 q 778 172 864 279 l 919 0 l 824 0 m 386 531 q 251 425 283 460 q 192 278 192 361 q 256 119 192 181 q 422 58 319 58 q 686 168 563 58 l 386 531 m 563 799 q 526 893 563 856 q 435 931 489 931 q 344 894 381 931 q 308 803 308 858 q 328 726 308 764 q 406 621 349 689 l 428 636 q 463 660 456 653 q 536 723 510 692 q 563 799 563 754 z "},"'":{"ha":351,"x_min":132,"x_max":219,"o":"m 132 772 l 132 989 l 219 989 l 219 772 l 132 772 z "},"(":{"ha":394,"x_min":135,"x_max":301,"o":"m 253 -131 q 161 -19 182 -60 q 135 110 135 32 l 135 879 q 161 1008 135 957 q 253 1119 182 1049 l 301 1071 q 226 981 240 1010 q 206 871 206 936 l 206 118 q 226 8 206 53 q 301 -82 240 -21 l 253 -131 z "},")":{"ha":394,"x_min":90,"x_max":260,"o":"m 260 110 q 233 -19 260 29 q 142 -131 213 -60 l 90 -79 q 165 11 151 -18 q 185 118 185 49 l 185 871 q 165 978 185 940 q 90 1068 151 1007 l 142 1119 q 233 1008 213 1049 q 260 879 260 960 l 260 110 z "},"*":{"ha":649,"x_min":100,"x_max":549,"o":"m 518 608 l 351 710 l 356 514 l 293 514 l 297 710 l 131 608 l 100 661 l 271 756 l 100 850 l 131 903 l 297 801 l 293 997 l 356 997 l 351 801 l 518 903 l 549 850 l 378 756 l 549 661 l 518 608 z "},"+":{"ha":714,"x_min":74,"x_max":640,"o":"m 390 333 l 390 82 l 325 82 l 325 333 l 74 333 l 74 399 l 325 399 l 325 649 l 390 649 l 390 399 l 640 399 l 640 333 l 390 333 z "},",":{"ha":358,"x_min":132,"x_max":226,"o":"m 132 -189 l 132 94 l 226 94 l 226 -94 l 132 -189 z "},"-":{"ha":592,"x_min":114,"x_max":478,"o":"m 114 333 l 114 399 l 478 399 l 478 333 l 114 333 z "},".":{"ha":367,"x_min":132,"x_max":235,"o":"m 132 0 l 132 103 l 235 103 l 235 0 l 132 0 z "},"/":{"ha":469,"x_min":0,"x_max":469,"o":"m 74 -103 l 0 -103 l 396 1092 l 469 1092 l 74 -103 z "},":":{"ha":406,"x_min":171,"x_max":274,"o":"m 171 0 l 171 103 l 274 103 l 274 0 l 171 0 m 171 433 l 171 536 l 274 536 l 274 433 l 171 433 z "},";":{"ha":406,"x_min":171,"x_max":274,"o":"m 174 -189 l 174 94 l 268 94 l 268 -94 l 174 -189 m 171 433 l 171 536 l 274 536 l 274 433 l 171 433 z "},"<":{"ha":714,"x_min":146,"x_max":568,"o":"m 568 108 l 146 332 l 146 399 l 568 622 l 568 546 l 215 365 l 568 185 l 568 108 z "},"=":{"ha":714,"x_min":74,"x_max":640,"o":"m 74 226 l 74 292 l 640 292 l 640 226 l 74 226 m 74 439 l 74 504 l 640 504 l 640 439 l 74 439 z "},">":{"ha":714,"x_min":146,"x_max":568,"o":"m 568 332 l 146 108 l 146 185 l 499 365 l 146 546 l 146 622 l 568 399 l 568 332 z "},"?":{"ha":678,"x_min":111,"x_max":608,"o":"m 608 753 q 547 588 608 676 l 429 414 q 404 331 404 378 l 404 265 l 333 265 l 333 328 q 374 453 333 394 l 490 625 q 516 666 508 651 q 531 704 524 681 q 538 753 538 728 q 487 883 538 831 q 360 935 436 935 q 231 881 281 935 q 182 753 182 828 l 111 753 q 181 926 111 856 q 360 997 250 997 q 537 927 465 997 q 608 753 608 857 m 322 0 l 322 93 l 415 93 l 415 0 l 322 0 z "},"@":{"ha":968,"x_min":107,"x_max":861,"o":"m 790 0 l 790 82 q 597 -10 724 -10 q 404 81 474 -10 q 344 335 344 161 q 399 586 344 508 q 596 679 461 679 q 790 585 719 679 l 790 708 q 778 805 790 768 q 733 874 765 842 q 575 932 675 932 l 392 932 q 235 874 293 932 q 190 806 203 842 q 178 708 178 769 l 178 218 q 194 113 178 147 q 264 39 211 78 l 215 -10 q 129 81 151 35 q 107 218 107 128 l 107 704 q 183 914 107 835 q 379 989 256 989 l 588 989 q 783 914 708 989 q 861 704 861 836 l 861 0 l 790 0 m 784 232 q 787 253 784 232 q 790 335 790 275 q 784 438 790 394 q 760 525 778 481 q 702 593 742 569 q 603 617 663 617 q 503 593 543 617 q 446 525 464 569 q 422 438 428 481 q 415 335 415 394 q 422 232 415 275 q 446 144 428 189 q 503 76 464 100 q 603 53 543 53 q 702 76 663 53 q 760 144 742 100 q 784 232 778 189 z "},"A":{"ha":836,"x_min":21,"x_max":815,"o":"m 735 0 l 649 240 l 188 240 l 101 0 l 21 0 l 385 989 l 451 989 l 815 0 l 735 0 m 418 889 l 211 307 l 625 307 l 418 889 z "},"B":{"ha":932,"x_min":153,"x_max":818,"o":"m 818 269 q 740 70 818 140 q 528 0 661 0 l 153 0 l 153 989 l 517 989 q 723 919 643 989 q 803 731 803 850 q 762 592 803 651 q 649 508 721 532 q 774 418 729 481 q 818 269 818 356 m 683 121 q 713 148 683 121 q 743 269 743 175 q 683 418 743 364 q 519 472 622 472 l 228 472 l 228 67 l 519 67 q 683 121 622 67 m 667 586 q 697 610 667 586 q 728 731 728 633 q 667 875 728 828 q 508 922 606 922 l 228 922 l 228 539 l 508 539 q 667 586 606 539 z "},"C":{"ha":894,"x_min":114,"x_max":789,"o":"m 789 281 q 674 69 764 147 q 453 -8 583 -8 q 206 93 307 -8 q 128 231 143 156 q 114 494 114 307 q 128 758 114 682 q 206 896 143 833 q 453 997 307 997 q 674 920 585 997 q 789 708 764 843 l 713 708 q 622 871 690 811 q 453 931 553 931 q 265 854 342 931 q 202 735 215 804 q 189 494 189 665 q 202 254 189 324 q 265 135 215 185 q 453 58 342 58 q 623 118 553 58 q 715 281 693 178 l 789 281 z "},"D":{"ha":942,"x_min":153,"x_max":828,"o":"m 828 508 q 826 396 828 431 q 817 292 825 361 q 788 174 810 222 q 732 90 767 125 q 485 0 642 0 l 153 0 l 153 989 l 485 989 q 732 899 642 989 q 789 819 768 863 q 817 712 810 775 q 826 617 825 649 q 828 508 828 585 m 753 508 q 751 633 753 594 q 733 740 750 672 q 679 846 715 808 q 467 922 607 922 l 228 922 l 228 67 l 467 67 q 679 143 607 67 q 733 256 715 181 q 751 375 750 332 q 753 508 753 418 z "},"E":{"ha":831,"x_min":153,"x_max":753,"o":"m 153 0 l 153 989 l 753 989 l 753 922 l 228 922 l 228 532 l 675 532 l 675 465 l 228 465 l 228 67 l 753 67 l 753 0 l 153 0 z "},"F":{"ha":800,"x_min":153,"x_max":753,"o":"m 228 922 l 228 515 l 675 515 l 675 449 l 228 449 l 228 0 l 153 0 l 153 989 l 753 989 l 753 922 l 228 922 z "},"G":{"ha":904,"x_min":114,"x_max":793,"o":"m 793 344 q 713 106 793 190 q 453 -8 610 -8 q 206 93 307 -8 q 128 231 143 156 q 114 494 114 307 q 128 758 114 682 q 206 896 143 833 q 453 997 307 997 q 675 918 582 997 q 790 708 768 839 l 715 708 q 623 871 693 811 q 453 931 553 931 q 265 854 342 931 q 202 735 215 804 q 189 494 189 665 q 202 254 189 324 q 265 135 215 185 q 453 58 342 58 q 658 154 579 58 q 718 350 718 229 l 718 439 l 453 439 l 453 506 l 793 506 l 793 344 z "},"H":{"ha":971,"x_min":153,"x_max":818,"o":"m 743 0 l 743 465 l 228 465 l 228 0 l 153 0 l 153 989 l 228 989 l 228 532 l 743 532 l 743 989 l 818 989 l 818 0 l 743 0 z "},"I":{"ha":381,"x_min":153,"x_max":228,"o":"m 153 0 l 153 989 l 228 989 l 228 0 l 153 0 z "},"J":{"ha":692,"x_min":42,"x_max":553,"o":"m 553 292 q 472 74 553 156 q 258 -8 392 -8 q 42 76 126 -8 l 93 128 q 163 76 128 93 q 258 58 199 58 q 422 122 365 58 q 478 307 478 186 l 478 989 l 553 989 l 553 292 z "},"K":{"ha":896,"x_min":153,"x_max":871,"o":"m 782 0 l 464 554 l 228 268 l 228 0 l 153 0 l 153 989 l 228 989 l 228 371 l 729 989 l 819 989 l 514 611 l 871 0 l 782 0 z "},"L":{"ha":794,"x_min":153,"x_max":753,"o":"m 153 0 l 153 989 l 228 989 l 228 67 l 753 67 l 753 0 l 153 0 z "},"M":{"ha":1136,"x_min":153,"x_max":983,"o":"m 908 0 l 908 815 l 608 139 l 533 139 l 228 815 l 228 0 l 153 0 l 153 989 l 228 989 l 572 226 l 908 989 l 983 989 l 983 0 l 908 0 z "},"N":{"ha":1026,"x_min":153,"x_max":874,"o":"m 799 0 l 228 860 l 228 0 l 153 0 l 153 989 l 228 989 l 799 132 l 799 989 l 874 989 l 874 0 l 799 0 z "},"O":{"ha":906,"x_min":114,"x_max":792,"o":"m 777 758 q 784 720 777 758 q 792 494 792 682 q 777 231 792 307 q 700 93 763 156 q 453 -8 599 -8 q 206 93 307 -8 q 128 231 143 156 q 114 494 114 307 q 128 758 114 682 q 206 896 143 833 q 453 997 307 997 q 700 896 599 997 q 777 758 763 833 m 703 254 q 710 289 703 254 q 717 494 717 324 q 703 735 717 665 q 640 854 690 804 q 453 931 564 931 q 265 854 342 931 q 202 735 215 804 q 189 494 189 665 q 202 254 189 324 q 265 135 215 185 q 453 58 342 58 q 640 135 564 58 q 703 254 690 185 z "},"P":{"ha":876,"x_min":153,"x_max":814,"o":"m 814 704 q 731 496 814 572 q 515 419 647 419 l 228 419 l 228 0 l 153 0 l 153 989 l 515 989 q 731 913 647 989 q 814 704 814 838 m 676 541 q 708 568 676 541 q 739 704 739 596 q 676 867 739 813 q 507 922 614 922 l 228 922 l 228 486 l 507 486 q 676 541 614 486 z "},"Q":{"ha":904,"x_min":114,"x_max":838,"o":"m 788 -50 l 671 67 q 453 -8 576 -8 q 206 93 307 -8 q 128 231 143 156 q 114 494 114 307 q 128 758 114 682 q 206 896 143 833 q 453 997 307 997 q 700 896 599 997 q 777 758 763 833 q 792 494 792 682 q 781 247 792 321 q 721 117 769 172 l 838 0 l 788 -50 m 717 494 q 703 735 717 665 q 640 854 690 804 q 453 931 564 931 q 265 854 342 931 q 202 735 215 804 q 189 494 189 665 q 202 254 189 324 q 265 135 215 185 q 453 58 342 58 q 621 117 547 58 l 482 256 l 532 306 l 669 168 q 708 278 700 211 q 717 494 717 346 z "},"R":{"ha":913,"x_min":153,"x_max":824,"o":"m 736 0 l 500 456 l 228 456 l 228 0 l 153 0 l 153 989 l 529 989 q 733 919 654 989 q 813 724 813 849 q 751 544 813 614 q 585 457 690 475 l 824 0 l 736 0 m 678 572 q 708 597 678 572 q 738 722 738 622 q 678 872 738 822 q 519 922 619 922 l 228 922 l 228 522 l 519 522 q 678 572 619 522 z "},"S":{"ha":815,"x_min":71,"x_max":733,"o":"m 733 265 q 644 65 733 139 q 400 -8 554 -8 q 216 22 292 -8 q 71 122 140 53 l 124 175 q 251 84 189 110 q 404 58 314 58 q 590 113 522 58 q 658 263 658 167 q 604 401 658 356 q 547 435 574 425 q 461 454 519 446 l 346 472 q 169 544 233 489 q 92 726 92 610 q 174 924 92 851 q 399 997 256 997 q 553 972 488 997 q 683 890 618 947 l 635 842 q 394 933 539 933 q 226 879 286 933 q 165 729 165 825 q 217 600 165 643 q 364 539 269 556 l 471 522 q 647 457 590 506 q 733 265 733 386 z "},"T":{"ha":749,"x_min":42,"x_max":707,"o":"m 411 922 l 411 0 l 336 0 l 336 922 l 42 922 l 42 989 l 707 989 l 707 922 l 411 922 z "},"U":{"ha":956,"x_min":139,"x_max":817,"o":"m 817 321 q 722 84 817 176 q 478 -8 626 -8 q 234 84 329 -8 q 139 321 139 176 l 139 989 l 214 989 l 214 331 q 286 133 214 207 q 478 58 358 58 q 669 133 597 58 q 742 331 742 207 l 742 989 l 817 989 l 817 321 z "},"V":{"ha":742,"x_min":14,"x_max":728,"o":"m 403 0 l 339 0 l 14 989 l 93 989 l 371 132 l 649 989 l 728 989 l 403 0 z "},"W":{"ha":1169,"x_min":28,"x_max":1142,"o":"m 894 0 l 818 0 l 585 861 l 351 0 l 275 0 l 28 989 l 107 989 l 315 129 l 546 989 l 624 989 l 854 129 l 1063 989 l 1142 989 l 894 0 z "},"X":{"ha":739,"x_min":25,"x_max":714,"o":"m 626 0 l 368 440 l 110 0 l 25 0 l 328 507 l 44 989 l 132 989 l 368 574 l 606 989 l 692 989 l 408 507 l 714 0 l 626 0 z "},"Y":{"ha":686,"x_min":14,"x_max":672,"o":"m 381 410 l 381 0 l 306 0 l 306 410 l 14 989 l 94 989 l 346 489 l 592 989 l 672 989 l 381 410 z "},"Z":{"ha":776,"x_min":88,"x_max":689,"o":"m 88 0 l 88 79 l 608 922 l 108 922 l 108 989 l 689 989 l 689 922 l 164 67 l 689 67 l 689 0 l 88 0 z "},"[":{"ha":403,"x_min":135,"x_max":340,"o":"m 135 -103 l 135 1092 l 340 1092 l 340 1029 l 206 1029 l 206 -40 l 340 -40 l 340 -103 l 135 -103 z "},"\\":{"ha":469,"x_min":0,"x_max":469,"o":"m 396 -103 l 0 1092 l 74 1092 l 469 -103 l 396 -103 z "},"]":{"ha":403,"x_min":63,"x_max":268,"o":"m 63 -103 l 63 -44 l 201 -44 l 201 1033 l 63 1033 l 63 1092 l 268 1092 l 268 -103 l 63 -103 z "},"^":{"ha":714,"x_min":106,"x_max":608,"o":"m 538 586 l 357 922 l 176 586 l 106 586 l 325 997 l 389 997 l 608 586 l 538 586 z "},"_":{"ha":714,"x_min":0,"x_max":714,"o":"m 0 -222 l 0 -169 l 714 -169 l 714 -222 l 0 -222 z "},"`":{"ha":694,"x_min":185,"x_max":413,"o":"m 332 819 l 185 1024 l 278 1024 l 413 819 l 332 819 z "},"a":{"ha":728,"x_min":78,"x_max":599,"o":"m 528 0 l 528 67 q 441 8 486 25 q 324 -8 396 -8 q 126 53 186 -8 q 78 183 78 101 q 140 326 78 275 q 311 376 201 376 l 528 376 l 528 451 q 483 574 528 533 q 339 615 439 615 q 228 596 269 615 q 154 531 188 576 l 103 575 q 199 655 144 632 q 339 678 254 678 q 599 458 599 678 l 599 0 l 528 0 m 528 319 l 319 319 q 149 185 149 319 q 190 86 149 118 q 324 54 232 54 q 490 106 436 54 q 528 233 528 142 l 528 319 z "},"b":{"ha":750,"x_min":135,"x_max":654,"o":"m 568 619 q 654 335 654 533 q 568 50 654 136 q 404 -8 510 -8 q 294 12 342 -8 q 206 86 247 32 l 206 0 l 135 0 l 135 989 l 206 989 l 206 583 q 294 658 247 638 q 404 678 342 678 q 568 619 510 678 m 576 231 q 580 253 576 231 q 583 335 583 275 q 576 439 583 394 q 551 526 569 483 q 492 592 532 569 q 394 615 453 615 q 297 592 336 615 q 238 526 257 569 q 213 439 219 483 q 206 335 206 394 q 213 231 206 275 q 238 143 219 186 q 297 77 257 100 q 394 54 336 54 q 492 77 453 54 q 551 143 532 100 q 576 231 569 186 z "},"c":{"ha":685,"x_min":96,"x_max":611,"o":"m 611 94 q 510 14 560 36 q 390 -8 461 -8 q 174 83 253 -8 q 96 335 96 175 q 174 586 96 494 q 390 678 253 678 q 510 656 461 678 q 611 575 560 633 l 563 531 q 482 597 519 578 q 390 615 444 615 q 213 526 272 615 q 167 335 167 460 q 213 143 167 210 q 390 54 272 54 q 481 73 443 54 q 563 139 519 92 l 611 94 z "},"d":{"ha":750,"x_min":96,"x_max":615,"o":"m 544 0 l 544 86 q 456 12 503 32 q 346 -8 408 -8 q 182 50 240 -8 q 96 335 96 136 q 182 619 96 533 q 346 678 240 678 q 456 658 408 678 q 544 583 503 638 l 544 989 l 615 989 l 615 0 l 544 0 m 538 231 q 541 253 538 231 q 544 335 544 275 q 538 439 544 394 q 512 526 531 483 q 453 592 493 569 q 356 615 414 615 q 258 592 297 615 q 199 526 218 569 q 174 439 181 483 q 167 335 167 394 q 174 231 167 275 q 199 143 181 186 q 258 77 218 100 q 356 54 297 54 q 453 77 414 54 q 512 143 493 100 q 538 231 531 186 z "},"e":{"ha":726,"x_min":96,"x_max":632,"o":"m 167 319 q 222 123 167 190 q 385 56 278 56 q 485 74 443 56 q 569 136 526 93 l 622 94 q 514 16 568 40 q 381 -8 460 -8 q 169 79 242 -8 q 96 335 96 167 q 167 588 96 497 q 364 678 238 678 q 561 592 490 678 q 632 351 632 506 l 632 319 l 167 319 m 561 376 q 538 503 556 463 q 469 585 515 556 q 364 615 422 615 q 259 585 306 615 q 190 503 213 556 q 167 376 171 450 l 561 376 z "},"f":{"ha":422,"x_min":64,"x_max":378,"o":"m 226 617 l 226 0 l 156 0 l 156 617 l 64 617 l 64 669 l 156 669 l 156 814 q 198 941 156 893 q 317 989 240 989 l 378 989 l 378 926 l 329 926 q 226 815 226 926 l 226 669 l 378 669 l 378 617 l 226 617 z "},"g":{"ha":750,"x_min":96,"x_max":615,"o":"m 615 -37 q 542 -247 615 -167 q 342 -328 469 -328 q 222 -308 269 -328 q 121 -239 175 -287 l 168 -192 q 247 -249 213 -232 q 342 -265 282 -265 q 494 -202 443 -265 q 544 -33 544 -139 l 544 86 q 456 12 503 32 q 346 -8 408 -8 q 182 50 240 -8 q 96 335 96 136 q 182 619 96 533 q 346 678 240 678 q 456 658 408 678 q 544 583 503 638 l 544 669 l 615 669 l 615 -37 m 538 231 q 541 253 538 231 q 544 335 544 275 q 538 439 544 394 q 512 526 531 483 q 453 592 493 569 q 356 615 414 615 q 258 592 297 615 q 199 526 218 569 q 174 439 181 483 q 167 335 167 394 q 174 231 167 275 q 199 143 181 186 q 258 77 218 100 q 356 54 297 54 q 453 77 414 54 q 512 143 493 100 q 538 231 531 186 z "},"h":{"ha":776,"x_min":135,"x_max":650,"o":"m 579 0 l 579 415 q 532 564 579 513 q 394 615 485 615 q 255 563 304 615 q 206 415 206 511 l 206 0 l 135 0 l 135 989 l 206 989 l 206 590 q 403 678 281 678 q 584 611 518 678 q 650 428 650 544 l 650 0 l 579 0 z "},"i":{"ha":340,"x_min":126,"x_max":214,"o":"m 135 0 l 135 669 l 206 669 l 206 0 l 135 0 m 126 901 l 126 989 l 214 989 l 214 901 l 126 901 z "},"j":{"ha":340,"x_min":-17,"x_max":214,"o":"m 206 -146 q 165 -274 206 -228 q 44 -319 125 -319 l -17 -319 l -17 -257 l 32 -257 q 112 -231 89 -257 q 135 -144 135 -204 l 135 669 l 206 669 l 206 -146 m 126 901 l 126 989 l 214 989 l 214 901 l 126 901 z "},"k":{"ha":732,"x_min":135,"x_max":676,"o":"m 589 0 l 358 368 l 206 192 l 206 0 l 135 0 l 135 989 l 206 989 l 206 292 l 538 669 l 628 669 l 407 419 l 676 0 l 589 0 z "},"l":{"ha":399,"x_min":132,"x_max":354,"o":"m 293 0 q 172 46 213 0 q 132 174 132 92 l 132 989 l 203 989 l 203 175 q 226 89 203 115 q 306 63 249 63 l 354 63 l 354 0 l 293 0 z "},"m":{"ha":1219,"x_min":135,"x_max":1093,"o":"m 1024 0 l 1024 415 q 976 564 1024 513 q 839 615 929 615 q 701 565 751 615 q 650 428 650 514 l 650 0 l 579 0 l 579 415 q 532 564 579 513 q 394 615 485 615 q 255 563 304 615 q 206 415 206 511 l 206 0 l 135 0 l 135 669 l 206 669 l 206 590 q 404 678 281 678 q 619 556 557 678 q 847 678 697 678 q 1024 614 956 678 q 1093 428 1093 547 l 1093 0 l 1024 0 z "},"n":{"ha":776,"x_min":135,"x_max":650,"o":"m 579 0 l 579 415 q 532 564 579 513 q 394 615 485 615 q 255 563 304 615 q 206 415 206 511 l 206 0 l 135 0 l 135 669 l 206 669 l 206 590 q 403 678 281 678 q 581 614 515 678 q 650 428 650 547 l 650 0 l 579 0 z "},"o":{"ha":731,"x_min":96,"x_max":635,"o":"m 551 604 q 635 335 635 521 q 551 65 635 149 q 365 -8 478 -8 q 179 65 253 -8 q 96 335 96 149 q 179 604 96 521 q 365 678 253 678 q 551 604 478 678 m 504 111 q 564 335 564 171 q 504 558 564 499 q 365 615 447 615 q 226 558 283 615 q 167 335 167 499 q 226 111 167 171 q 365 54 283 54 q 504 111 447 54 z "},"p":{"ha":750,"x_min":135,"x_max":654,"o":"m 568 619 q 654 335 654 533 q 568 50 654 136 q 404 -8 510 -8 q 294 12 342 -8 q 206 86 247 32 l 206 -319 l 135 -319 l 135 669 l 206 669 l 206 583 q 294 658 247 638 q 404 678 342 678 q 568 619 510 678 m 576 231 q 580 253 576 231 q 583 335 583 275 q 576 439 583 394 q 551 526 569 483 q 492 592 532 569 q 394 615 453 615 q 297 592 336 615 q 238 526 257 569 q 213 439 219 483 q 206 335 206 394 q 213 231 206 275 q 238 143 219 186 q 297 77 257 100 q 394 54 336 54 q 492 77 453 54 q 551 143 532 100 q 576 231 569 186 z "},"q":{"ha":750,"x_min":96,"x_max":615,"o":"m 544 -319 l 544 86 q 456 12 503 32 q 346 -8 408 -8 q 182 50 240 -8 q 96 335 96 136 q 182 619 96 533 q 346 678 240 678 q 456 658 408 678 q 544 583 503 638 l 544 669 l 615 669 l 615 -319 l 544 -319 m 538 231 q 541 253 538 231 q 544 335 544 275 q 538 439 544 394 q 512 526 531 483 q 453 592 493 569 q 356 615 414 615 q 258 592 297 615 q 199 526 218 569 q 174 439 181 483 q 167 335 167 394 q 174 231 167 275 q 199 143 181 186 q 258 77 218 100 q 356 54 297 54 q 453 77 414 54 q 512 143 493 100 q 538 231 531 186 z "},"r":{"ha":568,"x_min":135,"x_max":563,"o":"m 511 563 q 453 604 481 593 q 385 615 426 615 q 253 556 301 615 q 206 413 206 497 l 206 0 l 135 0 l 135 669 l 206 669 l 206 581 q 288 652 235 626 q 401 678 340 678 q 563 614 499 678 l 511 563 z "},"s":{"ha":686,"x_min":69,"x_max":608,"o":"m 608 190 q 536 45 608 99 q 340 -8 464 -8 q 69 88 169 -8 l 118 136 q 338 54 196 54 q 539 190 539 54 q 508 269 539 243 q 411 303 478 296 l 300 313 q 99 488 99 329 q 164 626 99 575 q 339 678 229 678 q 574 607 478 678 l 526 560 q 339 617 449 617 q 212 583 256 617 q 168 488 168 550 q 201 408 168 435 q 304 375 233 382 l 413 365 q 558 318 507 356 q 608 190 608 281 z "},"t":{"ha":451,"x_min":60,"x_max":374,"o":"m 313 0 q 194 48 236 0 q 151 175 151 96 l 151 617 l 60 617 l 60 669 l 151 669 l 151 883 l 222 883 l 222 669 l 374 669 l 374 617 l 222 617 l 222 174 q 325 63 222 63 l 374 63 l 374 0 l 313 0 z "},"u":{"ha":776,"x_min":126,"x_max":642,"o":"m 571 0 l 571 79 q 374 -8 496 -8 q 196 56 261 -8 q 126 242 126 122 l 126 669 l 197 669 l 197 254 q 244 106 197 157 q 382 54 292 54 q 522 106 472 54 q 571 254 571 158 l 571 669 l 642 669 l 642 0 l 571 0 z "},"v":{"ha":597,"x_min":19,"x_max":578,"o":"m 333 0 l 264 0 l 19 669 l 97 669 l 299 83 l 500 669 l 578 669 l 333 0 z "},"w":{"ha":989,"x_min":19,"x_max":969,"o":"m 756 0 l 683 0 l 494 558 l 306 0 l 233 0 l 19 669 l 97 669 l 268 83 l 460 669 l 529 669 l 721 83 l 892 669 l 969 669 l 756 0 z "},"x":{"ha":639,"x_min":56,"x_max":583,"o":"m 497 0 l 321 282 l 142 0 l 56 0 l 282 342 l 65 669 l 151 669 l 321 400 l 488 669 l 574 669 l 357 342 l 583 0 l 497 0 z "},"y":{"ha":597,"x_min":19,"x_max":578,"o":"m 267 -182 q 221 -260 247 -237 q 94 -303 176 -303 l 61 -303 l 61 -240 l 88 -240 q 167 -221 143 -240 q 210 -149 192 -201 l 264 0 l 19 669 l 97 669 l 299 83 l 500 669 l 578 669 l 267 -182 z "},"z":{"ha":628,"x_min":75,"x_max":553,"o":"m 75 0 l 75 67 l 478 607 l 97 607 l 97 669 l 553 669 l 553 603 l 149 63 l 553 63 l 553 0 l 75 0 z "},"{":{"ha":439,"x_min":69,"x_max":369,"o":"m 350 -103 q 215 -65 253 -103 q 179 67 179 -29 l 179 354 q 154 438 179 413 q 94 464 128 464 l 69 464 l 69 525 l 94 525 q 154 551 128 525 q 179 635 179 576 l 179 922 q 215 1054 179 1018 q 350 1092 253 1092 l 369 1092 l 369 1029 l 351 1029 q 269 1011 288 1029 q 250 921 250 992 l 250 633 q 231 548 250 579 q 165 494 211 517 q 231 441 211 472 q 250 356 250 410 l 250 68 q 269 -22 250 -3 q 351 -40 288 -40 l 369 -40 l 369 -103 l 350 -103 z "},"|":{"ha":440,"x_min":185,"x_max":256,"o":"m 185 -103 l 185 1092 l 256 1092 l 256 -103 l 185 -103 z "},"}":{"ha":439,"x_min":69,"x_max":369,"o":"m 344 464 q 285 438 311 464 q 260 354 260 413 l 260 67 q 224 -65 260 -29 q 89 -103 186 -103 l 69 -103 l 69 -40 l 88 -40 q 169 -22 151 -40 q 189 68 189 -3 l 189 356 q 208 441 189 410 q 274 494 228 472 q 208 548 228 517 q 189 633 189 579 l 189 921 q 169 1011 189 992 q 88 1029 151 1029 l 69 1029 l 69 1092 l 89 1092 q 224 1054 186 1092 q 260 922 260 1018 l 260 635 q 285 551 260 576 q 344 525 311 525 l 369 525 l 369 464 l 344 464 z "},"~":{"ha":714,"x_min":74,"x_max":640,"o":"m 640 385 q 554 315 586 331 q 479 299 522 299 q 338 342 440 299 q 232 374 263 374 q 179 363 201 374 q 117 311 157 351 l 74 354 q 160 424 128 408 q 235 440 192 440 q 376 397 274 440 q 482 365 451 365 q 535 376 514 365 q 597 428 557 388 l 640 385 z "}," ":{"ha":354,"x_min":0,"x_max":0,"o":""},"¡":{"ha":422,"x_min":144,"x_max":238,"o":"m 153 -319 l 157 403 l 225 403 l 229 -319 l 153 -319 m 144 576 l 144 669 l 238 669 l 238 576 l 144 576 z "},"¢":{"ha":692,"x_min":96,"x_max":611,"o":"m 611 268 q 516 190 561 213 q 406 165 471 168 l 406 0 l 346 0 l 346 168 q 162 273 228 183 q 96 508 96 363 q 162 744 96 654 q 346 849 228 833 l 346 989 l 406 989 l 406 851 q 516 826 471 849 q 611 749 561 804 l 563 704 q 488 767 522 749 q 406 789 453 786 l 406 228 q 488 249 453 231 q 563 313 522 268 l 611 268 m 346 785 q 213 700 261 771 q 167 508 167 633 q 213 317 167 383 q 346 232 261 246 l 346 785 z "},"£":{"ha":746,"x_min":69,"x_max":669,"o":"m 158 0 l 158 475 l 69 475 l 69 528 l 158 528 l 158 697 q 239 915 158 833 q 453 997 319 997 q 669 913 585 997 l 618 861 q 548 913 583 896 q 453 931 513 931 q 290 867 346 931 q 233 682 233 803 l 233 528 l 453 528 l 453 475 l 233 475 l 233 67 l 669 67 l 669 0 l 158 0 z "},"¤":{"ha":913,"x_min":118,"x_max":794,"o":"m 750 31 l 646 133 q 456 67 567 67 q 265 133 344 67 l 163 31 l 118 75 l 221 178 q 154 368 154 257 q 221 560 154 481 l 118 661 l 163 706 l 265 604 q 456 669 343 669 q 646 604 568 669 l 750 706 l 794 661 l 692 560 q 757 368 757 482 q 692 178 757 256 l 794 75 l 750 31 m 622 201 q 656 235 622 201 q 690 368 690 269 q 622 535 690 467 q 456 603 553 603 q 290 535 358 603 q 221 368 221 467 q 290 201 221 269 q 456 133 358 133 q 622 201 553 133 z "},"¥":{"ha":685,"x_min":14,"x_max":671,"o":"m 444 536 l 594 536 l 594 483 l 418 483 l 381 410 l 381 336 l 594 336 l 594 283 l 381 283 l 381 0 l 306 0 l 306 283 l 90 283 l 90 336 l 306 336 l 306 410 l 268 483 l 90 483 l 90 536 l 242 536 l 14 989 l 93 989 l 344 488 l 593 989 l 671 989 l 444 536 z "},"¦":{"ha":456,"x_min":185,"x_max":256,"o":"m 185 -103 l 185 383 l 256 383 l 256 -103 l 185 -103 m 185 606 l 185 1092 l 256 1092 l 256 606 l 185 606 z "},"§":{"ha":786,"x_min":135,"x_max":651,"o":"m 651 343 q 608 199 651 260 q 499 107 565 138 q 603 31 565 85 q 642 -96 642 -22 q 572 -262 642 -197 q 393 -328 503 -328 q 216 -271 286 -328 q 138 -112 146 -214 l 213 -112 q 393 -261 226 -261 q 520 -218 474 -261 q 567 -96 567 -175 q 531 1 567 -40 q 436 60 496 43 l 321 92 q 184 184 233 117 q 135 343 135 251 q 178 488 135 426 q 288 579 221 549 q 150 775 150 638 q 220 937 150 876 q 393 997 290 997 q 565 941 494 997 q 640 788 635 885 l 567 788 q 393 932 553 932 q 268 892 313 932 q 224 775 224 853 q 350 626 224 663 l 465 594 q 601 501 551 569 q 651 343 651 433 m 576 343 q 528 483 576 435 q 393 540 471 540 q 258 483 311 540 q 210 343 210 431 q 258 203 210 254 q 393 146 311 146 q 528 203 475 146 q 576 343 576 256 z "},"¨":{"ha":694,"x_min":163,"x_max":532,"o":"m 163 833 l 163 940 l 243 940 l 243 833 l 163 833 m 451 833 l 451 940 l 532 940 l 532 833 l 451 833 z "},"©":{"ha":1242,"x_min":118,"x_max":1124,"o":"m 976 850 q 1050 776 976 850 q 1124 494 1124 703 q 976 139 1124 286 q 621 -8 829 -8 q 265 139 413 -8 q 118 494 118 286 q 265 850 118 703 q 621 997 413 997 q 976 850 829 997 m 928 184 q 993 250 928 184 q 1057 494 1057 315 q 928 805 1057 674 q 621 936 800 936 q 313 805 442 936 q 185 494 185 674 q 313 184 185 315 q 621 53 442 53 q 928 184 800 53 m 808 281 q 626 208 728 208 q 443 289 506 208 q 381 494 381 369 q 443 701 381 619 q 626 782 506 782 q 724 765 683 782 q 808 708 764 749 l 767 667 q 626 725 701 725 q 486 661 529 725 q 443 494 443 597 q 626 265 443 265 q 767 322 703 265 l 808 281 z "},"ª":{"ha":621,"x_min":82,"x_max":494,"o":"m 435 454 l 435 504 q 276 447 376 447 q 121 496 165 447 q 82 600 82 535 q 131 714 82 674 q 267 754 179 754 l 435 754 l 435 813 q 401 908 435 876 q 289 939 367 939 q 201 924 233 939 q 144 872 169 910 l 100 910 q 178 975 135 957 q 289 993 222 993 q 494 818 494 993 l 494 454 l 435 454 m 435 706 l 274 706 q 142 601 142 706 q 174 526 142 550 q 276 501 206 501 q 407 540 365 501 q 435 640 435 568 l 435 706 z "},"«":{"ha":732,"x_min":58,"x_max":618,"o":"m 58 368 l 331 640 l 331 549 l 150 368 l 331 188 l 331 96 l 58 368 m 346 368 l 618 640 l 618 549 l 438 368 l 618 188 l 618 96 l 346 368 z "},"¬":{"ha":714,"x_min":74,"x_max":640,"o":"m 575 149 l 575 333 l 74 333 l 74 399 l 640 399 l 640 149 l 575 149 z "},"­":{"ha":592,"x_min":114,"x_max":478,"o":"m 114 333 l 114 399 l 478 399 l 478 333 l 114 333 z "},"®":{"ha":1242,"x_min":118,"x_max":1124,"o":"m 976 850 q 1050 776 976 850 q 1124 494 1124 703 q 976 139 1124 286 q 621 -8 829 -8 q 265 139 413 -8 q 118 494 118 286 q 265 850 118 703 q 621 997 413 997 q 976 850 829 997 m 929 183 q 994 248 929 183 q 1058 494 1058 314 q 929 806 1058 675 q 621 938 800 938 q 313 806 442 938 q 183 494 183 675 q 313 183 183 314 q 621 51 442 51 q 929 183 800 51 m 754 217 l 617 449 l 525 449 l 525 217 l 463 217 l 463 774 l 640 774 q 762 726 711 774 q 813 610 813 679 q 686 454 813 490 l 826 217 l 754 217 m 717 534 q 733 549 717 534 q 750 610 750 564 q 717 686 750 656 q 633 717 683 717 l 525 717 l 525 504 l 633 504 q 717 534 683 504 z "},"¯":{"ha":694,"x_min":142,"x_max":553,"o":"m 142 844 l 142 908 l 553 908 l 553 844 l 142 844 z "},"°":{"ha":636,"x_min":100,"x_max":536,"o":"m 472 935 q 504 903 472 935 q 536 781 536 871 q 472 626 536 690 q 318 563 408 563 q 164 626 228 563 q 100 781 100 690 q 164 935 100 871 q 318 999 228 999 q 472 935 408 999 m 474 781 q 428 894 474 847 q 317 940 383 940 q 206 895 250 940 q 163 781 163 850 q 207 666 163 711 q 318 621 251 621 q 429 666 385 621 q 474 781 474 711 z "},"±":{"ha":714,"x_min":74,"x_max":640,"o":"m 390 375 l 390 122 l 325 122 l 325 375 l 74 375 l 74 440 l 325 440 l 325 692 l 390 692 l 390 440 l 640 440 l 640 375 l 390 375 m 74 0 l 74 65 l 640 65 l 640 0 l 74 0 z "},"²":{"ha":467,"x_min":69,"x_max":397,"o":"m 69 396 l 69 451 l 303 747 q 335 833 335 790 q 308 911 335 883 q 233 939 282 939 q 160 913 189 939 q 131 833 131 888 l 69 833 q 114 950 69 906 q 233 994 158 994 q 353 951 308 994 q 397 833 397 908 q 350 713 397 774 l 143 451 l 397 451 l 397 396 l 69 396 z "},"³":{"ha":489,"x_min":69,"x_max":419,"o":"m 419 558 q 371 434 419 479 q 246 389 322 389 q 122 430 171 389 q 69 547 72 471 l 132 547 q 167 470 135 496 q 246 444 199 444 q 327 475 296 444 q 358 558 358 506 q 242 671 358 671 l 231 671 l 231 725 l 242 725 q 347 832 347 725 q 318 911 347 883 q 244 939 289 939 q 171 913 199 939 q 139 842 143 888 l 78 842 q 129 953 83 913 q 244 994 175 994 q 363 951 318 994 q 408 833 408 907 q 329 701 408 736 q 419 558 419 668 z "},"´":{"ha":694,"x_min":282,"x_max":510,"o":"m 363 819 l 282 819 l 417 1024 l 510 1024 l 363 819 z "},"µ":{"ha":772,"x_min":122,"x_max":638,"o":"m 567 0 l 567 79 q 369 -8 492 -8 q 193 54 260 -8 l 193 -319 l 122 -319 l 122 669 l 193 669 l 193 254 q 240 106 193 157 q 378 54 288 54 q 517 106 468 54 q 567 254 567 158 l 567 669 l 638 669 l 638 0 l 567 0 z "},"¶":{"ha":804,"x_min":63,"x_max":651,"o":"m 581 -319 l 581 922 l 410 922 l 410 -319 l 339 -319 l 339 461 q 138 541 213 461 q 63 725 63 621 q 141 911 63 833 q 356 989 219 989 l 651 989 l 651 -319 l 581 -319 z "},"·":{"ha":367,"x_min":132,"x_max":235,"o":"m 132 315 l 132 418 l 235 418 l 235 315 l 132 315 z "},"¸":{"ha":694,"x_min":251,"x_max":428,"o":"m 339 -306 l 251 -306 l 351 -97 l 428 -97 l 339 -306 z "},"¹":{"ha":346,"x_min":63,"x_max":235,"o":"m 174 396 l 174 921 l 63 822 l 63 893 l 174 989 l 235 989 l 235 396 l 174 396 z "},"º":{"ha":628,"x_min":100,"x_max":528,"o":"m 461 935 q 528 721 528 868 q 461 507 528 574 q 314 449 403 449 q 167 507 225 449 q 100 721 100 574 q 167 935 100 868 q 314 993 225 993 q 461 935 403 993 m 422 547 q 468 721 468 593 q 422 894 468 849 q 314 939 378 939 q 206 894 250 939 q 160 721 160 849 q 206 547 160 593 q 314 503 250 503 q 422 547 378 503 z "},"»":{"ha":732,"x_min":114,"x_max":674,"o":"m 114 96 l 114 188 l 294 368 l 114 549 l 114 640 l 386 368 l 114 96 m 401 96 l 401 188 l 582 368 l 401 549 l 401 640 l 674 368 l 401 96 z "},"¼":{"ha":1050,"x_min":63,"x_max":994,"o":"m 922 93 l 922 0 l 861 0 l 861 93 l 625 93 l 625 149 l 839 593 l 904 593 l 692 149 l 861 149 l 861 315 l 922 315 l 922 149 l 994 149 l 994 93 l 922 93 m 296 0 l 233 0 l 694 989 l 757 989 l 296 0 m 174 396 l 174 921 l 63 822 l 63 893 l 174 989 l 235 989 l 235 396 l 174 396 z "},"½":{"ha":1061,"x_min":63,"x_max":992,"o":"m 664 0 l 664 56 l 897 351 q 929 438 929 394 q 903 515 929 488 q 828 543 876 543 q 754 517 783 543 q 725 438 725 492 l 664 438 q 708 553 664 508 q 828 599 753 599 q 947 556 903 599 q 992 438 992 513 q 944 317 992 381 l 738 56 l 992 56 l 992 0 l 664 0 m 275 0 l 213 0 l 674 989 l 736 989 l 275 0 m 174 396 l 174 921 l 63 822 l 63 893 l 174 989 l 235 989 l 235 396 l 174 396 z "},"¾":{"ha":1119,"x_min":69,"x_max":1064,"o":"m 419 558 q 371 434 419 479 q 246 389 322 389 q 122 430 171 389 q 69 547 72 471 l 132 547 q 167 470 135 496 q 246 444 199 444 q 327 475 296 444 q 358 558 358 506 q 242 671 358 671 l 231 671 l 231 725 l 242 725 q 347 832 347 725 q 318 911 347 883 q 244 939 289 939 q 171 913 199 939 q 139 842 143 888 l 78 842 q 129 953 83 913 q 244 994 175 994 q 363 951 318 994 q 408 833 408 907 q 329 701 408 736 q 419 558 419 668 m 992 93 l 992 0 l 931 0 l 931 93 l 694 93 l 694 149 l 908 593 l 974 593 l 761 149 l 931 149 l 931 315 l 992 315 l 992 149 l 1064 149 l 1064 93 l 992 93 m 379 0 l 317 0 l 778 989 l 840 989 l 379 0 z "},"¿":{"ha":678,"x_min":69,"x_max":567,"o":"m 567 -83 q 497 -257 567 -186 q 318 -328 428 -328 q 141 -258 213 -328 q 69 -83 69 -187 q 131 82 69 -7 l 249 256 q 274 339 274 292 l 274 404 l 344 404 l 344 342 q 304 217 344 275 l 188 44 q 162 3 169 18 q 147 -35 154 -11 q 140 -83 140 -58 q 191 -213 140 -161 q 318 -265 242 -265 q 447 -212 397 -265 q 496 -83 496 -158 l 567 -83 m 263 576 l 263 669 l 356 669 l 356 576 l 263 576 z "},"À":{"ha":836,"x_min":21,"x_max":815,"o":"m 735 0 l 649 240 l 188 240 l 101 0 l 21 0 l 385 989 l 451 989 l 815 0 l 735 0 m 418 889 l 211 307 l 625 307 l 418 889 m 403 1083 l 256 1288 l 349 1288 l 483 1083 l 403 1083 z "},"Á":{"ha":836,"x_min":21,"x_max":815,"o":"m 735 0 l 649 240 l 188 240 l 101 0 l 21 0 l 385 989 l 451 989 l 815 0 l 735 0 m 418 889 l 211 307 l 625 307 l 418 889 m 433 1083 l 353 1083 l 488 1288 l 581 1288 l 433 1083 z "},"Â":{"ha":836,"x_min":21,"x_max":815,"o":"m 735 0 l 649 240 l 188 240 l 101 0 l 21 0 l 385 989 l 451 989 l 815 0 l 735 0 m 418 889 l 211 307 l 625 307 l 418 889 m 547 1083 l 418 1235 l 289 1083 l 210 1083 l 381 1288 l 456 1288 l 626 1083 l 547 1083 z "},"Ã":{"ha":836,"x_min":21,"x_max":815,"o":"m 735 0 l 649 240 l 188 240 l 101 0 l 21 0 l 385 989 l 451 989 l 815 0 l 735 0 m 418 889 l 211 307 l 625 307 l 418 889 m 625 1171 q 501 1104 558 1104 q 406 1138 464 1104 q 328 1167 356 1167 q 246 1121 292 1167 l 204 1161 q 328 1228 271 1228 q 424 1194 371 1228 q 501 1165 471 1165 q 583 1211 538 1165 l 625 1171 z "},"Ä":{"ha":836,"x_min":21,"x_max":815,"o":"m 735 0 l 649 240 l 188 240 l 101 0 l 21 0 l 385 989 l 451 989 l 815 0 l 735 0 m 418 889 l 211 307 l 625 307 l 418 889 m 233 1097 l 233 1204 l 314 1204 l 314 1097 l 233 1097 m 522 1097 l 522 1204 l 603 1204 l 603 1097 l 522 1097 z "},"Å":{"ha":836,"x_min":21,"x_max":815,"o":"m 735 0 l 649 240 l 188 240 l 101 0 l 21 0 l 385 989 l 451 989 l 815 0 l 735 0 m 418 889 l 211 307 l 625 307 l 418 889 m 530 1308 q 553 1284 530 1308 q 576 1196 576 1261 q 530 1083 576 1131 q 418 1036 483 1036 q 306 1083 353 1036 q 260 1196 260 1131 q 306 1308 260 1261 q 418 1354 353 1354 q 530 1308 483 1354 m 490 1124 q 505 1139 490 1124 q 519 1196 519 1154 q 490 1267 519 1238 q 418 1296 460 1296 q 347 1267 376 1296 q 317 1196 317 1238 q 347 1124 317 1154 q 418 1094 376 1094 q 490 1124 460 1094 z "},"Æ":{"ha":1251,"x_min":14,"x_max":1174,"o":"m 575 0 l 575 240 l 221 240 l 96 0 l 14 0 l 538 989 l 1174 989 l 1174 922 l 649 922 l 649 528 l 1096 528 l 1096 461 l 649 461 l 649 67 l 1174 67 l 1174 0 l 575 0 m 575 922 l 253 307 l 575 307 l 575 922 z "},"Ç":{"ha":894,"x_min":114,"x_max":789,"o":"m 789 281 q 674 69 764 147 q 453 -8 583 -8 q 206 93 307 -8 q 128 231 143 156 q 114 494 114 307 q 128 758 114 682 q 206 896 143 833 q 453 997 307 997 q 674 920 585 997 q 789 708 764 843 l 713 708 q 622 871 690 811 q 453 931 553 931 q 265 854 342 931 q 202 735 215 804 q 189 494 189 665 q 202 254 189 324 q 265 135 215 185 q 453 58 342 58 q 623 118 553 58 q 715 281 693 178 l 789 281 m 419 -306 l 332 -306 l 432 -97 l 508 -97 l 419 -306 z "},"È":{"ha":831,"x_min":153,"x_max":753,"o":"m 153 0 l 153 989 l 753 989 l 753 922 l 228 922 l 228 532 l 675 532 l 675 465 l 228 465 l 228 67 l 753 67 l 753 0 l 153 0 m 421 1083 l 274 1288 l 367 1288 l 501 1083 l 421 1083 z "},"É":{"ha":831,"x_min":153,"x_max":753,"o":"m 153 0 l 153 989 l 753 989 l 753 922 l 228 922 l 228 532 l 675 532 l 675 465 l 228 465 l 228 67 l 753 67 l 753 0 l 153 0 m 451 1083 l 371 1083 l 506 1288 l 599 1288 l 451 1083 z "},"Ê":{"ha":831,"x_min":153,"x_max":753,"o":"m 153 0 l 153 989 l 753 989 l 753 922 l 228 922 l 228 532 l 675 532 l 675 465 l 228 465 l 228 67 l 753 67 l 753 0 l 153 0 m 565 1083 l 436 1235 l 307 1083 l 228 1083 l 399 1288 l 474 1288 l 644 1083 l 565 1083 z "},"Ë":{"ha":831,"x_min":153,"x_max":753,"o":"m 153 0 l 153 989 l 753 989 l 753 922 l 228 922 l 228 532 l 675 532 l 675 465 l 228 465 l 228 67 l 753 67 l 753 0 l 153 0 m 251 1097 l 251 1204 l 332 1204 l 332 1097 l 251 1097 m 540 1097 l 540 1204 l 621 1204 l 621 1097 l 540 1097 z "},"Ì":{"ha":381,"x_min":28,"x_max":256,"o":"m 153 0 l 153 989 l 228 989 l 228 0 l 153 0 m 175 1083 l 28 1288 l 121 1288 l 256 1083 l 175 1083 z "},"Í":{"ha":381,"x_min":125,"x_max":353,"o":"m 153 0 l 153 989 l 228 989 l 228 0 l 153 0 m 206 1083 l 125 1083 l 260 1288 l 353 1288 l 206 1083 z "},"Î":{"ha":381,"x_min":-15,"x_max":401,"o":"m 153 0 l 153 989 l 228 989 l 228 0 l 153 0 m 322 1083 l 193 1235 l 64 1083 l -15 1083 l 156 1288 l 231 1288 l 401 1083 l 322 1083 z "},"Ï":{"ha":381,"x_min":6,"x_max":375,"o":"m 153 0 l 153 989 l 228 989 l 228 0 l 153 0 m 6 1097 l 6 1204 l 86 1204 l 86 1097 l 6 1097 m 294 1097 l 294 1204 l 375 1204 l 375 1097 l 294 1097 z "},"Ð":{"ha":957,"x_min":56,"x_max":843,"o":"m 843 494 q 833 265 843 324 q 790 157 822 207 q 492 0 692 0 l 168 0 l 168 469 l 56 469 l 56 528 l 168 528 l 168 989 l 501 989 q 790 829 697 989 q 834 715 825 769 q 843 494 843 660 m 768 488 q 760 704 768 646 q 713 814 751 763 q 615 899 669 874 q 482 924 560 924 l 243 924 l 243 528 l 490 528 l 490 469 l 243 469 l 243 65 l 482 65 q 721 178 646 65 q 761 279 754 226 q 768 488 768 332 z "},"Ñ":{"ha":1026,"x_min":153,"x_max":874,"o":"m 799 0 l 228 860 l 228 0 l 153 0 l 153 989 l 228 989 l 799 132 l 799 989 l 874 989 l 874 0 l 799 0 m 721 1171 q 597 1104 654 1104 q 501 1138 560 1104 q 424 1167 451 1167 q 342 1121 388 1167 l 300 1161 q 424 1228 367 1228 q 519 1194 467 1228 q 597 1165 567 1165 q 679 1211 633 1165 l 721 1171 z "},"Ò":{"ha":906,"x_min":114,"x_max":792,"o":"m 777 758 q 784 720 777 758 q 792 494 792 682 q 777 231 792 307 q 700 93 763 156 q 453 -8 599 -8 q 206 93 307 -8 q 128 231 143 156 q 114 494 114 307 q 128 758 114 682 q 206 896 143 833 q 453 997 307 997 q 700 896 599 997 q 777 758 763 833 m 703 254 q 710 289 703 254 q 717 494 717 324 q 703 735 717 665 q 640 854 690 804 q 453 931 564 931 q 265 854 342 931 q 202 735 215 804 q 189 494 189 665 q 202 254 189 324 q 265 135 215 185 q 453 58 342 58 q 640 135 564 58 q 703 254 690 185 m 438 1083 l 290 1288 l 383 1288 l 518 1083 l 438 1083 z "},"Ó":{"ha":906,"x_min":114,"x_max":792,"o":"m 777 758 q 784 720 777 758 q 792 494 792 682 q 777 231 792 307 q 700 93 763 156 q 453 -8 599 -8 q 206 93 307 -8 q 128 231 143 156 q 114 494 114 307 q 128 758 114 682 q 206 896 143 833 q 453 997 307 997 q 700 896 599 997 q 777 758 763 833 m 703 254 q 710 289 703 254 q 717 494 717 324 q 703 735 717 665 q 640 854 690 804 q 453 931 564 931 q 265 854 342 931 q 202 735 215 804 q 189 494 189 665 q 202 254 189 324 q 265 135 215 185 q 453 58 342 58 q 640 135 564 58 q 703 254 690 185 m 468 1083 l 388 1083 l 522 1288 l 615 1288 l 468 1083 z "},"Ô":{"ha":906,"x_min":114,"x_max":792,"o":"m 777 758 q 784 720 777 758 q 792 494 792 682 q 777 231 792 307 q 700 93 763 156 q 453 -8 599 -8 q 206 93 307 -8 q 128 231 143 156 q 114 494 114 307 q 128 758 114 682 q 206 896 143 833 q 453 997 307 997 q 700 896 599 997 q 777 758 763 833 m 703 254 q 710 289 703 254 q 717 494 717 324 q 703 735 717 665 q 640 854 690 804 q 453 931 564 931 q 265 854 342 931 q 202 735 215 804 q 189 494 189 665 q 202 254 189 324 q 265 135 215 185 q 453 58 342 58 q 640 135 564 58 q 703 254 690 185 m 582 1083 l 453 1235 l 324 1083 l 244 1083 l 415 1288 l 490 1288 l 661 1083 l 582 1083 z "},"Õ":{"ha":906,"x_min":114,"x_max":792,"o":"m 777 758 q 784 720 777 758 q 792 494 792 682 q 777 231 792 307 q 700 93 763 156 q 453 -8 599 -8 q 206 93 307 -8 q 128 231 143 156 q 114 494 114 307 q 128 758 114 682 q 206 896 143 833 q 453 997 307 997 q 700 896 599 997 q 777 758 763 833 m 703 254 q 710 289 703 254 q 717 494 717 324 q 703 735 717 665 q 640 854 690 804 q 453 931 564 931 q 265 854 342 931 q 202 735 215 804 q 189 494 189 665 q 202 254 189 324 q 265 135 215 185 q 453 58 342 58 q 640 135 564 58 q 703 254 690 185 m 660 1171 q 536 1104 593 1104 q 440 1138 499 1104 q 363 1167 390 1167 q 281 1121 326 1167 l 239 1161 q 363 1228 306 1228 q 458 1194 406 1228 q 536 1165 506 1165 q 618 1211 572 1165 l 660 1171 z "},"Ö":{"ha":906,"x_min":114,"x_max":792,"o":"m 777 758 q 784 720 777 758 q 792 494 792 682 q 777 231 792 307 q 700 93 763 156 q 453 -8 599 -8 q 206 93 307 -8 q 128 231 143 156 q 114 494 114 307 q 128 758 114 682 q 206 896 143 833 q 453 997 307 997 q 700 896 599 997 q 777 758 763 833 m 703 254 q 710 289 703 254 q 717 494 717 324 q 703 735 717 665 q 640 854 690 804 q 453 931 564 931 q 265 854 342 931 q 202 735 215 804 q 189 494 189 665 q 202 254 189 324 q 265 135 215 185 q 453 58 342 58 q 640 135 564 58 q 703 254 690 185 m 268 1097 l 268 1204 l 349 1204 l 349 1097 l 268 1097 m 557 1097 l 557 1204 l 638 1204 l 638 1097 l 557 1097 z "},"×":{"ha":714,"x_min":99,"x_max":615,"o":"m 572 108 l 357 324 l 142 108 l 99 151 l 314 367 l 99 582 l 142 625 l 357 410 l 572 625 l 615 582 l 400 367 l 615 151 l 572 108 z "},"Ø":{"ha":906,"x_min":114,"x_max":792,"o":"m 777 758 q 784 720 777 758 q 792 494 792 682 q 777 231 792 307 q 700 93 763 156 q 453 -8 599 -8 q 272 40 354 -8 l 224 -61 l 150 -61 l 218 81 l 206 93 q 128 231 143 156 q 114 494 114 307 q 128 758 114 682 q 206 896 143 833 q 453 997 307 997 q 633 949 551 997 l 682 1050 l 756 1050 l 688 908 l 700 896 q 777 758 763 833 m 603 885 q 453 931 542 931 q 265 854 342 931 q 202 735 215 804 q 189 494 189 665 q 199 265 189 332 q 251 150 210 197 l 603 885 m 717 494 q 706 724 717 657 q 654 839 696 792 l 303 104 q 453 58 367 58 q 640 135 564 58 q 703 254 690 185 q 717 494 717 324 z "},"Ù":{"ha":956,"x_min":139,"x_max":817,"o":"m 817 321 q 722 84 817 176 q 478 -8 626 -8 q 234 84 329 -8 q 139 321 139 176 l 139 989 l 214 989 l 214 331 q 286 133 214 207 q 478 58 358 58 q 669 133 597 58 q 742 331 742 207 l 742 989 l 817 989 l 817 321 m 463 1083 l 315 1288 l 408 1288 l 543 1083 l 463 1083 z "},"Ú":{"ha":956,"x_min":139,"x_max":817,"o":"m 817 321 q 722 84 817 176 q 478 -8 626 -8 q 234 84 329 -8 q 139 321 139 176 l 139 989 l 214 989 l 214 331 q 286 133 214 207 q 478 58 358 58 q 669 133 597 58 q 742 331 742 207 l 742 989 l 817 989 l 817 321 m 493 1083 l 413 1083 l 547 1288 l 640 1288 l 493 1083 z "},"Û":{"ha":956,"x_min":139,"x_max":817,"o":"m 817 321 q 722 84 817 176 q 478 -8 626 -8 q 234 84 329 -8 q 139 321 139 176 l 139 989 l 214 989 l 214 331 q 286 133 214 207 q 478 58 358 58 q 669 133 597 58 q 742 331 742 207 l 742 989 l 817 989 l 817 321 m 607 1083 l 478 1235 l 349 1083 l 269 1083 l 440 1288 l 515 1288 l 686 1083 l 607 1083 z "},"Ü":{"ha":956,"x_min":139,"x_max":817,"o":"m 817 321 q 722 84 817 176 q 478 -8 626 -8 q 234 84 329 -8 q 139 321 139 176 l 139 989 l 214 989 l 214 331 q 286 133 214 207 q 478 58 358 58 q 669 133 597 58 q 742 331 742 207 l 742 989 l 817 989 l 817 321 m 293 1097 l 293 1204 l 374 1204 l 374 1097 l 293 1097 m 582 1097 l 582 1204 l 663 1204 l 663 1097 l 582 1097 z "},"Ý":{"ha":686,"x_min":14,"x_max":672,"o":"m 381 410 l 381 0 l 306 0 l 306 410 l 14 989 l 94 989 l 346 489 l 592 989 l 672 989 l 381 410 m 358 1083 l 278 1083 l 413 1288 l 506 1288 l 358 1083 z "},"Þ":{"ha":897,"x_min":153,"x_max":814,"o":"m 814 499 q 731 290 814 367 q 515 214 647 214 l 228 214 l 228 0 l 153 0 l 153 989 l 228 989 l 228 783 l 515 783 q 731 708 647 783 q 814 499 814 632 m 676 335 q 708 363 676 335 q 739 499 739 390 q 676 662 739 607 q 507 717 614 717 l 228 717 l 228 281 l 507 281 q 676 335 614 281 z "},"ß":{"ha":764,"x_min":135,"x_max":657,"o":"m 657 186 q 603 47 657 99 q 471 0 550 0 l 396 0 l 396 63 l 457 63 q 547 93 508 63 q 586 194 586 124 l 586 443 q 554 538 586 507 q 464 569 522 569 l 396 569 l 396 632 l 450 632 q 549 671 513 632 q 586 774 586 710 q 538 892 586 850 q 393 936 490 936 q 251 881 297 936 q 206 729 206 825 l 206 0 l 135 0 l 135 729 q 205 927 135 856 q 401 999 275 999 q 584 942 513 999 q 656 774 656 885 q 568 604 656 663 q 638 540 619 578 q 657 432 657 501 l 657 186 z "},"à":{"ha":728,"x_min":78,"x_max":599,"o":"m 528 0 l 528 67 q 441 8 486 25 q 324 -8 396 -8 q 126 53 186 -8 q 78 183 78 101 q 140 326 78 275 q 311 376 201 376 l 528 376 l 528 451 q 483 574 528 533 q 339 615 439 615 q 228 596 269 615 q 154 531 188 576 l 103 575 q 199 655 144 632 q 339 678 254 678 q 599 458 599 678 l 599 0 l 528 0 m 528 319 l 319 319 q 149 185 149 319 q 190 86 149 118 q 324 54 232 54 q 490 106 436 54 q 528 233 528 142 l 528 319 m 331 819 l 183 1024 l 276 1024 l 411 819 l 331 819 z "},"á":{"ha":728,"x_min":78,"x_max":599,"o":"m 528 0 l 528 67 q 441 8 486 25 q 324 -8 396 -8 q 126 53 186 -8 q 78 183 78 101 q 140 326 78 275 q 311 376 201 376 l 528 376 l 528 451 q 483 574 528 533 q 339 615 439 615 q 228 596 269 615 q 154 531 188 576 l 103 575 q 199 655 144 632 q 339 678 254 678 q 599 458 599 678 l 599 0 l 528 0 m 528 319 l 319 319 q 149 185 149 319 q 190 86 149 118 q 324 54 232 54 q 490 106 436 54 q 528 233 528 142 l 528 319 m 361 819 l 281 819 l 415 1024 l 508 1024 l 361 819 z "},"â":{"ha":728,"x_min":78,"x_max":599,"o":"m 528 0 l 528 67 q 441 8 486 25 q 324 -8 396 -8 q 126 53 186 -8 q 78 183 78 101 q 140 326 78 275 q 311 376 201 376 l 528 376 l 528 451 q 483 574 528 533 q 339 615 439 615 q 228 596 269 615 q 154 531 188 576 l 103 575 q 199 655 144 632 q 339 678 254 678 q 599 458 599 678 l 599 0 l 528 0 m 528 319 l 319 319 q 149 185 149 319 q 190 86 149 118 q 324 54 232 54 q 490 106 436 54 q 528 233 528 142 l 528 319 m 475 819 l 346 971 l 217 819 l 138 819 l 308 1024 l 383 1024 l 554 819 l 475 819 z "},"ã":{"ha":728,"x_min":78,"x_max":599,"o":"m 528 0 l 528 67 q 441 8 486 25 q 324 -8 396 -8 q 126 53 186 -8 q 78 183 78 101 q 140 326 78 275 q 311 376 201 376 l 528 376 l 528 451 q 483 574 528 533 q 339 615 439 615 q 228 596 269 615 q 154 531 188 576 l 103 575 q 199 655 144 632 q 339 678 254 678 q 599 458 599 678 l 599 0 l 528 0 m 528 319 l 319 319 q 149 185 149 319 q 190 86 149 118 q 324 54 232 54 q 490 106 436 54 q 528 233 528 142 l 528 319 m 553 907 q 429 840 486 840 q 333 874 392 840 q 256 903 283 903 q 174 857 219 903 l 132 897 q 256 964 199 964 q 351 931 299 964 q 429 901 399 901 q 511 947 465 901 l 553 907 z "},"ä":{"ha":728,"x_min":78,"x_max":599,"o":"m 528 0 l 528 67 q 441 8 486 25 q 324 -8 396 -8 q 126 53 186 -8 q 78 183 78 101 q 140 326 78 275 q 311 376 201 376 l 528 376 l 528 451 q 483 574 528 533 q 339 615 439 615 q 228 596 269 615 q 154 531 188 576 l 103 575 q 199 655 144 632 q 339 678 254 678 q 599 458 599 678 l 599 0 l 528 0 m 528 319 l 319 319 q 149 185 149 319 q 190 86 149 118 q 324 54 232 54 q 490 106 436 54 q 528 233 528 142 l 528 319 m 161 833 l 161 940 l 242 940 l 242 833 l 161 833 m 450 833 l 450 940 l 531 940 l 531 833 l 450 833 z "},"å":{"ha":728,"x_min":78,"x_max":599,"o":"m 528 0 l 528 67 q 441 8 486 25 q 324 -8 396 -8 q 126 53 186 -8 q 78 183 78 101 q 140 326 78 275 q 311 376 201 376 l 528 376 l 528 451 q 483 574 528 533 q 339 615 439 615 q 228 596 269 615 q 154 531 188 576 l 103 575 q 199 655 144 632 q 339 678 254 678 q 599 458 599 678 l 599 0 l 528 0 m 528 319 l 319 319 q 149 185 149 319 q 190 86 149 118 q 324 54 232 54 q 490 106 436 54 q 528 233 528 142 l 528 319 m 458 1052 q 481 1029 458 1052 q 504 940 504 1006 q 458 828 504 875 q 346 781 411 781 q 234 828 281 781 q 188 940 188 875 q 234 1052 188 1006 q 346 1099 281 1099 q 458 1052 411 1099 m 417 869 q 432 884 417 869 q 447 940 447 899 q 417 1011 447 982 q 346 1040 388 1040 q 274 1011 304 1040 q 244 940 244 982 q 274 869 244 899 q 346 839 304 839 q 417 869 388 839 z "},"æ":{"ha":1158,"x_min":78,"x_max":1064,"o":"m 599 319 q 654 123 599 190 q 817 56 710 56 q 917 74 875 56 q 1001 136 958 93 l 1054 94 q 946 16 1000 40 q 811 -8 892 -8 q 572 117 642 -8 q 474 20 531 49 q 324 -8 417 -8 q 126 53 186 -8 q 78 183 78 101 q 140 326 78 275 q 311 376 201 376 l 528 376 l 528 451 q 483 574 528 533 q 339 615 439 615 q 228 596 269 615 q 154 531 188 576 l 103 575 q 199 655 144 632 q 339 678 254 678 q 579 560 528 678 q 796 678 649 678 q 993 592 922 678 q 1064 351 1064 506 l 1064 319 l 599 319 m 528 319 l 319 319 q 149 185 149 319 q 190 86 149 118 q 324 54 232 54 q 490 106 436 54 q 528 233 528 142 l 528 319 m 993 376 q 969 503 988 463 q 901 585 947 556 q 796 615 854 615 q 691 585 738 615 q 622 503 644 556 q 599 376 603 450 l 993 376 z "},"ç":{"ha":685,"x_min":96,"x_max":611,"o":"m 611 94 q 510 14 560 36 q 390 -8 461 -8 q 174 83 253 -8 q 96 335 96 175 q 174 586 96 494 q 390 678 253 678 q 510 656 461 678 q 611 575 560 633 l 563 531 q 482 597 519 578 q 390 615 444 615 q 213 526 272 615 q 167 335 167 460 q 213 143 167 210 q 390 54 272 54 q 481 73 443 54 q 563 139 519 92 l 611 94 m 428 -97 l 339 -306 l 251 -306 l 351 -97 l 428 -97 z "},"è":{"ha":726,"x_min":96,"x_max":632,"o":"m 167 319 q 222 123 167 190 q 385 56 278 56 q 485 74 443 56 q 569 136 526 93 l 622 94 q 514 16 568 40 q 381 -8 460 -8 q 169 79 242 -8 q 96 335 96 167 q 167 588 96 497 q 364 678 238 678 q 561 592 490 678 q 632 351 632 506 l 632 319 l 167 319 m 561 376 q 538 503 556 463 q 469 585 515 556 q 364 615 422 615 q 259 585 306 615 q 190 503 213 556 q 167 376 171 450 l 561 376 m 351 819 l 204 1024 l 297 1024 l 432 819 l 351 819 z "},"é":{"ha":726,"x_min":96,"x_max":632,"o":"m 167 319 q 222 123 167 190 q 385 56 278 56 q 485 74 443 56 q 569 136 526 93 l 622 94 q 514 16 568 40 q 381 -8 460 -8 q 169 79 242 -8 q 96 335 96 167 q 167 588 96 497 q 364 678 238 678 q 561 592 490 678 q 632 351 632 506 l 632 319 l 167 319 m 561 376 q 538 503 556 463 q 469 585 515 556 q 364 615 422 615 q 259 585 306 615 q 190 503 213 556 q 167 376 171 450 l 561 376 m 382 819 l 301 819 l 436 1024 l 529 1024 l 382 819 z "},"ê":{"ha":726,"x_min":96,"x_max":632,"o":"m 167 319 q 222 123 167 190 q 385 56 278 56 q 485 74 443 56 q 569 136 526 93 l 622 94 q 514 16 568 40 q 381 -8 460 -8 q 169 79 242 -8 q 96 335 96 167 q 167 588 96 497 q 364 678 238 678 q 561 592 490 678 q 632 351 632 506 l 632 319 l 167 319 m 561 376 q 538 503 556 463 q 469 585 515 556 q 364 615 422 615 q 259 585 306 615 q 190 503 213 556 q 167 376 171 450 l 561 376 m 496 819 l 367 971 l 238 819 l 158 819 l 329 1024 l 404 1024 l 575 819 l 496 819 z "},"ë":{"ha":726,"x_min":96,"x_max":632,"o":"m 167 319 q 222 123 167 190 q 385 56 278 56 q 485 74 443 56 q 569 136 526 93 l 622 94 q 514 16 568 40 q 381 -8 460 -8 q 169 79 242 -8 q 96 335 96 167 q 167 588 96 497 q 364 678 238 678 q 561 592 490 678 q 632 351 632 506 l 632 319 l 167 319 m 561 376 q 538 503 556 463 q 469 585 515 556 q 364 615 422 615 q 259 585 306 615 q 190 503 213 556 q 167 376 171 450 l 561 376 m 182 833 l 182 940 l 263 940 l 263 833 l 182 833 m 471 833 l 471 940 l 551 940 l 551 833 l 471 833 z "},"ì":{"ha":340,"x_min":-22,"x_max":206,"o":"m 135 0 l 135 669 l 206 669 l 206 0 l 135 0 m 125 819 l -22 1024 l 71 1024 l 206 819 l 125 819 z "},"í":{"ha":340,"x_min":135,"x_max":363,"o":"m 135 0 l 135 669 l 206 669 l 206 0 l 135 0 m 215 819 l 135 819 l 269 1024 l 363 1024 l 215 819 z "},"î":{"ha":340,"x_min":-39,"x_max":378,"o":"m 135 0 l 135 669 l 206 669 l 206 0 l 135 0 m 299 819 l 169 971 l 40 819 l -39 819 l 132 1024 l 207 1024 l 378 819 l 299 819 z "},"ï":{"ha":340,"x_min":-14,"x_max":356,"o":"m 135 0 l 135 669 l 206 669 l 206 0 l 135 0 m -14 833 l -14 940 l 67 940 l 67 833 l -14 833 m 275 833 l 275 940 l 356 940 l 356 833 l 275 833 z "},"ð":{"ha":731,"x_min":96,"x_max":635,"o":"m 635 335 q 551 65 635 149 q 365 -8 478 -8 q 179 65 253 -8 q 96 335 96 149 q 179 604 96 521 q 365 678 253 678 q 469 654 431 678 l 376 811 l 214 811 l 214 864 l 346 864 l 272 989 l 346 989 l 418 864 l 528 864 l 528 811 l 449 811 l 549 640 q 619 487 603 546 q 635 335 635 428 m 504 111 q 564 335 564 171 q 504 558 564 499 q 365 615 447 615 q 226 558 283 615 q 167 335 167 499 q 226 111 167 171 q 365 54 283 54 q 504 111 447 54 z "},"ñ":{"ha":776,"x_min":135,"x_max":650,"o":"m 579 0 l 579 415 q 532 564 579 513 q 394 615 485 615 q 255 563 304 615 q 206 415 206 511 l 206 0 l 135 0 l 135 669 l 206 669 l 206 590 q 403 678 281 678 q 581 614 515 678 q 650 428 650 547 l 650 0 l 579 0 m 601 907 q 478 840 535 840 q 382 874 440 840 q 304 903 332 903 q 222 857 268 903 l 181 897 q 304 964 247 964 q 400 931 347 964 q 478 901 447 901 q 560 947 514 901 l 601 907 z "},"ò":{"ha":731,"x_min":96,"x_max":635,"o":"m 551 604 q 635 335 635 521 q 551 65 635 149 q 365 -8 478 -8 q 179 65 253 -8 q 96 335 96 149 q 179 604 96 521 q 365 678 253 678 q 551 604 478 678 m 504 111 q 564 335 564 171 q 504 558 564 499 q 365 615 447 615 q 226 558 283 615 q 167 335 167 499 q 226 111 167 171 q 365 54 283 54 q 504 111 447 54 m 357 819 l 210 1024 l 303 1024 l 438 819 l 357 819 z "},"ó":{"ha":731,"x_min":96,"x_max":635,"o":"m 551 604 q 635 335 635 521 q 551 65 635 149 q 365 -8 478 -8 q 179 65 253 -8 q 96 335 96 149 q 179 604 96 521 q 365 678 253 678 q 551 604 478 678 m 504 111 q 564 335 564 171 q 504 558 564 499 q 365 615 447 615 q 226 558 283 615 q 167 335 167 499 q 226 111 167 171 q 365 54 283 54 q 504 111 447 54 m 381 819 l 300 819 l 435 1024 l 528 1024 l 381 819 z "},"ô":{"ha":731,"x_min":96,"x_max":635,"o":"m 551 604 q 635 335 635 521 q 551 65 635 149 q 365 -8 478 -8 q 179 65 253 -8 q 96 335 96 149 q 179 604 96 521 q 365 678 253 678 q 551 604 478 678 m 504 111 q 564 335 564 171 q 504 558 564 499 q 365 615 447 615 q 226 558 283 615 q 167 335 167 499 q 226 111 167 171 q 365 54 283 54 q 504 111 447 54 m 494 819 l 365 971 l 236 819 l 157 819 l 328 1024 l 403 1024 l 574 819 l 494 819 z "},"õ":{"ha":731,"x_min":96,"x_max":635,"o":"m 551 604 q 635 335 635 521 q 551 65 635 149 q 365 -8 478 -8 q 179 65 253 -8 q 96 335 96 149 q 179 604 96 521 q 365 678 253 678 q 551 604 478 678 m 504 111 q 564 335 564 171 q 504 558 564 499 q 365 615 447 615 q 226 558 283 615 q 167 335 167 499 q 226 111 167 171 q 365 54 283 54 q 504 111 447 54 m 572 907 q 449 840 506 840 q 353 874 411 840 q 275 903 303 903 q 193 857 239 903 l 151 897 q 275 964 218 964 q 371 931 318 964 q 449 901 418 901 q 531 947 485 901 l 572 907 z "},"ö":{"ha":731,"x_min":96,"x_max":635,"o":"m 551 604 q 635 335 635 521 q 551 65 635 149 q 365 -8 478 -8 q 179 65 253 -8 q 96 335 96 149 q 179 604 96 521 q 365 678 253 678 q 551 604 478 678 m 504 111 q 564 335 564 171 q 504 558 564 499 q 365 615 447 615 q 226 558 283 615 q 167 335 167 499 q 226 111 167 171 q 365 54 283 54 q 504 111 447 54 m 181 833 l 181 940 l 261 940 l 261 833 l 181 833 m 469 833 l 469 940 l 550 940 l 550 833 l 469 833 z "},"÷":{"ha":714,"x_min":74,"x_max":640,"o":"m 74 333 l 74 399 l 640 399 l 640 333 l 74 333 m 308 551 l 308 649 l 406 649 l 406 551 l 308 551 m 308 83 l 308 181 l 406 181 l 406 83 l 308 83 z "},"ø":{"ha":731,"x_min":96,"x_max":635,"o":"m 635 335 q 551 65 635 149 q 365 -8 478 -8 q 219 32 285 -8 l 164 -61 l 97 -61 l 175 69 q 96 335 96 154 q 179 604 96 521 q 365 678 253 678 q 511 636 449 678 l 567 731 l 633 731 l 556 600 q 635 335 635 515 m 478 581 q 365 615 429 615 q 226 558 283 615 q 167 335 167 499 q 211 129 167 188 l 478 581 m 564 335 q 519 540 564 482 l 253 89 q 365 54 301 54 q 504 111 447 54 q 564 335 564 171 z "},"ù":{"ha":776,"x_min":126,"x_max":642,"o":"m 571 0 l 571 79 q 374 -8 496 -8 q 196 56 261 -8 q 126 242 126 122 l 126 669 l 197 669 l 197 254 q 244 106 197 157 q 382 54 292 54 q 522 106 472 54 q 571 254 571 158 l 571 669 l 642 669 l 642 0 l 571 0 m 368 819 l 221 1024 l 314 1024 l 449 819 l 368 819 z "},"ú":{"ha":776,"x_min":126,"x_max":642,"o":"m 571 0 l 571 79 q 374 -8 496 -8 q 196 56 261 -8 q 126 242 126 122 l 126 669 l 197 669 l 197 254 q 244 106 197 157 q 382 54 292 54 q 522 106 472 54 q 571 254 571 158 l 571 669 l 642 669 l 642 0 l 571 0 m 399 819 l 318 819 l 453 1024 l 546 1024 l 399 819 z "},"û":{"ha":776,"x_min":126,"x_max":642,"o":"m 571 0 l 571 79 q 374 -8 496 -8 q 196 56 261 -8 q 126 242 126 122 l 126 669 l 197 669 l 197 254 q 244 106 197 157 q 382 54 292 54 q 522 106 472 54 q 571 254 571 158 l 571 669 l 642 669 l 642 0 l 571 0 m 513 819 l 383 971 l 254 819 l 175 819 l 346 1024 l 421 1024 l 592 819 l 513 819 z "},"ü":{"ha":776,"x_min":126,"x_max":642,"o":"m 571 0 l 571 79 q 374 -8 496 -8 q 196 56 261 -8 q 126 242 126 122 l 126 669 l 197 669 l 197 254 q 244 106 197 157 q 382 54 292 54 q 522 106 472 54 q 571 254 571 158 l 571 669 l 642 669 l 642 0 l 571 0 m 199 833 l 199 940 l 279 940 l 279 833 l 199 833 m 488 833 l 488 940 l 568 940 l 568 833 l 488 833 z "},"ý":{"ha":597,"x_min":19,"x_max":578,"o":"m 267 -182 q 221 -260 247 -237 q 94 -303 176 -303 l 61 -303 l 61 -240 l 88 -240 q 167 -221 143 -240 q 210 -149 192 -201 l 264 0 l 19 669 l 97 669 l 299 83 l 500 669 l 578 669 l 267 -182 m 314 819 l 233 819 l 368 1024 l 461 1024 l 314 819 z "},"þ":{"ha":750,"x_min":135,"x_max":654,"o":"m 568 619 q 654 335 654 533 q 568 50 654 136 q 404 -8 510 -8 q 294 12 342 -8 q 206 86 247 32 l 206 -319 l 135 -319 l 135 989 l 206 989 l 206 583 q 294 658 247 638 q 404 678 342 678 q 568 619 510 678 m 576 231 q 580 253 576 231 q 583 335 583 275 q 576 439 583 394 q 551 526 569 483 q 492 592 532 569 q 394 615 453 615 q 297 592 336 615 q 238 526 257 569 q 213 439 219 483 q 206 335 206 394 q 213 231 206 275 q 238 143 219 186 q 297 77 257 100 q 394 54 336 54 q 492 77 453 54 q 551 143 532 100 q 576 231 569 186 z "},"ÿ":{"ha":597,"x_min":19,"x_max":578,"o":"m 267 -182 q 221 -260 247 -237 q 94 -303 176 -303 l 61 -303 l 61 -240 l 88 -240 q 167 -221 143 -240 q 210 -149 192 -201 l 264 0 l 19 669 l 97 669 l 299 83 l 500 669 l 578 669 l 267 -182 m 114 833 l 114 940 l 194 940 l 194 833 l 114 833 m 403 833 l 403 940 l 483 940 l 483 833 l 403 833 z "},"Ā":{"ha":836,"x_min":21,"x_max":815,"o":"m 735 0 l 649 240 l 188 240 l 101 0 l 21 0 l 385 989 l 451 989 l 815 0 l 735 0 m 418 889 l 211 307 l 625 307 l 418 889 m 213 1108 l 213 1172 l 624 1172 l 624 1108 l 213 1108 z "},"ā":{"ha":728,"x_min":78,"x_max":599,"o":"m 528 0 l 528 67 q 441 8 486 25 q 324 -8 396 -8 q 126 53 186 -8 q 78 183 78 101 q 140 326 78 275 q 311 376 201 376 l 528 376 l 528 451 q 483 574 528 533 q 339 615 439 615 q 228 596 269 615 q 154 531 188 576 l 103 575 q 199 655 144 632 q 339 678 254 678 q 599 458 599 678 l 599 0 l 528 0 m 528 319 l 319 319 q 149 185 149 319 q 190 86 149 118 q 324 54 232 54 q 490 106 436 54 q 528 233 528 142 l 528 319 m 158 844 l 158 908 l 569 908 l 569 844 l 158 844 z "},"Ă":{"ha":836,"x_min":21,"x_max":815,"o":"m 735 0 l 649 240 l 188 240 l 101 0 l 21 0 l 385 989 l 451 989 l 815 0 l 735 0 m 418 889 l 211 307 l 625 307 l 418 889 m 647 1288 q 418 1100 628 1100 q 189 1288 208 1100 l 251 1288 q 303 1196 260 1229 q 418 1163 347 1163 q 533 1196 489 1163 q 585 1288 576 1229 l 647 1288 z "},"ă":{"ha":728,"x_min":78,"x_max":599,"o":"m 528 0 l 528 67 q 441 8 486 25 q 324 -8 396 -8 q 126 53 186 -8 q 78 183 78 101 q 140 326 78 275 q 311 376 201 376 l 528 376 l 528 451 q 483 574 528 533 q 339 615 439 615 q 228 596 269 615 q 154 531 188 576 l 103 575 q 199 655 144 632 q 339 678 254 678 q 599 458 599 678 l 599 0 l 528 0 m 528 319 l 319 319 q 149 185 149 319 q 190 86 149 118 q 324 54 232 54 q 490 106 436 54 q 528 233 528 142 l 528 319 m 568 1003 q 339 815 549 815 q 110 1003 129 815 l 172 1003 q 224 911 181 944 q 339 878 268 878 q 453 911 410 878 q 506 1003 497 944 l 568 1003 z "},"Ą":{"ha":836,"x_min":21,"x_max":815,"o":"m 735 0 l 649 240 l 188 240 l 101 0 l 21 0 l 385 989 l 451 989 l 815 0 l 735 0 m 418 889 l 211 307 l 625 307 l 418 889 m 722 -306 l 635 -306 l 735 -97 l 811 -97 l 722 -306 z "},"ą":{"ha":728,"x_min":78,"x_max":604,"o":"m 528 0 l 528 67 q 441 8 486 25 q 324 -8 396 -8 q 126 53 186 -8 q 78 183 78 101 q 140 326 78 275 q 311 376 201 376 l 528 376 l 528 451 q 483 574 528 533 q 339 615 439 615 q 228 596 269 615 q 154 531 188 576 l 103 575 q 199 655 144 632 q 339 678 254 678 q 599 458 599 678 l 599 0 l 528 0 m 528 319 l 319 319 q 149 185 149 319 q 190 86 149 118 q 324 54 232 54 q 490 106 436 54 q 528 233 528 142 l 528 319 m 515 -306 l 428 -306 l 528 -97 l 604 -97 l 515 -306 z "},"Ć":{"ha":894,"x_min":114,"x_max":789,"o":"m 789 281 q 674 69 764 147 q 453 -8 583 -8 q 206 93 307 -8 q 128 231 143 156 q 114 494 114 307 q 128 758 114 682 q 206 896 143 833 q 453 997 307 997 q 674 920 585 997 q 789 708 764 843 l 713 708 q 622 871 690 811 q 453 931 553 931 q 265 854 342 931 q 202 735 215 804 q 189 494 189 665 q 202 254 189 324 q 265 135 215 185 q 453 58 342 58 q 623 118 553 58 q 715 281 693 178 l 789 281 m 463 1083 l 382 1083 l 517 1288 l 610 1288 l 463 1083 z "},"ć":{"ha":685,"x_min":96,"x_max":611,"o":"m 611 94 q 510 14 560 36 q 390 -8 461 -8 q 174 83 253 -8 q 96 335 96 175 q 174 586 96 494 q 390 678 253 678 q 510 656 461 678 q 611 575 560 633 l 563 531 q 482 597 519 578 q 390 615 444 615 q 213 526 272 615 q 167 335 167 460 q 213 143 167 210 q 390 54 272 54 q 481 73 443 54 q 563 139 519 92 l 611 94 m 406 819 l 325 819 l 460 1024 l 553 1024 l 406 819 z "},"Ĉ":{"ha":894,"x_min":114,"x_max":789,"o":"m 789 281 q 674 69 764 147 q 453 -8 583 -8 q 206 93 307 -8 q 128 231 143 156 q 114 494 114 307 q 128 758 114 682 q 206 896 143 833 q 453 997 307 997 q 674 920 585 997 q 789 708 764 843 l 713 708 q 622 871 690 811 q 453 931 553 931 q 265 854 342 931 q 202 735 215 804 q 189 494 189 665 q 202 254 189 324 q 265 135 215 185 q 453 58 342 58 q 623 118 553 58 q 715 281 693 178 l 789 281 m 582 1083 l 453 1235 l 324 1083 l 244 1083 l 415 1288 l 490 1288 l 661 1083 l 582 1083 z "},"ĉ":{"ha":685,"x_min":96,"x_max":611,"o":"m 611 94 q 510 14 560 36 q 390 -8 461 -8 q 174 83 253 -8 q 96 335 96 175 q 174 586 96 494 q 390 678 253 678 q 510 656 461 678 q 611 575 560 633 l 563 531 q 482 597 519 578 q 390 615 444 615 q 213 526 272 615 q 167 335 167 460 q 213 143 167 210 q 390 54 272 54 q 481 73 443 54 q 563 139 519 92 l 611 94 m 519 819 l 390 971 l 261 819 l 182 819 l 353 1024 l 428 1024 l 599 819 l 519 819 z "},"Ċ":{"ha":894,"x_min":114,"x_max":789,"o":"m 789 281 q 674 69 764 147 q 453 -8 583 -8 q 206 93 307 -8 q 128 231 143 156 q 114 494 114 307 q 128 758 114 682 q 206 896 143 833 q 453 997 307 997 q 674 920 585 997 q 789 708 764 843 l 713 708 q 622 871 690 811 q 453 931 553 931 q 265 854 342 931 q 202 735 215 804 q 189 494 189 665 q 202 254 189 324 q 265 135 215 185 q 453 58 342 58 q 623 118 553 58 q 715 281 693 178 l 789 281 m 410 1097 l 410 1185 l 496 1185 l 496 1097 l 410 1097 z "},"ċ":{"ha":685,"x_min":96,"x_max":611,"o":"m 611 94 q 510 14 560 36 q 390 -8 461 -8 q 174 83 253 -8 q 96 335 96 175 q 174 586 96 494 q 390 678 253 678 q 510 656 461 678 q 611 575 560 633 l 563 531 q 482 597 519 578 q 390 615 444 615 q 213 526 272 615 q 167 335 167 460 q 213 143 167 210 q 390 54 272 54 q 481 73 443 54 q 563 139 519 92 l 611 94 m 347 901 l 347 989 l 433 989 l 433 901 l 347 901 z "},"Č":{"ha":894,"x_min":114,"x_max":789,"o":"m 789 281 q 674 69 764 147 q 453 -8 583 -8 q 206 93 307 -8 q 128 231 143 156 q 114 494 114 307 q 128 758 114 682 q 206 896 143 833 q 453 997 307 997 q 674 920 585 997 q 789 708 764 843 l 713 708 q 622 871 690 811 q 453 931 553 931 q 265 854 342 931 q 202 735 215 804 q 189 494 189 665 q 202 254 189 324 q 265 135 215 185 q 453 58 342 58 q 623 118 553 58 q 715 281 693 178 l 789 281 m 485 1083 l 410 1083 l 239 1288 l 318 1288 l 447 1136 l 576 1288 l 656 1288 l 485 1083 z "},"č":{"ha":685,"x_min":96,"x_max":611,"o":"m 611 94 q 510 14 560 36 q 390 -8 461 -8 q 174 83 253 -8 q 96 335 96 175 q 174 586 96 494 q 390 678 253 678 q 510 656 461 678 q 611 575 560 633 l 563 531 q 482 597 519 578 q 390 615 444 615 q 213 526 272 615 q 167 335 167 460 q 213 143 167 210 q 390 54 272 54 q 481 73 443 54 q 563 139 519 92 l 611 94 m 428 819 l 353 819 l 182 1024 l 261 1024 l 390 872 l 519 1024 l 599 1024 l 428 819 z "},"Ď":{"ha":942,"x_min":153,"x_max":828,"o":"m 828 508 q 826 396 828 431 q 817 292 825 361 q 788 174 810 222 q 732 90 767 125 q 485 0 642 0 l 153 0 l 153 989 l 485 989 q 732 899 642 989 q 789 819 768 863 q 817 712 810 775 q 826 617 825 649 q 828 508 828 585 m 753 508 q 751 633 753 594 q 733 740 750 672 q 679 846 715 808 q 467 922 607 922 l 228 922 l 228 67 l 467 67 q 679 143 607 67 q 733 256 715 181 q 751 375 750 332 q 753 508 753 418 m 508 1083 l 433 1083 l 263 1288 l 342 1288 l 471 1136 l 600 1288 l 679 1288 l 508 1083 z "},"ď":{"ha":750,"x_min":96,"x_max":851,"o":"m 851 892 l 754 794 l 754 989 l 851 989 l 851 892 m 544 0 l 544 86 q 456 12 503 32 q 346 -8 408 -8 q 182 50 240 -8 q 96 335 96 136 q 182 619 96 533 q 346 678 240 678 q 456 658 408 678 q 544 583 503 638 l 544 989 l 615 989 l 615 0 l 544 0 m 538 231 q 541 253 538 231 q 544 335 544 275 q 538 439 544 394 q 512 526 531 483 q 453 592 493 569 q 356 615 414 615 q 258 592 297 615 q 199 526 218 569 q 174 439 181 483 q 167 335 167 394 q 174 231 167 275 q 199 143 181 186 q 258 77 218 100 q 356 54 297 54 q 453 77 414 54 q 512 143 493 100 q 538 231 531 186 z "},"Đ":{"ha":957,"x_min":56,"x_max":843,"o":"m 843 494 q 833 265 843 322 q 790 157 822 208 q 492 0 690 0 l 168 0 l 168 469 l 56 469 l 56 528 l 168 528 l 168 989 l 501 989 q 790 829 697 989 q 834 715 825 768 q 843 494 843 661 m 768 488 q 760 703 768 643 q 713 814 751 763 q 482 924 631 924 l 243 924 l 243 528 l 490 528 l 490 469 l 243 469 l 243 65 l 482 65 q 721 178 646 65 q 761 278 754 226 q 768 488 768 331 z "},"đ":{"ha":750,"x_min":96,"x_max":706,"o":"m 706 797 l 615 797 l 615 0 l 544 0 l 544 86 q 346 -8 474 -8 q 182 50 240 -8 q 96 335 96 136 q 182 619 96 533 q 346 678 240 678 q 544 583 474 678 l 544 797 l 356 797 l 356 847 l 544 847 l 544 989 l 615 989 l 615 847 l 706 847 l 706 797 m 538 231 q 541 253 538 231 q 544 335 544 275 q 538 439 544 394 q 512 526 531 483 q 453 592 493 569 q 356 615 414 615 q 258 592 297 615 q 199 526 218 569 q 174 439 181 483 q 167 335 167 394 q 174 231 167 275 q 199 143 181 186 q 258 77 218 100 q 356 54 297 54 q 453 77 414 54 q 512 143 493 100 q 538 231 531 186 z "},"Ē":{"ha":831,"x_min":153,"x_max":753,"o":"m 153 0 l 153 989 l 753 989 l 753 922 l 228 922 l 228 532 l 675 532 l 675 465 l 228 465 l 228 67 l 753 67 l 753 0 l 153 0 m 217 1108 l 217 1172 l 628 1172 l 628 1108 l 217 1108 z "},"ē":{"ha":726,"x_min":96,"x_max":632,"o":"m 167 319 q 222 123 167 190 q 385 56 278 56 q 485 74 443 56 q 569 136 526 93 l 622 94 q 514 16 568 40 q 381 -8 460 -8 q 169 79 242 -8 q 96 335 96 167 q 167 588 96 497 q 364 678 238 678 q 561 592 490 678 q 632 351 632 506 l 632 319 l 167 319 m 561 376 q 538 503 556 463 q 469 585 515 556 q 364 615 422 615 q 259 585 306 615 q 190 503 213 556 q 167 376 171 450 l 561 376 m 157 844 l 157 908 l 568 908 l 568 844 l 157 844 z "},"Ė":{"ha":831,"x_min":153,"x_max":753,"o":"m 153 0 l 153 989 l 753 989 l 753 922 l 228 922 l 228 532 l 675 532 l 675 465 l 228 465 l 228 67 l 753 67 l 753 0 l 153 0 m 372 1101 l 372 1189 l 458 1189 l 458 1101 l 372 1101 z "},"ė":{"ha":726,"x_min":96,"x_max":632,"o":"m 167 319 q 222 123 167 190 q 385 56 278 56 q 485 74 443 56 q 569 136 526 93 l 622 94 q 514 16 568 40 q 381 -8 460 -8 q 169 79 242 -8 q 96 335 96 167 q 167 588 96 497 q 364 678 238 678 q 561 592 490 678 q 632 351 632 506 l 632 319 l 167 319 m 561 376 q 538 503 556 463 q 469 585 515 556 q 364 615 422 615 q 259 585 306 615 q 190 503 213 556 q 167 376 171 450 l 561 376 m 319 893 l 319 981 l 406 981 l 406 893 l 319 893 z "},"Ę":{"ha":831,"x_min":153,"x_max":753,"o":"m 153 0 l 153 989 l 753 989 l 753 922 l 228 922 l 228 532 l 675 532 l 675 465 l 228 465 l 228 67 l 753 67 l 753 0 l 153 0 m 664 -306 l 576 -306 l 676 -97 l 753 -97 l 664 -306 z "},"ę":{"ha":726,"x_min":96,"x_max":632,"o":"m 167 319 q 222 123 167 190 q 385 56 278 56 q 485 74 443 56 q 569 136 526 93 l 622 94 q 514 16 568 40 q 381 -8 460 -8 q 169 79 242 -8 q 96 335 96 167 q 167 588 96 497 q 364 678 238 678 q 561 592 490 678 q 632 351 632 506 l 632 319 l 167 319 m 561 376 q 538 503 556 463 q 469 585 515 556 q 364 615 422 615 q 259 585 306 615 q 190 503 213 556 q 167 376 171 450 l 561 376 m 404 -306 l 317 -306 l 417 -97 l 493 -97 l 404 -306 z "},"Ě":{"ha":831,"x_min":153,"x_max":753,"o":"m 153 0 l 153 989 l 753 989 l 753 922 l 228 922 l 228 532 l 675 532 l 675 465 l 228 465 l 228 67 l 753 67 l 753 0 l 153 0 m 453 1083 l 378 1083 l 207 1288 l 286 1288 l 415 1136 l 544 1288 l 624 1288 l 453 1083 z "},"ě":{"ha":726,"x_min":96,"x_max":632,"o":"m 167 319 q 222 123 167 190 q 385 56 278 56 q 485 74 443 56 q 569 136 526 93 l 622 94 q 514 16 568 40 q 381 -8 460 -8 q 169 79 242 -8 q 96 335 96 167 q 167 588 96 497 q 364 678 238 678 q 561 592 490 678 q 632 351 632 506 l 632 319 l 167 319 m 561 376 q 538 503 556 463 q 469 585 515 556 q 364 615 422 615 q 259 585 306 615 q 190 503 213 556 q 167 376 171 450 l 561 376 m 400 819 l 325 819 l 154 1024 l 233 1024 l 363 872 l 492 1024 l 571 1024 l 400 819 z "},"Ĝ":{"ha":904,"x_min":114,"x_max":793,"o":"m 793 344 q 713 106 793 190 q 453 -8 610 -8 q 206 93 307 -8 q 128 231 143 156 q 114 494 114 307 q 128 758 114 682 q 206 896 143 833 q 453 997 307 997 q 675 918 582 997 q 790 708 768 839 l 715 708 q 623 871 693 811 q 453 931 553 931 q 265 854 342 931 q 202 735 215 804 q 189 494 189 665 q 202 254 189 324 q 265 135 215 185 q 453 58 342 58 q 658 154 579 58 q 718 350 718 229 l 718 439 l 453 439 l 453 506 l 793 506 l 793 344 m 582 1083 l 453 1235 l 324 1083 l 244 1083 l 415 1288 l 490 1288 l 661 1083 l 582 1083 z "},"ĝ":{"ha":750,"x_min":96,"x_max":615,"o":"m 615 -37 q 542 -247 615 -167 q 342 -328 469 -328 q 222 -308 269 -328 q 121 -239 175 -287 l 168 -192 q 247 -249 213 -232 q 342 -265 282 -265 q 494 -202 443 -265 q 544 -33 544 -139 l 544 86 q 456 12 503 32 q 346 -8 408 -8 q 182 50 240 -8 q 96 335 96 136 q 182 619 96 533 q 346 678 240 678 q 456 658 408 678 q 544 583 503 638 l 544 669 l 615 669 l 615 -37 m 538 231 q 541 253 538 231 q 544 335 544 275 q 538 439 544 394 q 512 526 531 483 q 453 592 493 569 q 356 615 414 615 q 258 592 297 615 q 199 526 218 569 q 174 439 181 483 q 167 335 167 394 q 174 231 167 275 q 199 143 181 186 q 258 77 218 100 q 356 54 297 54 q 453 77 414 54 q 512 143 493 100 q 538 231 531 186 m 514 819 l 385 971 l 256 819 l 176 819 l 347 1024 l 422 1024 l 593 819 l 514 819 z "},"Ğ":{"ha":904,"x_min":114,"x_max":793,"o":"m 793 344 q 713 106 793 190 q 453 -8 610 -8 q 206 93 307 -8 q 128 231 143 156 q 114 494 114 307 q 128 758 114 682 q 206 896 143 833 q 453 997 307 997 q 675 918 582 997 q 790 708 768 839 l 715 708 q 623 871 693 811 q 453 931 553 931 q 265 854 342 931 q 202 735 215 804 q 189 494 189 665 q 202 254 189 324 q 265 135 215 185 q 453 58 342 58 q 658 154 579 58 q 718 350 718 229 l 718 439 l 453 439 l 453 506 l 793 506 l 793 344 m 678 1288 q 449 1100 658 1100 q 219 1288 239 1100 l 282 1288 q 334 1196 290 1229 q 449 1163 378 1163 q 563 1196 519 1163 q 615 1288 607 1229 l 678 1288 z "},"ğ":{"ha":750,"x_min":96,"x_max":615,"o":"m 615 -37 q 542 -247 615 -167 q 342 -328 469 -328 q 222 -308 269 -328 q 121 -239 175 -287 l 168 -192 q 247 -249 213 -232 q 342 -265 282 -265 q 494 -202 443 -265 q 544 -33 544 -139 l 544 86 q 456 12 503 32 q 346 -8 408 -8 q 182 50 240 -8 q 96 335 96 136 q 182 619 96 533 q 346 678 240 678 q 456 658 408 678 q 544 583 503 638 l 544 669 l 615 669 l 615 -37 m 538 231 q 541 253 538 231 q 544 335 544 275 q 538 439 544 394 q 512 526 531 483 q 453 592 493 569 q 356 615 414 615 q 258 592 297 615 q 199 526 218 569 q 174 439 181 483 q 167 335 167 394 q 174 231 167 275 q 199 143 181 186 q 258 77 218 100 q 356 54 297 54 q 453 77 414 54 q 512 143 493 100 q 538 231 531 186 m 585 1003 q 356 815 565 815 q 126 1003 146 815 l 189 1003 q 241 911 197 944 q 356 878 285 878 q 470 911 426 878 q 522 1003 514 944 l 585 1003 z "},"Ġ":{"ha":904,"x_min":114,"x_max":793,"o":"m 793 344 q 713 106 793 190 q 453 -8 610 -8 q 206 93 307 -8 q 128 231 143 156 q 114 494 114 307 q 128 758 114 682 q 206 896 143 833 q 453 997 307 997 q 675 918 582 997 q 790 708 768 839 l 715 708 q 623 871 693 811 q 453 931 553 931 q 265 854 342 931 q 202 735 215 804 q 189 494 189 665 q 202 254 189 324 q 265 135 215 185 q 453 58 342 58 q 658 154 579 58 q 718 350 718 229 l 718 439 l 453 439 l 453 506 l 793 506 l 793 344 m 410 1097 l 410 1185 l 496 1185 l 496 1097 l 410 1097 z "},"ġ":{"ha":750,"x_min":96,"x_max":615,"o":"m 615 -37 q 542 -247 615 -167 q 342 -328 469 -328 q 222 -308 269 -328 q 121 -239 175 -287 l 168 -192 q 247 -249 213 -232 q 342 -265 282 -265 q 494 -202 443 -265 q 544 -33 544 -139 l 544 86 q 456 12 503 32 q 346 -8 408 -8 q 182 50 240 -8 q 96 335 96 136 q 182 619 96 533 q 346 678 240 678 q 456 658 408 678 q 544 583 503 638 l 544 669 l 615 669 l 615 -37 m 538 231 q 541 253 538 231 q 544 335 544 275 q 538 439 544 394 q 512 526 531 483 q 453 592 493 569 q 356 615 414 615 q 258 592 297 615 q 199 526 218 569 q 174 439 181 483 q 167 335 167 394 q 174 231 167 275 q 199 143 181 186 q 258 77 218 100 q 356 54 297 54 q 453 77 414 54 q 512 143 493 100 q 538 231 531 186 m 313 901 l 313 989 l 399 989 l 399 901 l 313 901 z "},"Ģ":{"ha":904,"x_min":114,"x_max":793,"o":"m 793 344 q 713 106 793 190 q 453 -8 610 -8 q 206 93 307 -8 q 128 231 143 156 q 114 494 114 307 q 128 758 114 682 q 206 896 143 833 q 453 997 307 997 q 675 918 582 997 q 790 708 768 839 l 715 708 q 623 871 693 811 q 453 931 553 931 q 265 854 342 931 q 202 735 215 804 q 189 494 189 665 q 202 254 189 324 q 265 135 215 185 q 453 58 342 58 q 658 154 579 58 q 718 350 718 229 l 718 439 l 453 439 l 453 506 l 793 506 l 793 344 m 497 -97 l 408 -306 l 321 -306 l 421 -97 l 497 -97 z "},"ģ":{"ha":750,"x_min":96,"x_max":615,"o":"m 615 -37 q 542 -247 615 -167 q 342 -328 469 -328 q 222 -308 269 -328 q 121 -239 175 -287 l 168 -192 q 247 -249 213 -232 q 342 -265 282 -265 q 494 -202 443 -265 q 544 -33 544 -139 l 544 86 q 456 12 503 32 q 346 -8 408 -8 q 182 50 240 -8 q 96 335 96 136 q 182 619 96 533 q 346 678 240 678 q 456 658 408 678 q 544 583 503 638 l 544 669 l 615 669 l 615 -37 m 538 231 q 541 253 538 231 q 544 335 544 275 q 538 439 544 394 q 512 526 531 483 q 453 592 493 569 q 356 615 414 615 q 258 592 297 615 q 199 526 218 569 q 174 439 181 483 q 167 335 167 394 q 174 231 167 275 q 199 143 181 186 q 258 77 218 100 q 356 54 297 54 q 453 77 414 54 q 512 143 493 100 q 538 231 531 186 m 538 1024 l 390 819 l 310 819 l 444 1024 l 538 1024 z "},"Ĥ":{"ha":971,"x_min":153,"x_max":818,"o":"m 743 0 l 743 465 l 228 465 l 228 0 l 153 0 l 153 989 l 228 989 l 228 532 l 743 532 l 743 989 l 818 989 l 818 0 l 743 0 m 615 1083 l 486 1235 l 357 1083 l 278 1083 l 449 1288 l 524 1288 l 694 1083 l 615 1083 z "},"ĥ":{"ha":776,"x_min":-37,"x_max":650,"o":"m 579 0 l 579 415 q 532 564 579 513 q 394 615 485 615 q 255 563 304 615 q 206 415 206 511 l 206 0 l 135 0 l 135 989 l 206 989 l 206 590 q 403 678 281 678 q 584 611 518 678 q 650 428 650 544 l 650 0 l 579 0 m 300 1083 l 171 1235 l 42 1083 l -37 1083 l 133 1288 l 208 1288 l 379 1083 l 300 1083 z "},"Ħ":{"ha":988,"x_min":56,"x_max":932,"o":"m 932 718 l 826 718 l 826 0 l 751 0 l 751 465 l 236 465 l 236 0 l 161 0 l 161 718 l 56 718 l 56 776 l 161 776 l 161 989 l 236 989 l 236 776 l 751 776 l 751 989 l 826 989 l 826 776 l 932 776 l 932 718 m 751 532 l 751 718 l 236 718 l 236 532 l 751 532 z "},"ħ":{"ha":776,"x_min":44,"x_max":650,"o":"m 650 0 l 579 0 l 579 415 q 531 564 579 513 q 394 615 483 615 q 256 563 306 615 q 206 415 206 510 l 206 0 l 135 0 l 135 797 l 44 797 l 44 847 l 135 847 l 135 989 l 206 989 l 206 847 l 394 847 l 394 797 l 206 797 l 206 590 q 295 658 250 638 q 404 678 340 678 q 584 610 518 678 q 650 428 650 543 l 650 0 z "},"Ī":{"ha":381,"x_min":-15,"x_max":396,"o":"m 153 0 l 153 989 l 228 989 l 228 0 l 153 0 m -15 1108 l -15 1172 l 396 1172 l 396 1108 l -15 1108 z "},"ī":{"ha":340,"x_min":-35,"x_max":376,"o":"m 135 0 l 135 669 l 206 669 l 206 0 l 135 0 m -35 844 l -35 908 l 376 908 l 376 844 l -35 844 z "},"Į":{"ha":381,"x_min":53,"x_max":229,"o":"m 153 0 l 153 989 l 228 989 l 228 0 l 153 0 m 140 -306 l 53 -306 l 153 -97 l 229 -97 l 140 -306 z "},"į":{"ha":340,"x_min":35,"x_max":214,"o":"m 135 0 l 135 669 l 206 669 l 206 0 l 135 0 m 126 901 l 126 989 l 214 989 l 214 901 l 126 901 m 122 -306 l 35 -306 l 135 -97 l 211 -97 l 122 -306 z "},"İ":{"ha":381,"x_min":147,"x_max":233,"o":"m 153 0 l 153 989 l 228 989 l 228 0 l 153 0 m 147 1097 l 147 1185 l 233 1185 l 233 1097 l 147 1097 z "},"ı":{"ha":340,"x_min":135,"x_max":206,"o":"m 135 0 l 135 669 l 206 669 l 206 0 l 135 0 z "},"Ĵ":{"ha":692,"x_min":42,"x_max":724,"o":"m 553 292 q 472 74 553 156 q 258 -8 392 -8 q 42 76 126 -8 l 93 128 q 163 76 128 93 q 258 58 199 58 q 422 122 365 58 q 478 307 478 186 l 478 989 l 553 989 l 553 292 m 644 1083 l 515 1235 l 386 1083 l 307 1083 l 478 1288 l 553 1288 l 724 1083 l 644 1083 z "},"ĵ":{"ha":340,"x_min":-39,"x_max":378,"o":"m 206 -146 q 165 -274 206 -228 q 44 -319 125 -319 l -17 -319 l -17 -257 l 32 -257 q 112 -231 89 -257 q 135 -144 135 -204 l 135 669 l 206 669 l 206 -146 m 299 819 l 169 971 l 40 819 l -39 819 l 132 1024 l 207 1024 l 378 819 l 299 819 z "},"Ķ":{"ha":896,"x_min":153,"x_max":871,"o":"m 782 0 l 464 554 l 228 268 l 228 0 l 153 0 l 153 989 l 228 989 l 228 371 l 729 989 l 819 989 l 514 611 l 871 0 l 782 0 m 529 -97 l 440 -306 l 353 -306 l 453 -97 l 529 -97 z "},"ķ":{"ha":732,"x_min":135,"x_max":676,"o":"m 589 0 l 358 368 l 206 192 l 206 0 l 135 0 l 135 989 l 206 989 l 206 292 l 538 669 l 628 669 l 407 419 l 676 0 l 589 0 m 446 -97 l 357 -306 l 269 -306 l 369 -97 l 446 -97 z "},"Ĺ":{"ha":794,"x_min":153,"x_max":753,"o":"m 153 0 l 153 989 l 228 989 l 228 67 l 753 67 l 753 0 l 153 0 m 290 1083 l 210 1083 l 344 1288 l 438 1288 l 290 1083 z "},"ĺ":{"ha":399,"x_min":132,"x_max":363,"o":"m 293 0 q 172 46 213 0 q 132 174 132 92 l 132 989 l 203 989 l 203 175 q 226 89 203 115 q 306 63 249 63 l 354 63 l 354 0 l 293 0 m 215 1083 l 135 1083 l 269 1288 l 363 1288 l 215 1083 z "},"Ļ":{"ha":794,"x_min":153,"x_max":753,"o":"m 153 0 l 153 989 l 228 989 l 228 67 l 753 67 l 753 0 l 153 0 m 478 -97 l 389 -306 l 301 -306 l 401 -97 l 478 -97 z "},"ļ":{"ha":399,"x_min":104,"x_max":354,"o":"m 293 0 q 172 46 213 0 q 132 174 132 92 l 132 989 l 203 989 l 203 175 q 226 89 203 115 q 306 63 249 63 l 354 63 l 354 0 l 293 0 m 281 -97 l 192 -306 l 104 -306 l 204 -97 l 281 -97 z "},"Ľ":{"ha":794,"x_min":153,"x_max":753,"o":"m 521 892 l 424 794 l 424 989 l 521 989 l 521 892 m 153 0 l 153 989 l 228 989 l 228 67 l 753 67 l 753 0 l 153 0 z "},"ľ":{"ha":399,"x_min":132,"x_max":439,"o":"m 439 892 l 342 794 l 342 989 l 439 989 l 439 892 m 293 0 q 172 46 213 0 q 132 174 132 92 l 132 989 l 203 989 l 203 175 q 226 89 203 115 q 306 63 249 63 l 354 63 l 354 0 l 293 0 z "},"Ł":{"ha":803,"x_min":56,"x_max":761,"o":"m 161 0 l 161 425 l 56 358 l 56 425 l 161 492 l 161 989 l 236 989 l 236 539 l 464 683 l 464 617 l 236 472 l 236 67 l 761 67 l 761 0 l 161 0 z "},"ł":{"ha":428,"x_min":56,"x_max":369,"o":"m 308 0 q 188 46 228 0 q 147 174 147 92 l 147 494 l 56 438 l 56 500 l 147 557 l 147 989 l 218 989 l 218 601 l 340 678 l 340 615 l 218 539 l 218 175 q 241 89 218 115 q 321 63 264 63 l 369 63 l 369 0 l 308 0 z "},"Ń":{"ha":1026,"x_min":153,"x_max":874,"o":"m 799 0 l 228 860 l 228 0 l 153 0 l 153 989 l 228 989 l 799 132 l 799 989 l 874 989 l 874 0 l 799 0 m 528 1083 l 447 1083 l 582 1288 l 675 1288 l 528 1083 z "},"ń":{"ha":776,"x_min":135,"x_max":650,"o":"m 579 0 l 579 415 q 532 564 579 513 q 394 615 485 615 q 255 563 304 615 q 206 415 206 511 l 206 0 l 135 0 l 135 669 l 206 669 l 206 590 q 403 678 281 678 q 581 614 515 678 q 650 428 650 547 l 650 0 l 579 0 m 403 819 l 322 819 l 457 1024 l 550 1024 l 403 819 z "},"Ņ":{"ha":1026,"x_min":153,"x_max":874,"o":"m 799 0 l 228 860 l 228 0 l 153 0 l 153 989 l 228 989 l 799 132 l 799 989 l 874 989 l 874 0 l 799 0 m 579 -97 l 490 -306 l 403 -306 l 503 -97 l 579 -97 z "},"ņ":{"ha":776,"x_min":135,"x_max":650,"o":"m 579 0 l 579 415 q 532 564 579 513 q 394 615 485 615 q 255 563 304 615 q 206 415 206 511 l 206 0 l 135 0 l 135 669 l 206 669 l 206 590 q 403 678 281 678 q 581 614 515 678 q 650 428 650 547 l 650 0 l 579 0 m 468 -97 l 379 -306 l 292 -306 l 392 -97 l 468 -97 z "},"Ň":{"ha":1026,"x_min":153,"x_max":874,"o":"m 799 0 l 228 860 l 228 0 l 153 0 l 153 989 l 228 989 l 799 132 l 799 989 l 874 989 l 874 0 l 799 0 m 550 1083 l 475 1083 l 304 1288 l 383 1288 l 513 1136 l 642 1288 l 721 1288 l 550 1083 z "},"ň":{"ha":776,"x_min":135,"x_max":650,"o":"m 579 0 l 579 415 q 532 564 579 513 q 394 615 485 615 q 255 563 304 615 q 206 415 206 511 l 206 0 l 135 0 l 135 669 l 206 669 l 206 590 q 403 678 281 678 q 581 614 515 678 q 650 428 650 547 l 650 0 l 579 0 m 425 819 l 350 819 l 179 1024 l 258 1024 l 388 872 l 517 1024 l 596 1024 l 425 819 z "},"Ō":{"ha":906,"x_min":114,"x_max":792,"o":"m 777 758 q 784 720 777 758 q 792 494 792 682 q 777 231 792 307 q 700 93 763 156 q 453 -8 599 -8 q 206 93 307 -8 q 128 231 143 156 q 114 494 114 307 q 128 758 114 682 q 206 896 143 833 q 453 997 307 997 q 700 896 599 997 q 777 758 763 833 m 703 254 q 710 289 703 254 q 717 494 717 324 q 703 735 717 665 q 640 854 690 804 q 453 931 564 931 q 265 854 342 931 q 202 735 215 804 q 189 494 189 665 q 202 254 189 324 q 265 135 215 185 q 453 58 342 58 q 640 135 564 58 q 703 254 690 185 m 247 1108 l 247 1172 l 658 1172 l 658 1108 l 247 1108 z "},"ō":{"ha":731,"x_min":96,"x_max":635,"o":"m 551 604 q 635 335 635 521 q 551 65 635 149 q 365 -8 478 -8 q 179 65 253 -8 q 96 335 96 149 q 179 604 96 521 q 365 678 253 678 q 551 604 478 678 m 504 111 q 564 335 564 171 q 504 558 564 499 q 365 615 447 615 q 226 558 283 615 q 167 335 167 499 q 226 111 167 171 q 365 54 283 54 q 504 111 447 54 m 160 844 l 160 908 l 571 908 l 571 844 l 160 844 z "},"Ő":{"ha":906,"x_min":114,"x_max":792,"o":"m 777 758 q 784 720 777 758 q 792 494 792 682 q 777 231 792 307 q 700 93 763 156 q 453 -8 599 -8 q 206 93 307 -8 q 128 231 143 156 q 114 494 114 307 q 128 758 114 682 q 206 896 143 833 q 453 997 307 997 q 700 896 599 997 q 777 758 763 833 m 703 254 q 710 289 703 254 q 717 494 717 324 q 703 735 717 665 q 640 854 690 804 q 453 931 564 931 q 265 854 342 931 q 202 735 215 804 q 189 494 189 665 q 202 254 189 324 q 265 135 215 185 q 453 58 342 58 q 640 135 564 58 q 703 254 690 185 m 367 1083 l 286 1083 l 421 1288 l 514 1288 l 367 1083 m 569 1083 l 490 1083 l 625 1288 l 718 1288 l 569 1083 z "},"ő":{"ha":731,"x_min":96,"x_max":635,"o":"m 551 604 q 635 335 635 521 q 551 65 635 149 q 365 -8 478 -8 q 179 65 253 -8 q 96 335 96 149 q 179 604 96 521 q 365 678 253 678 q 551 604 478 678 m 504 111 q 564 335 564 171 q 504 558 564 499 q 365 615 447 615 q 226 558 283 615 q 167 335 167 499 q 226 111 167 171 q 365 54 283 54 q 504 111 447 54 m 279 819 l 199 819 l 333 1024 l 426 1024 l 279 819 m 482 819 l 403 819 l 538 1024 l 631 1024 l 482 819 z "},"Œ":{"ha":1385,"x_min":114,"x_max":1307,"o":"m 717 0 l 717 118 q 453 -8 615 -8 q 206 93 307 -8 q 128 231 143 156 q 114 494 114 307 q 128 758 114 682 q 206 896 143 833 q 453 997 307 997 q 717 871 615 997 l 717 989 l 1303 989 l 1303 924 l 790 924 q 791 726 790 857 q 792 528 792 594 l 1226 528 l 1226 469 l 792 469 q 791 268 792 403 q 790 65 790 133 l 1307 65 l 1307 0 l 717 0 m 703 254 q 710 289 703 254 q 717 494 717 324 q 703 735 717 665 q 640 854 690 804 q 453 931 564 931 q 265 854 342 931 q 202 735 215 804 q 189 494 189 665 q 202 254 189 324 q 265 135 215 185 q 453 58 342 58 q 640 135 564 58 q 703 254 690 185 z "},"œ":{"ha":1194,"x_min":96,"x_max":1100,"o":"m 635 319 q 690 123 635 190 q 853 56 746 56 q 953 74 911 56 q 1038 136 994 93 l 1090 94 q 982 16 1036 40 q 849 -8 928 -8 q 601 138 669 -8 q 507 30 569 68 q 365 -8 444 -8 q 179 65 253 -8 q 96 335 96 149 q 179 604 96 521 q 365 678 253 678 q 508 640 446 678 q 601 532 569 603 q 832 678 668 678 q 1029 592 958 678 q 1100 351 1100 506 l 1100 319 l 635 319 m 504 111 q 564 335 564 171 q 504 558 564 499 q 365 615 447 615 q 226 558 283 615 q 167 335 167 499 q 226 111 167 171 q 365 54 283 54 q 504 111 447 54 m 1029 376 q 1006 503 1024 463 q 937 585 983 556 q 832 615 890 615 q 727 585 774 615 q 658 503 681 556 q 635 376 639 450 l 1029 376 z "},"Ŕ":{"ha":913,"x_min":153,"x_max":824,"o":"m 736 0 l 500 456 l 228 456 l 228 0 l 153 0 l 153 989 l 529 989 q 733 919 654 989 q 813 724 813 849 q 751 544 813 614 q 585 457 690 475 l 824 0 l 736 0 m 678 572 q 708 597 678 572 q 738 722 738 622 q 678 872 738 822 q 519 922 619 922 l 228 922 l 228 522 l 519 522 q 678 572 619 522 m 471 1083 l 390 1083 l 525 1288 l 618 1288 l 471 1083 z "},"ŕ":{"ha":568,"x_min":135,"x_max":563,"o":"m 511 563 q 453 604 481 593 q 385 615 426 615 q 253 556 301 615 q 206 413 206 497 l 206 0 l 135 0 l 135 669 l 206 669 l 206 581 q 288 652 235 626 q 401 678 340 678 q 563 614 499 678 l 511 563 m 300 819 l 219 819 l 354 1024 l 447 1024 l 300 819 z "},"Ŗ":{"ha":913,"x_min":153,"x_max":824,"o":"m 736 0 l 500 456 l 228 456 l 228 0 l 153 0 l 153 989 l 529 989 q 733 919 654 989 q 813 724 813 849 q 751 544 813 614 q 585 457 690 475 l 824 0 l 736 0 m 678 572 q 708 597 678 572 q 738 722 738 622 q 678 872 738 822 q 519 922 619 922 l 228 922 l 228 522 l 519 522 q 678 572 619 522 m 535 -97 l 446 -306 l 358 -306 l 458 -97 l 535 -97 z "},"ŗ":{"ha":568,"x_min":83,"x_max":563,"o":"m 511 563 q 453 604 481 593 q 385 615 426 615 q 253 556 301 615 q 206 413 206 497 l 206 0 l 135 0 l 135 669 l 206 669 l 206 581 q 288 652 235 626 q 401 678 340 678 q 563 614 499 678 l 511 563 m 260 -97 l 171 -306 l 83 -306 l 183 -97 l 260 -97 z "},"Ř":{"ha":913,"x_min":153,"x_max":824,"o":"m 736 0 l 500 456 l 228 456 l 228 0 l 153 0 l 153 989 l 529 989 q 733 919 654 989 q 813 724 813 849 q 751 544 813 614 q 585 457 690 475 l 824 0 l 736 0 m 678 572 q 708 597 678 572 q 738 722 738 622 q 678 872 738 822 q 519 922 619 922 l 228 922 l 228 522 l 519 522 q 678 572 619 522 m 493 1083 l 418 1083 l 247 1288 l 326 1288 l 456 1136 l 585 1288 l 664 1288 l 493 1083 z "},"ř":{"ha":568,"x_min":76,"x_max":563,"o":"m 511 563 q 453 604 481 593 q 385 615 426 615 q 253 556 301 615 q 206 413 206 497 l 206 0 l 135 0 l 135 669 l 206 669 l 206 581 q 288 652 235 626 q 401 678 340 678 q 563 614 499 678 l 511 563 m 322 819 l 247 819 l 76 1024 l 156 1024 l 285 872 l 414 1024 l 493 1024 l 322 819 z "},"Ś":{"ha":815,"x_min":71,"x_max":733,"o":"m 733 265 q 644 65 733 139 q 400 -8 554 -8 q 216 22 292 -8 q 71 122 140 53 l 124 175 q 251 84 189 110 q 404 58 314 58 q 590 113 522 58 q 658 263 658 167 q 604 401 658 356 q 547 435 574 425 q 461 454 519 446 l 346 472 q 169 544 233 489 q 92 726 92 610 q 174 924 92 851 q 399 997 256 997 q 553 972 488 997 q 683 890 618 947 l 635 842 q 394 933 539 933 q 226 879 286 933 q 165 729 165 825 q 217 600 165 643 q 364 539 269 556 l 471 522 q 647 457 590 506 q 733 265 733 386 m 422 1083 l 342 1083 l 476 1288 l 569 1288 l 422 1083 z "},"ś":{"ha":686,"x_min":69,"x_max":608,"o":"m 608 190 q 536 45 608 99 q 340 -8 464 -8 q 69 88 169 -8 l 118 136 q 338 54 196 54 q 539 190 539 54 q 508 269 539 243 q 411 303 478 296 l 300 313 q 99 488 99 329 q 164 626 99 575 q 339 678 229 678 q 574 607 478 678 l 526 560 q 339 617 449 617 q 212 583 256 617 q 168 488 168 550 q 201 408 168 435 q 304 375 233 382 l 413 365 q 558 318 507 356 q 608 190 608 281 m 358 819 l 278 819 l 413 1024 l 506 1024 l 358 819 z "},"Ŝ":{"ha":815,"x_min":71,"x_max":733,"o":"m 733 265 q 644 65 733 139 q 400 -8 554 -8 q 216 22 292 -8 q 71 122 140 53 l 124 175 q 251 84 189 110 q 404 58 314 58 q 590 113 522 58 q 658 263 658 167 q 604 401 658 356 q 547 435 574 425 q 461 454 519 446 l 346 472 q 169 544 233 489 q 92 726 92 610 q 174 924 92 851 q 399 997 256 997 q 553 972 488 997 q 683 890 618 947 l 635 842 q 394 933 539 933 q 226 879 286 933 q 165 729 165 825 q 217 600 165 643 q 364 539 269 556 l 471 522 q 647 457 590 506 q 733 265 733 386 m 533 1083 l 404 1235 l 275 1083 l 196 1083 l 367 1288 l 442 1288 l 613 1083 l 533 1083 z "},"ŝ":{"ha":686,"x_min":69,"x_max":608,"o":"m 608 190 q 536 45 608 99 q 340 -8 464 -8 q 69 88 169 -8 l 118 136 q 338 54 196 54 q 539 190 539 54 q 508 269 539 243 q 411 303 478 296 l 300 313 q 99 488 99 329 q 164 626 99 575 q 339 678 229 678 q 574 607 478 678 l 526 560 q 339 617 449 617 q 212 583 256 617 q 168 488 168 550 q 201 408 168 435 q 304 375 233 382 l 413 365 q 558 318 507 356 q 608 190 608 281 m 476 819 l 347 971 l 218 819 l 139 819 l 310 1024 l 385 1024 l 556 819 l 476 819 z "},"Ş":{"ha":815,"x_min":71,"x_max":733,"o":"m 733 265 q 644 65 733 139 q 400 -8 554 -8 q 216 22 292 -8 q 71 122 140 53 l 124 175 q 251 84 189 110 q 404 58 314 58 q 590 113 522 58 q 658 263 658 167 q 604 401 658 356 q 547 435 574 425 q 461 454 519 446 l 346 472 q 169 544 233 489 q 92 726 92 610 q 174 924 92 851 q 399 997 256 997 q 553 972 488 997 q 683 890 618 947 l 635 842 q 394 933 539 933 q 226 879 286 933 q 165 729 165 825 q 217 600 165 643 q 364 539 269 556 l 471 522 q 647 457 590 506 q 733 265 733 386 m 399 -306 l 311 -306 l 411 -97 l 488 -97 l 399 -306 z "},"ş":{"ha":686,"x_min":69,"x_max":608,"o":"m 608 190 q 536 45 608 99 q 340 -8 464 -8 q 69 88 169 -8 l 118 136 q 338 54 196 54 q 539 190 539 54 q 508 269 539 243 q 411 303 478 296 l 300 313 q 99 488 99 329 q 164 626 99 575 q 339 678 229 678 q 574 607 478 678 l 526 560 q 339 617 449 617 q 212 583 256 617 q 168 488 168 550 q 201 408 168 435 q 304 375 233 382 l 413 365 q 558 318 507 356 q 608 190 608 281 m 335 -306 l 247 -306 l 347 -97 l 424 -97 l 335 -306 z "},"Š":{"ha":815,"x_min":71,"x_max":733,"o":"m 733 265 q 644 65 733 139 q 400 -8 554 -8 q 216 22 292 -8 q 71 122 140 53 l 124 175 q 251 84 189 110 q 404 58 314 58 q 590 113 522 58 q 658 263 658 167 q 604 401 658 356 q 547 435 574 425 q 461 454 519 446 l 346 472 q 169 544 233 489 q 92 726 92 610 q 174 924 92 851 q 399 997 256 997 q 553 972 488 997 q 683 890 618 947 l 635 842 q 394 933 539 933 q 226 879 286 933 q 165 729 165 825 q 217 600 165 643 q 364 539 269 556 l 471 522 q 647 457 590 506 q 733 265 733 386 m 436 1083 l 361 1083 l 190 1288 l 269 1288 l 399 1136 l 528 1288 l 607 1288 l 436 1083 z "},"š":{"ha":686,"x_min":69,"x_max":608,"o":"m 608 190 q 536 45 608 99 q 340 -8 464 -8 q 69 88 169 -8 l 118 136 q 338 54 196 54 q 539 190 539 54 q 508 269 539 243 q 411 303 478 296 l 300 313 q 99 488 99 329 q 164 626 99 575 q 339 678 229 678 q 574 607 478 678 l 526 560 q 339 617 449 617 q 212 583 256 617 q 168 488 168 550 q 201 408 168 435 q 304 375 233 382 l 413 365 q 558 318 507 356 q 608 190 608 281 m 376 819 l 301 819 l 131 1024 l 210 1024 l 339 872 l 468 1024 l 547 1024 l 376 819 z "},"Ţ":{"ha":749,"x_min":42,"x_max":707,"o":"m 411 922 l 411 0 l 336 0 l 336 922 l 42 922 l 42 989 l 707 989 l 707 922 l 411 922 m 454 -97 l 365 -306 l 278 -306 l 378 -97 l 454 -97 z "},"ţ":{"ha":451,"x_min":60,"x_max":374,"o":"m 313 0 q 194 48 236 0 q 151 175 151 96 l 151 617 l 60 617 l 60 669 l 151 669 l 151 883 l 222 883 l 222 669 l 374 669 l 374 617 l 222 617 l 222 174 q 325 63 222 63 l 374 63 l 374 0 l 313 0 m 307 -97 l 218 -306 l 131 -306 l 231 -97 l 307 -97 z "},"Ť":{"ha":749,"x_min":42,"x_max":707,"o":"m 411 922 l 411 0 l 336 0 l 336 922 l 42 922 l 42 989 l 707 989 l 707 922 l 411 922 m 411 1083 l 336 1083 l 165 1288 l 244 1288 l 374 1136 l 503 1288 l 582 1288 l 411 1083 z "},"ť":{"ha":451,"x_min":60,"x_max":451,"o":"m 451 892 l 354 794 l 354 989 l 451 989 l 451 892 m 313 0 q 194 48 236 0 q 151 175 151 96 l 151 617 l 60 617 l 60 669 l 151 669 l 151 883 l 222 883 l 222 669 l 374 669 l 374 617 l 222 617 l 222 174 q 325 63 222 63 l 374 63 l 374 0 l 313 0 z "},"Ū":{"ha":956,"x_min":139,"x_max":817,"o":"m 817 321 q 722 84 817 176 q 478 -8 626 -8 q 234 84 329 -8 q 139 321 139 176 l 139 989 l 214 989 l 214 331 q 286 133 214 207 q 478 58 358 58 q 669 133 597 58 q 742 331 742 207 l 742 989 l 817 989 l 817 321 m 272 1108 l 272 1172 l 683 1172 l 683 1108 l 272 1108 z "},"ū":{"ha":776,"x_min":126,"x_max":642,"o":"m 571 0 l 571 79 q 374 -8 496 -8 q 196 56 261 -8 q 126 242 126 122 l 126 669 l 197 669 l 197 254 q 244 106 197 157 q 382 54 292 54 q 522 106 472 54 q 571 254 571 158 l 571 669 l 642 669 l 642 0 l 571 0 m 182 844 l 182 908 l 593 908 l 593 844 l 182 844 z "},"Ŭ":{"ha":956,"x_min":139,"x_max":817,"o":"m 817 321 q 722 84 817 176 q 478 -8 626 -8 q 234 84 329 -8 q 139 321 139 176 l 139 989 l 214 989 l 214 331 q 286 133 214 207 q 478 58 358 58 q 669 133 597 58 q 742 331 742 207 l 742 989 l 817 989 l 817 321 m 707 1288 q 478 1100 688 1100 q 249 1288 268 1100 l 311 1288 q 363 1196 319 1229 q 478 1163 407 1163 q 592 1196 549 1163 q 644 1288 636 1229 l 707 1288 z "},"ŭ":{"ha":776,"x_min":126,"x_max":642,"o":"m 571 0 l 571 79 q 374 -8 496 -8 q 196 56 261 -8 q 126 242 126 122 l 126 669 l 197 669 l 197 254 q 244 106 197 157 q 382 54 292 54 q 522 106 472 54 q 571 254 571 158 l 571 669 l 642 669 l 642 0 l 571 0 m 611 1003 q 382 815 592 815 q 153 1003 172 815 l 215 1003 q 267 911 224 944 q 382 878 311 878 q 497 911 453 878 q 549 1003 540 944 l 611 1003 z "},"Ů":{"ha":956,"x_min":139,"x_max":817,"o":"m 817 321 q 722 84 817 176 q 478 -8 626 -8 q 234 84 329 -8 q 139 321 139 176 l 139 989 l 214 989 l 214 331 q 286 133 214 207 q 478 58 358 58 q 669 133 597 58 q 742 331 742 207 l 742 989 l 817 989 l 817 321 m 590 1316 q 613 1293 590 1316 q 636 1204 636 1269 q 590 1092 636 1139 q 478 1044 543 1044 q 366 1092 413 1044 q 319 1204 319 1139 q 366 1316 319 1269 q 478 1363 413 1363 q 590 1316 543 1363 m 549 1133 q 564 1148 549 1133 q 579 1204 579 1163 q 549 1275 579 1246 q 478 1304 519 1304 q 406 1275 436 1304 q 376 1204 376 1246 q 406 1133 376 1163 q 478 1103 436 1103 q 549 1133 519 1103 z "},"ů":{"ha":776,"x_min":126,"x_max":642,"o":"m 571 0 l 571 79 q 374 -8 496 -8 q 196 56 261 -8 q 126 242 126 122 l 126 669 l 197 669 l 197 254 q 244 106 197 157 q 382 54 292 54 q 522 106 472 54 q 571 254 571 158 l 571 669 l 642 669 l 642 0 l 571 0 m 499 1052 q 523 1029 499 1052 q 546 940 546 1006 q 499 828 546 875 q 388 781 453 781 q 276 828 322 781 q 229 940 229 875 q 276 1052 229 1006 q 388 1099 322 1099 q 499 1052 453 1099 m 459 869 q 474 884 459 869 q 489 940 489 899 q 459 1011 489 982 q 388 1040 429 1040 q 316 1011 346 1040 q 286 940 286 982 q 316 869 286 899 q 388 839 346 839 q 459 869 429 839 z "},"Ű":{"ha":956,"x_min":139,"x_max":817,"o":"m 817 321 q 722 84 817 176 q 478 -8 626 -8 q 234 84 329 -8 q 139 321 139 176 l 139 989 l 214 989 l 214 331 q 286 133 214 207 q 478 58 358 58 q 669 133 597 58 q 742 331 742 207 l 742 989 l 817 989 l 817 321 m 392 1083 l 311 1083 l 446 1288 l 539 1288 l 392 1083 m 594 1083 l 515 1083 l 650 1288 l 743 1288 l 594 1083 z "},"ű":{"ha":776,"x_min":126,"x_max":653,"o":"m 571 0 l 571 79 q 374 -8 496 -8 q 196 56 261 -8 q 126 242 126 122 l 126 669 l 197 669 l 197 254 q 244 106 197 157 q 382 54 292 54 q 522 106 472 54 q 571 254 571 158 l 571 669 l 642 669 l 642 0 l 571 0 m 301 819 l 221 819 l 356 1024 l 449 1024 l 301 819 m 504 819 l 425 819 l 560 1024 l 653 1024 l 504 819 z "},"Ų":{"ha":956,"x_min":139,"x_max":817,"o":"m 817 321 q 722 84 817 176 q 478 -8 626 -8 q 234 84 329 -8 q 139 321 139 176 l 139 989 l 214 989 l 214 331 q 286 133 214 207 q 478 58 358 58 q 669 133 597 58 q 742 331 742 207 l 742 989 l 817 989 l 817 321 m 583 -306 l 496 -306 l 596 -97 l 672 -97 l 583 -306 z "},"ų":{"ha":776,"x_min":126,"x_max":647,"o":"m 571 0 l 571 79 q 374 -8 496 -8 q 196 56 261 -8 q 126 242 126 122 l 126 669 l 197 669 l 197 254 q 244 106 197 157 q 382 54 292 54 q 522 106 472 54 q 571 254 571 158 l 571 669 l 642 669 l 642 0 l 571 0 m 558 -306 l 471 -306 l 571 -97 l 647 -97 l 558 -306 z "},"Ÿ":{"ha":686,"x_min":14,"x_max":672,"o":"m 381 410 l 381 0 l 306 0 l 306 410 l 14 989 l 94 989 l 346 489 l 592 989 l 672 989 l 381 410 m 158 1097 l 158 1204 l 239 1204 l 239 1097 l 158 1097 m 447 1097 l 447 1204 l 528 1204 l 528 1097 l 447 1097 z "},"Ź":{"ha":776,"x_min":88,"x_max":689,"o":"m 88 0 l 88 79 l 608 922 l 108 922 l 108 989 l 689 989 l 689 922 l 164 67 l 689 67 l 689 0 l 88 0 m 403 1083 l 322 1083 l 457 1288 l 550 1288 l 403 1083 z "},"ź":{"ha":628,"x_min":75,"x_max":553,"o":"m 75 0 l 75 67 l 478 607 l 97 607 l 97 669 l 553 669 l 553 603 l 149 63 l 553 63 l 553 0 l 75 0 m 329 819 l 249 819 l 383 1024 l 476 1024 l 329 819 z "},"Ż":{"ha":776,"x_min":88,"x_max":689,"o":"m 88 0 l 88 79 l 608 922 l 108 922 l 108 989 l 689 989 l 689 922 l 164 67 l 689 67 l 689 0 l 88 0 m 344 1101 l 344 1189 l 431 1189 l 431 1101 l 344 1101 z "},"ż":{"ha":628,"x_min":75,"x_max":553,"o":"m 75 0 l 75 67 l 478 607 l 97 607 l 97 669 l 553 669 l 553 603 l 149 63 l 553 63 l 553 0 l 75 0 m 271 893 l 271 981 l 357 981 l 357 893 l 271 893 z "},"Ž":{"ha":776,"x_min":88,"x_max":689,"o":"m 88 0 l 88 79 l 608 922 l 108 922 l 108 989 l 689 989 l 689 922 l 164 67 l 689 67 l 689 0 l 88 0 m 436 1083 l 361 1083 l 190 1288 l 269 1288 l 399 1136 l 528 1288 l 607 1288 l 436 1083 z "},"ž":{"ha":628,"x_min":75,"x_max":553,"o":"m 75 0 l 75 67 l 478 607 l 97 607 l 97 669 l 553 669 l 553 603 l 149 63 l 553 63 l 553 0 l 75 0 m 363 819 l 288 819 l 117 1024 l 196 1024 l 325 872 l 454 1024 l 533 1024 l 363 819 z "},"ƒ":{"ha":547,"x_min":42,"x_max":506,"o":"m 446 926 q 324 815 343 926 l 274 528 l 425 528 l 425 475 l 264 475 l 124 -319 l 53 -319 l 193 475 l 42 475 l 42 528 l 203 528 l 253 814 q 317 941 267 893 q 444 989 368 989 l 506 989 l 506 926 l 446 926 z "},"Ș":{"ha":815,"x_min":71,"x_max":733,"o":"m 733 265 q 644 65 733 139 q 400 -8 554 -8 q 216 22 292 -8 q 71 122 140 53 l 124 175 q 251 84 189 110 q 404 58 314 58 q 590 113 522 58 q 658 263 658 167 q 604 401 658 356 q 547 435 574 425 q 461 454 519 446 l 346 472 q 169 544 233 489 q 92 726 92 610 q 174 924 92 851 q 399 997 256 997 q 553 972 488 997 q 683 890 618 947 l 635 842 q 394 933 539 933 q 226 879 286 933 q 165 729 165 825 q 217 600 165 643 q 364 539 269 556 l 471 522 q 647 457 590 506 q 733 265 733 386 m 444 -97 l 356 -306 l 268 -306 l 368 -97 l 444 -97 z "},"ș":{"ha":686,"x_min":69,"x_max":608,"o":"m 608 190 q 536 45 608 99 q 340 -8 464 -8 q 69 88 169 -8 l 118 136 q 338 54 196 54 q 539 190 539 54 q 508 269 539 243 q 411 303 478 296 l 300 313 q 99 488 99 329 q 164 626 99 575 q 339 678 229 678 q 574 607 478 678 l 526 560 q 339 617 449 617 q 212 583 256 617 q 168 488 168 550 q 201 408 168 435 q 304 375 233 382 l 413 365 q 558 318 507 356 q 608 190 608 281 m 385 -97 l 296 -306 l 208 -306 l 308 -97 l 385 -97 z "},"ȷ":{"ha":340,"x_min":-17,"x_max":206,"o":"m 206 -146 q 165 -274 206 -228 q 44 -319 125 -319 l -17 -319 l -17 -257 l 32 -257 q 112 -231 89 -257 q 135 -144 135 -204 l 135 669 l 206 669 l 206 -146 z "},"ˆ":{"ha":694,"x_min":139,"x_max":556,"o":"m 476 819 l 347 971 l 218 819 l 139 819 l 310 1024 l 385 1024 l 556 819 l 476 819 z "},"ˇ":{"ha":694,"x_min":139,"x_max":556,"o":"m 385 819 l 310 819 l 139 1024 l 218 1024 l 347 872 l 476 1024 l 556 1024 l 385 819 z "},"˘":{"ha":694,"x_min":118,"x_max":576,"o":"m 576 1003 q 347 815 557 815 q 118 1003 138 815 l 181 1003 q 233 911 189 944 q 347 878 276 878 q 462 911 418 878 q 514 1003 506 944 l 576 1003 z "},"˙":{"ha":694,"x_min":304,"x_max":390,"o":"m 304 893 l 304 981 l 390 981 l 390 893 l 304 893 z "},"˚":{"ha":694,"x_min":189,"x_max":506,"o":"m 459 1052 q 482 1029 459 1052 q 506 940 506 1006 q 459 828 506 875 q 347 781 413 781 q 235 828 282 781 q 189 940 189 875 q 235 1052 189 1006 q 347 1099 282 1099 q 459 1052 413 1099 m 419 869 q 434 884 419 869 q 449 940 449 899 q 419 1011 449 982 q 347 1040 389 1040 q 276 1011 306 1040 q 246 940 246 982 q 276 869 246 899 q 347 839 306 839 q 419 869 389 839 z "},"˛":{"ha":694,"x_min":317,"x_max":493,"o":"m 404 -306 l 317 -306 l 417 -97 l 493 -97 l 404 -306 z "},"˜":{"ha":694,"x_min":133,"x_max":554,"o":"m 554 907 q 431 840 488 840 q 335 874 393 840 q 257 903 285 903 q 175 857 221 903 l 133 897 q 257 964 200 964 q 353 931 300 964 q 431 901 400 901 q 513 947 467 901 l 554 907 z "},"˝":{"ha":694,"x_min":181,"x_max":613,"o":"m 261 819 l 181 819 l 315 1024 l 408 1024 l 261 819 m 464 819 l 385 819 l 519 1024 l 613 1024 l 464 819 z "},"΄":{"ha":351,"x_min":140,"x_max":221,"o":"m 221 854 l 140 808 l 140 989 l 221 989 l 221 854 z "},"΅":{"ha":694,"x_min":163,"x_max":532,"o":"m 532 833 l 451 833 l 451 940 l 532 940 l 532 833 m 388 854 l 307 808 l 307 989 l 388 989 l 388 854 m 243 833 l 163 833 l 163 940 l 243 940 l 243 833 z "},"Ά":{"ha":836,"x_min":14,"x_max":815,"o":"m 815 0 l 735 0 l 649 240 l 188 240 l 101 0 l 21 0 l 385 989 l 451 989 l 815 0 m 625 307 l 418 889 l 211 307 l 625 307 m 94 854 l 14 808 l 14 989 l 94 989 l 94 854 z "},"·":{"ha":367,"x_min":132,"x_max":235,"o":"m 235 315 l 132 315 l 132 418 l 235 418 l 235 315 z "},"Έ":{"ha":831,"x_min":-69,"x_max":753,"o":"m 753 0 l 153 0 l 153 989 l 753 989 l 753 922 l 228 922 l 228 532 l 675 532 l 675 465 l 228 465 l 228 67 l 753 67 l 753 0 m 11 854 l -69 808 l -69 989 l 11 989 l 11 854 z "},"Ή":{"ha":971,"x_min":-69,"x_max":818,"o":"m 818 0 l 743 0 l 743 465 l 228 465 l 228 0 l 153 0 l 153 989 l 228 989 l 228 532 l 743 532 l 743 989 l 818 989 l 818 0 m 11 854 l -69 808 l -69 989 l 11 989 l 11 854 z "},"Ί":{"ha":381,"x_min":-69,"x_max":228,"o":"m 228 0 l 153 0 l 153 989 l 228 989 l 228 0 m 11 854 l -69 808 l -69 989 l 11 989 l 11 854 z "},"Ό":{"ha":906,"x_min":-42,"x_max":792,"o":"m 777 758 q 784 720 777 758 q 792 494 792 682 q 777 231 792 307 q 700 93 763 156 q 453 -8 599 -8 q 206 93 307 -8 q 128 231 143 156 q 114 494 114 307 q 128 758 114 682 q 206 896 143 833 q 453 997 307 997 q 700 896 599 997 q 777 758 763 833 m 703 254 q 710 289 703 254 q 717 494 717 324 q 703 735 717 665 q 640 854 690 804 q 453 931 564 931 q 265 854 342 931 q 202 735 215 804 q 189 494 189 665 q 202 254 189 324 q 265 135 215 185 q 453 58 342 58 q 640 135 564 58 q 703 254 690 185 m 39 854 l -42 808 l -42 989 l 39 989 l 39 854 z "},"Ύ":{"ha":686,"x_min":-97,"x_max":672,"o":"m 672 989 l 381 410 l 381 0 l 306 0 l 306 410 l 14 989 l 94 989 l 346 489 l 592 989 l 672 989 m -17 854 l -97 808 l -97 989 l -17 989 l -17 854 z "},"Ώ":{"ha":906,"x_min":-42,"x_max":792,"o":"m 792 0 l 533 0 l 533 65 q 679 188 635 114 q 710 296 703 226 q 717 494 717 365 q 703 735 717 665 q 640 854 690 804 q 453 931 564 931 q 265 854 342 931 q 202 735 215 804 q 189 494 189 665 q 196 296 189 365 q 226 188 203 226 q 372 65 271 114 l 372 0 l 114 0 l 114 65 l 240 65 q 154 164 182 111 q 142 190 147 176 q 133 217 138 204 q 126 249 129 231 q 121 280 122 268 q 118 315 119 292 q 115 349 117 338 q 114 385 114 360 q 114 421 114 411 q 114 458 114 431 q 114 494 114 486 q 128 758 114 682 q 206 896 143 833 q 453 997 307 997 q 700 896 599 997 q 777 758 763 833 q 792 494 792 682 q 792 458 792 486 q 792 421 792 431 q 792 385 792 411 q 790 349 792 360 q 788 315 789 338 q 785 280 786 292 q 780 249 783 268 q 772 217 776 231 q 763 190 768 204 q 751 164 758 176 q 665 65 724 111 l 792 65 l 792 0 m 39 854 l -42 808 l -42 989 l 39 989 l 39 854 z "},"ΐ":{"ha":399,"x_min":-18,"x_max":354,"o":"m 354 0 l 293 0 q 172 46 213 0 q 132 174 132 92 l 132 669 l 203 669 l 203 175 q 226 89 203 115 q 306 63 249 63 l 354 63 l 354 0 m 351 833 l 271 833 l 271 940 l 351 940 l 351 833 m 207 854 l 126 808 l 126 989 l 207 989 l 207 854 m 63 833 l -18 833 l -18 940 l 63 940 l 63 833 z "},"Α":{"ha":836,"x_min":21,"x_max":815,"o":"m 815 0 l 735 0 l 649 240 l 188 240 l 101 0 l 21 0 l 385 989 l 451 989 l 815 0 m 625 307 l 418 889 l 211 307 l 625 307 z "},"Β":{"ha":932,"x_min":153,"x_max":818,"o":"m 818 269 q 740 70 818 140 q 528 0 661 0 l 153 0 l 153 989 l 517 989 q 723 919 643 989 q 803 731 803 850 q 762 592 803 651 q 649 508 721 532 q 774 418 729 481 q 818 269 818 356 m 667 586 q 697 610 667 586 q 728 731 728 633 q 667 875 728 828 q 508 922 606 922 l 228 922 l 228 539 l 508 539 q 667 586 606 539 m 683 121 q 713 148 683 121 q 743 269 743 175 q 683 418 743 364 q 519 472 622 472 l 228 472 l 228 67 l 519 67 q 683 121 622 67 z "},"Γ":{"ha":747,"x_min":153,"x_max":725,"o":"m 725 922 l 228 922 l 228 0 l 153 0 l 153 989 l 725 989 l 725 922 z "},"Δ":{"ha":821,"x_min":14,"x_max":807,"o":"m 807 0 l 14 0 l 378 989 l 443 989 l 807 0 m 710 67 l 410 889 l 111 67 l 710 67 z "},"Ε":{"ha":831,"x_min":153,"x_max":753,"o":"m 753 0 l 153 0 l 153 989 l 753 989 l 753 922 l 228 922 l 228 532 l 675 532 l 675 465 l 228 465 l 228 67 l 753 67 l 753 0 z "},"Ζ":{"ha":776,"x_min":88,"x_max":689,"o":"m 689 0 l 88 0 l 88 79 l 608 922 l 108 922 l 108 989 l 689 989 l 689 922 l 164 67 l 689 67 l 689 0 z "},"Η":{"ha":971,"x_min":153,"x_max":818,"o":"m 818 0 l 743 0 l 743 465 l 228 465 l 228 0 l 153 0 l 153 989 l 228 989 l 228 532 l 743 532 l 743 989 l 818 989 l 818 0 z "},"Θ":{"ha":906,"x_min":114,"x_max":792,"o":"m 777 758 q 784 720 777 758 q 792 494 792 682 q 777 231 792 307 q 700 93 763 156 q 453 -8 599 -8 q 206 93 307 -8 q 128 231 143 156 q 114 494 114 307 q 128 758 114 682 q 206 896 143 833 q 453 997 307 997 q 700 896 599 997 q 777 758 763 833 m 717 532 q 701 742 715 678 q 640 854 688 807 q 453 931 564 931 q 265 854 342 931 q 204 742 218 807 q 189 532 190 678 l 717 532 m 717 465 l 189 465 q 203 249 189 315 q 265 135 217 183 q 453 58 342 58 q 640 135 564 58 q 703 249 689 183 q 717 465 717 315 z "},"Ι":{"ha":381,"x_min":153,"x_max":228,"o":"m 228 0 l 153 0 l 153 989 l 228 989 l 228 0 z "},"Κ":{"ha":896,"x_min":153,"x_max":871,"o":"m 871 0 l 782 0 l 464 554 l 228 268 l 228 0 l 153 0 l 153 989 l 228 989 l 228 371 l 729 989 l 819 989 l 514 611 l 871 0 z "},"Λ":{"ha":792,"x_min":35,"x_max":757,"o":"m 757 0 l 678 0 l 396 889 l 114 0 l 35 0 l 360 989 l 432 989 l 757 0 z "},"Μ":{"ha":1136,"x_min":153,"x_max":983,"o":"m 983 0 l 908 0 l 908 815 l 608 139 l 533 139 l 228 815 l 228 0 l 153 0 l 153 989 l 228 989 l 572 226 l 908 989 l 983 989 l 983 0 z "},"Ν":{"ha":1026,"x_min":153,"x_max":874,"o":"m 874 0 l 799 0 l 228 860 l 228 0 l 153 0 l 153 989 l 228 989 l 799 132 l 799 989 l 874 989 l 874 0 z "},"Ξ":{"ha":783,"x_min":78,"x_max":706,"o":"m 706 0 l 78 0 l 78 67 l 354 67 l 354 465 l 156 465 l 156 532 l 354 532 l 354 922 l 78 922 l 78 989 l 706 989 l 706 922 l 429 922 l 429 532 l 628 532 l 628 465 l 429 465 l 429 67 l 706 67 l 706 0 z "},"Ο":{"ha":906,"x_min":114,"x_max":792,"o":"m 777 758 q 784 720 777 758 q 792 494 792 682 q 777 231 792 307 q 700 93 763 156 q 453 -8 599 -8 q 206 93 307 -8 q 128 231 143 156 q 114 494 114 307 q 128 758 114 682 q 206 896 143 833 q 453 997 307 997 q 700 896 599 997 q 777 758 763 833 m 703 254 q 710 289 703 254 q 717 494 717 324 q 703 735 717 665 q 640 854 690 804 q 453 931 564 931 q 265 854 342 931 q 202 735 215 804 q 189 494 189 665 q 202 254 189 324 q 265 135 215 185 q 453 58 342 58 q 640 135 564 58 q 703 254 690 185 z "},"Π":{"ha":944,"x_min":153,"x_max":790,"o":"m 790 0 l 715 0 l 715 922 l 228 922 l 228 0 l 153 0 l 153 989 l 790 989 l 790 0 z "},"Ρ":{"ha":876,"x_min":153,"x_max":814,"o":"m 814 704 q 731 496 814 572 q 515 419 647 419 l 228 419 l 228 0 l 153 0 l 153 989 l 515 989 q 731 913 647 989 q 814 704 814 838 m 676 541 q 708 568 676 541 q 739 704 739 596 q 676 867 739 813 q 507 922 614 922 l 228 922 l 228 486 l 507 486 q 676 541 614 486 z "},"Σ":{"ha":767,"x_min":88,"x_max":689,"o":"m 689 0 l 88 0 l 88 79 l 364 529 l 108 922 l 108 989 l 689 989 l 689 922 l 190 922 l 447 531 l 164 67 l 689 67 l 689 0 z "},"Τ":{"ha":749,"x_min":42,"x_max":707,"o":"m 707 922 l 411 922 l 411 0 l 336 0 l 336 922 l 42 922 l 42 989 l 707 989 l 707 922 z "},"Υ":{"ha":686,"x_min":14,"x_max":672,"o":"m 672 989 l 381 410 l 381 0 l 306 0 l 306 410 l 14 989 l 94 989 l 346 489 l 592 989 l 672 989 z "},"Φ":{"ha":993,"x_min":93,"x_max":901,"o":"m 901 501 q 898 390 901 433 q 874 290 894 346 q 815 196 854 235 q 535 89 708 89 l 535 0 l 460 0 l 460 89 q 179 196 286 89 q 108 324 124 251 q 93 501 93 396 q 97 613 93 569 q 120 713 100 657 q 179 807 140 768 q 460 914 286 914 l 460 989 l 535 989 l 535 914 q 815 807 708 914 q 886 679 871 751 q 901 501 901 607 m 824 406 q 825 424 824 406 q 826 501 826 443 q 824 597 826 560 q 804 684 821 635 q 756 765 788 733 q 535 847 674 847 l 535 156 q 756 238 674 156 q 804 319 788 269 q 824 406 821 368 m 460 156 l 460 847 q 239 765 321 847 q 190 684 207 733 q 171 597 174 635 q 168 501 168 560 q 171 406 168 443 q 190 319 174 368 q 239 238 207 269 q 460 156 321 156 z "},"Χ":{"ha":739,"x_min":25,"x_max":714,"o":"m 714 0 l 626 0 l 368 440 l 110 0 l 25 0 l 328 507 l 44 989 l 132 989 l 368 574 l 606 989 l 692 989 l 408 507 l 714 0 z "},"Ψ":{"ha":908,"x_min":75,"x_max":833,"o":"m 833 522 q 812 399 833 449 q 742 301 790 350 q 494 200 640 200 l 492 200 l 492 0 l 417 0 l 417 200 l 414 200 q 167 301 268 200 q 97 399 118 350 q 75 522 75 449 l 75 989 l 150 989 l 150 522 q 226 343 150 419 q 414 267 303 267 l 417 267 l 417 989 l 492 989 l 492 267 l 494 267 q 682 343 606 267 q 758 522 758 419 l 758 989 l 833 989 l 833 522 z "},"Ω":{"ha":906,"x_min":114,"x_max":792,"o":"m 792 0 l 533 0 l 533 65 q 679 188 635 114 q 710 296 703 226 q 717 494 717 365 q 703 735 717 665 q 640 854 690 804 q 453 931 564 931 q 265 854 342 931 q 202 735 215 804 q 189 494 189 665 q 196 296 189 365 q 226 188 203 226 q 372 65 271 114 l 372 0 l 114 0 l 114 65 l 240 65 q 154 164 182 111 q 142 190 147 176 q 133 217 138 204 q 126 249 129 231 q 121 280 122 268 q 118 315 119 292 q 115 349 117 338 q 114 385 114 360 q 114 421 114 411 q 114 458 114 431 q 114 494 114 486 q 128 758 114 682 q 206 896 143 833 q 453 997 307 997 q 700 896 599 997 q 777 758 763 833 q 792 494 792 682 q 792 458 792 486 q 792 421 792 431 q 792 385 792 411 q 790 349 792 360 q 788 315 789 338 q 785 280 786 292 q 780 249 783 268 q 772 217 776 231 q 763 190 768 204 q 751 164 758 176 q 665 65 724 111 l 792 65 l 792 0 z "},"Ϊ":{"ha":381,"x_min":6,"x_max":375,"o":"m 228 0 l 153 0 l 153 989 l 228 989 l 228 0 m 6 1097 l 6 1204 l 86 1204 l 86 1097 l 6 1097 m 294 1097 l 294 1204 l 375 1204 l 375 1097 l 294 1097 z "},"Ϋ":{"ha":686,"x_min":14,"x_max":672,"o":"m 672 989 l 381 410 l 381 0 l 306 0 l 306 410 l 14 989 l 94 989 l 346 489 l 592 989 l 672 989 m 158 1097 l 158 1204 l 239 1204 l 239 1097 l 158 1097 m 447 1097 l 447 1204 l 528 1204 l 528 1097 l 447 1097 z "},"ά":{"ha":750,"x_min":96,"x_max":615,"o":"m 615 0 l 544 0 l 544 86 q 456 12 503 32 q 346 -8 408 -8 q 182 50 240 -8 q 96 335 96 136 q 182 619 96 533 q 346 678 240 678 q 456 658 408 678 q 544 583 503 638 l 544 669 l 615 669 l 615 0 m 538 231 q 541 253 538 231 q 544 335 544 275 q 538 439 544 394 q 512 526 531 483 q 453 592 493 569 q 356 615 414 615 q 258 592 297 615 q 199 526 218 569 q 174 439 181 483 q 167 335 167 394 q 174 231 167 275 q 199 143 181 186 q 258 77 218 100 q 356 54 297 54 q 453 77 414 54 q 512 143 493 100 q 538 231 531 186 m 404 854 l 324 808 l 324 989 l 404 989 l 404 854 z "},"έ":{"ha":683,"x_min":94,"x_max":607,"o":"m 607 94 q 483 13 547 35 q 333 -8 418 -8 q 162 42 229 -8 q 94 181 94 92 q 122 278 94 242 q 208 340 149 315 q 108 490 108 381 q 176 626 108 575 q 342 678 244 678 q 606 575 513 678 l 558 529 q 343 617 475 617 q 234 581 283 617 q 185 489 185 546 q 318 372 185 372 l 432 372 l 432 311 l 318 311 q 171 181 171 311 q 218 88 171 122 q 331 53 265 53 q 558 138 475 53 l 607 94 m 404 854 l 324 808 l 324 989 l 404 989 l 404 854 z "},"ή":{"ha":776,"x_min":135,"x_max":650,"o":"m 650 0 l 579 0 l 579 415 q 532 564 579 513 q 394 615 485 615 q 255 563 304 615 q 206 415 206 511 l 206 0 l 135 0 l 135 669 l 206 669 l 206 590 q 403 678 281 678 q 581 614 515 678 q 650 428 650 547 l 650 0 m 432 854 l 351 808 l 351 989 l 432 989 l 432 854 z "},"ί":{"ha":399,"x_min":132,"x_max":354,"o":"m 354 0 l 293 0 q 172 46 213 0 q 132 174 132 92 l 132 669 l 203 669 l 203 175 q 226 89 203 115 q 306 63 249 63 l 354 63 l 354 0 m 213 854 l 132 808 l 132 989 l 213 989 l 213 854 z "},"ΰ":{"ha":704,"x_min":97,"x_max":607,"o":"m 607 328 q 592 175 607 238 q 531 65 578 113 q 351 -8 457 -8 q 172 65 246 -8 q 111 174 125 113 q 97 328 97 236 l 97 669 l 167 669 l 167 328 q 168 246 167 271 q 181 179 169 221 q 219 111 193 138 q 351 54 276 54 q 483 111 426 54 q 522 179 510 138 q 535 246 533 221 q 536 328 536 271 l 536 669 l 607 669 l 607 328 m 535 833 l 454 833 l 454 940 l 535 940 l 535 833 m 390 854 l 310 808 l 310 989 l 390 989 l 390 854 m 246 833 l 165 833 l 165 940 l 246 940 l 246 833 z "},"α":{"ha":750,"x_min":96,"x_max":615,"o":"m 615 0 l 544 0 l 544 86 q 456 12 503 32 q 346 -8 408 -8 q 182 50 240 -8 q 96 335 96 136 q 182 619 96 533 q 346 678 240 678 q 456 658 408 678 q 544 583 503 638 l 544 669 l 615 669 l 615 0 m 538 231 q 541 253 538 231 q 544 335 544 275 q 538 439 544 394 q 512 526 531 483 q 453 592 493 569 q 356 615 414 615 q 258 592 297 615 q 199 526 218 569 q 174 439 181 483 q 167 335 167 394 q 174 231 167 275 q 199 143 181 186 q 258 77 218 100 q 356 54 297 54 q 453 77 414 54 q 512 143 493 100 q 538 231 531 186 z "},"β":{"ha":750,"x_min":135,"x_max":682,"o":"m 682 274 q 610 75 682 158 q 436 -8 539 -8 q 353 -4 383 -8 q 281 22 322 0 q 204 88 239 43 l 204 0 l 135 0 l 135 747 q 204 920 135 851 q 385 989 274 989 q 563 930 496 989 q 631 761 631 871 q 620 667 631 711 q 576 582 610 624 q 486 529 542 540 q 682 274 682 506 m 614 278 q 594 394 614 347 q 538 462 575 440 q 463 491 500 483 q 374 499 425 499 l 289 499 l 289 551 l 376 551 q 564 746 564 551 q 515 886 564 840 q 388 932 465 932 q 251 874 297 932 q 206 721 206 815 l 206 278 q 256 118 206 185 q 406 51 306 51 q 561 119 508 51 q 614 278 614 188 z "},"γ":{"ha":597,"x_min":19,"x_max":578,"o":"m 578 669 l 335 0 l 335 -319 l 264 -319 l 264 0 l 19 669 l 97 669 l 299 83 l 500 669 l 578 669 z "},"δ":{"ha":731,"x_min":96,"x_max":635,"o":"m 635 335 q 551 65 635 149 q 365 -8 478 -8 q 179 65 253 -8 q 96 335 96 149 q 179 604 96 521 q 365 678 253 678 q 467 654 428 678 l 171 935 l 171 989 l 567 989 l 567 935 l 249 935 l 497 696 q 609 530 583 614 q 635 335 635 446 m 504 111 q 564 335 564 171 q 504 558 564 499 q 365 615 447 615 q 226 558 283 615 q 167 335 167 499 q 226 111 167 171 q 365 54 283 54 q 504 111 447 54 z "},"ε":{"ha":683,"x_min":94,"x_max":607,"o":"m 607 94 q 483 13 547 35 q 333 -8 418 -8 q 162 42 229 -8 q 94 181 94 92 q 122 278 94 242 q 208 340 149 315 q 108 490 108 381 q 176 626 108 575 q 342 678 244 678 q 606 575 513 678 l 558 529 q 343 617 475 617 q 234 581 283 617 q 185 489 185 546 q 318 372 185 372 l 432 372 l 432 311 l 318 311 q 171 181 171 311 q 218 88 171 122 q 331 53 265 53 q 558 138 475 53 l 607 94 z "},"ζ":{"ha":636,"x_min":76,"x_max":574,"o":"m 574 -72 q 400 -212 574 -212 l 400 -158 q 513 -81 513 -158 q 485 -19 513 -37 q 396 0 457 0 l 346 0 q 139 33 201 0 q 76 157 76 67 q 102 260 76 218 q 193 356 128 301 q 497 607 486 597 l 117 607 l 117 669 l 572 669 l 572 603 l 236 306 q 165 229 179 256 q 150 151 150 203 q 199 81 150 100 q 346 63 247 63 l 392 63 q 574 -72 574 63 z "},"η":{"ha":776,"x_min":135,"x_max":650,"o":"m 650 0 l 579 0 l 579 415 q 532 564 579 513 q 394 615 485 615 q 255 563 304 615 q 206 415 206 511 l 206 0 l 135 0 l 135 669 l 206 669 l 206 590 q 403 678 281 678 q 581 614 515 678 q 650 428 650 547 l 650 0 z "},"θ":{"ha":742,"x_min":97,"x_max":644,"o":"m 644 494 q 644 475 644 488 q 642 326 644 382 q 617 191 639 271 q 553 68 596 111 q 371 -8 476 -8 q 189 68 265 -8 q 134 151 154 103 q 106 274 114 200 q 98 380 99 349 q 97 494 97 411 q 97 514 97 501 q 100 663 97 607 q 124 798 103 718 q 189 921 146 878 q 371 997 265 997 q 553 921 476 997 q 608 838 588 886 q 635 715 628 789 q 644 609 643 640 q 644 494 644 578 m 574 553 q 506 875 574 807 q 371 935 446 935 q 236 875 296 935 q 168 553 168 807 l 574 553 m 574 490 l 168 490 q 168 453 168 483 q 168 408 168 422 q 169 363 168 394 q 172 314 169 332 q 176 268 174 296 q 185 222 179 240 q 197 181 190 203 q 214 143 204 160 q 236 114 224 126 q 371 54 296 54 q 506 114 446 54 q 528 143 518 126 q 544 181 538 160 q 557 222 551 203 q 565 268 563 240 q 570 314 568 296 q 573 363 572 332 q 574 408 574 394 q 574 453 574 422 q 574 490 574 483 z "},"ι":{"ha":399,"x_min":132,"x_max":354,"o":"m 354 0 l 293 0 q 172 46 213 0 q 132 174 132 92 l 132 669 l 203 669 l 203 175 q 226 89 203 115 q 306 63 249 63 l 354 63 l 354 0 z "},"κ":{"ha":732,"x_min":135,"x_max":676,"o":"m 676 0 l 589 0 l 358 368 l 206 192 l 206 0 l 135 0 l 135 669 l 206 669 l 206 292 l 538 669 l 628 669 l 407 419 l 676 0 z "},"λ":{"ha":646,"x_min":25,"x_max":657,"o":"m 657 0 l 624 0 q 518 43 565 0 q 475 121 490 71 l 324 585 l 103 0 l 25 0 l 290 668 l 229 847 q 193 913 213 899 q 117 926 174 926 l 104 926 l 104 989 l 125 989 q 231 965 194 989 q 288 881 267 942 l 532 154 q 571 83 549 104 q 632 63 593 63 l 657 63 l 657 0 z "},"μ":{"ha":772,"x_min":122,"x_max":638,"o":"m 567 0 l 567 79 q 369 -8 492 -8 q 193 54 260 -8 l 193 -319 l 122 -319 l 122 669 l 193 669 l 193 254 q 240 106 193 157 q 378 54 288 54 q 517 106 468 54 q 567 254 567 158 l 567 669 l 638 669 l 638 0 l 567 0 z "},"ν":{"ha":597,"x_min":19,"x_max":578,"o":"m 578 669 l 333 0 l 264 0 l 19 669 l 97 669 l 299 83 l 500 669 l 578 669 z "},"ξ":{"ha":660,"x_min":94,"x_max":632,"o":"m 632 853 l 585 807 q 392 893 503 893 q 257 845 307 893 q 207 711 207 797 q 389 543 207 543 l 557 543 l 557 481 l 392 481 q 228 422 290 481 q 167 267 167 363 q 227 119 167 176 q 378 63 288 63 l 438 63 q 619 -72 619 63 q 446 -212 619 -212 l 446 -158 q 558 -81 558 -158 q 531 -19 558 -37 q 442 0 503 0 l 378 0 q 176 75 257 0 q 94 267 94 150 q 144 428 94 364 q 267 514 193 492 q 169 585 207 529 q 131 711 131 642 q 203 888 131 819 q 392 956 276 956 q 632 853 539 956 z "},"ο":{"ha":731,"x_min":96,"x_max":635,"o":"m 551 604 q 635 335 635 521 q 551 65 635 149 q 365 -8 478 -8 q 179 65 253 -8 q 96 335 96 149 q 179 604 96 521 q 365 678 253 678 q 551 604 478 678 m 504 111 q 564 335 564 171 q 504 558 564 499 q 365 615 447 615 q 226 558 283 615 q 167 335 167 499 q 226 111 167 171 q 365 54 283 54 q 504 111 447 54 z "},"π":{"ha":821,"x_min":153,"x_max":668,"o":"m 668 0 l 601 0 l 601 607 l 219 607 l 219 0 l 153 0 l 153 669 l 668 669 l 668 0 z "},"ρ":{"ha":713,"x_min":96,"x_max":617,"o":"m 617 335 q 529 50 617 138 q 365 -8 471 -8 q 256 12 303 -8 q 167 86 208 32 l 167 -319 l 96 -319 l 96 403 q 160 595 96 513 q 354 678 225 678 q 617 335 617 678 m 538 231 q 541 253 538 231 q 544 335 544 275 q 538 438 544 394 q 514 525 532 482 q 456 591 496 568 q 358 614 417 614 q 167 342 167 614 q 174 237 167 282 q 199 147 181 192 q 258 78 218 103 q 356 54 297 54 q 453 77 414 54 q 512 143 493 100 q 538 231 531 186 z "},"ς":{"ha":685,"x_min":96,"x_max":611,"o":"m 611 575 l 563 531 q 482 597 519 578 q 390 615 444 615 q 213 526 272 615 q 167 335 167 460 q 213 143 167 210 q 289 78 244 94 q 401 63 333 63 q 600 -72 600 63 q 425 -212 600 -212 l 425 -158 q 538 -81 538 -158 q 528 -41 538 -57 q 508 -17 519 -25 q 475 -5 497 -8 q 440 -1 453 -1 q 401 0 428 0 q 171 88 246 0 q 96 335 96 175 q 174 586 96 494 q 390 678 253 678 q 510 656 461 678 q 611 575 560 633 z "},"σ":{"ha":744,"x_min":96,"x_max":656,"o":"m 656 607 l 528 607 q 635 335 635 524 q 551 65 635 149 q 365 -8 478 -8 q 179 65 253 -8 q 96 335 96 149 q 179 596 96 513 q 365 669 253 669 l 656 669 l 656 607 m 564 335 q 504 550 564 490 q 365 607 447 607 q 226 550 283 607 q 167 335 167 490 q 226 111 167 171 q 365 54 283 54 q 504 111 447 54 q 564 335 564 171 z "},"τ":{"ha":485,"x_min":39,"x_max":446,"o":"m 446 607 l 278 607 l 278 0 l 207 0 l 207 607 l 39 607 l 39 669 l 446 669 l 446 607 z "},"υ":{"ha":704,"x_min":97,"x_max":607,"o":"m 607 328 q 592 175 607 238 q 531 65 578 113 q 351 -8 457 -8 q 172 65 246 -8 q 111 174 125 113 q 97 328 97 236 l 97 669 l 167 669 l 167 328 q 168 246 167 271 q 181 179 169 221 q 219 111 193 138 q 351 54 276 54 q 483 111 426 54 q 522 179 510 138 q 535 246 533 221 q 536 328 536 271 l 536 669 l 607 669 l 607 328 z "},"φ":{"ha":897,"x_min":96,"x_max":801,"o":"m 801 338 q 731 76 801 161 q 482 -8 661 -8 l 482 -319 l 411 -319 l 411 -8 q 165 82 235 -8 q 96 338 96 172 q 257 669 96 571 l 276 611 q 167 333 167 531 q 171 250 167 285 q 189 176 175 215 q 228 113 203 138 q 301 72 254 89 q 411 54 347 56 l 411 669 l 507 669 q 732 589 663 669 q 801 338 801 508 m 731 342 q 722 449 731 406 q 689 531 714 492 q 613 589 664 569 q 482 608 561 608 l 482 54 q 617 79 565 57 q 693 146 669 101 q 724 233 717 190 q 731 342 731 275 z "},"χ":{"ha":639,"x_min":56,"x_max":583,"o":"m 583 0 l 497 0 l 321 282 l 142 0 l 56 0 l 282 342 l 65 669 l 151 669 l 321 400 l 488 669 l 574 669 l 357 342 l 583 0 z "},"ψ":{"ha":853,"x_min":97,"x_max":756,"o":"m 756 335 q 688 81 756 161 q 461 -7 621 0 l 461 -319 l 390 -319 l 390 -7 q 164 81 231 0 q 97 335 97 161 l 97 669 l 167 669 l 167 335 q 213 124 167 186 q 390 56 260 61 l 390 669 l 461 669 l 461 56 q 638 124 592 61 q 685 335 685 186 l 685 669 l 756 669 l 756 335 z "},"ω":{"ha":978,"x_min":96,"x_max":882,"o":"m 882 324 q 832 83 882 167 q 660 -8 776 -8 q 553 33 600 -8 q 489 133 506 74 q 425 33 472 74 q 318 -8 378 -8 q 146 83 201 -8 q 96 324 96 167 q 114 466 96 393 q 161 576 132 539 q 314 678 231 668 l 314 615 q 252 583 283 610 q 206 526 221 556 q 165 324 165 453 q 201 121 165 179 q 318 54 240 54 q 453 308 453 54 l 453 486 l 525 486 l 525 308 q 660 54 525 54 q 776 121 738 54 q 813 324 813 179 q 772 526 813 453 q 726 583 757 556 q 664 615 694 610 l 664 678 q 817 576 747 668 q 864 466 846 539 q 882 324 882 393 z "},"ϊ":{"ha":399,"x_min":-14,"x_max":356,"o":"m 354 0 l 293 0 q 172 46 213 0 q 132 174 132 92 l 132 669 l 203 669 l 203 175 q 226 89 203 115 q 306 63 249 63 l 354 63 l 354 0 m -14 833 l -14 940 l 67 940 l 67 833 l -14 833 m 275 833 l 275 940 l 356 940 l 356 833 l 275 833 z "},"ϋ":{"ha":704,"x_min":97,"x_max":607,"o":"m 607 328 q 592 175 607 238 q 531 65 578 113 q 351 -8 457 -8 q 172 65 246 -8 q 111 174 125 113 q 97 328 97 236 l 97 669 l 167 669 l 167 328 q 168 246 167 271 q 181 179 169 221 q 219 111 193 138 q 351 54 276 54 q 483 111 426 54 q 522 179 510 138 q 535 246 533 221 q 536 328 536 271 l 536 669 l 607 669 l 607 328 m 171 833 l 171 940 l 251 940 l 251 833 l 171 833 m 460 833 l 460 940 l 540 940 l 540 833 l 460 833 z "},"ό":{"ha":731,"x_min":96,"x_max":635,"o":"m 551 604 q 635 335 635 521 q 551 65 635 149 q 365 -8 478 -8 q 179 65 253 -8 q 96 335 96 149 q 179 604 96 521 q 365 678 253 678 q 551 604 478 678 m 504 111 q 564 335 564 171 q 504 558 564 499 q 365 615 447 615 q 226 558 283 615 q 167 335 167 499 q 226 111 167 171 q 365 54 283 54 q 504 111 447 54 m 404 854 l 324 808 l 324 989 l 404 989 l 404 854 z "},"ύ":{"ha":704,"x_min":97,"x_max":607,"o":"m 607 328 q 592 175 607 238 q 531 65 578 113 q 351 -8 457 -8 q 172 65 246 -8 q 111 174 125 113 q 97 328 97 236 l 97 669 l 167 669 l 167 328 q 168 246 167 271 q 181 179 169 221 q 219 111 193 138 q 351 54 276 54 q 483 111 426 54 q 522 179 510 138 q 535 246 533 221 q 536 328 536 271 l 536 669 l 607 669 l 607 328 m 390 854 l 310 808 l 310 989 l 390 989 l 390 854 z "},"ώ":{"ha":978,"x_min":96,"x_max":882,"o":"m 882 324 q 832 83 882 167 q 660 -8 776 -8 q 553 33 600 -8 q 489 133 506 74 q 425 33 472 74 q 318 -8 378 -8 q 146 83 201 -8 q 96 324 96 167 q 114 466 96 393 q 161 576 132 539 q 314 678 231 668 l 314 615 q 252 583 283 610 q 206 526 221 556 q 165 324 165 453 q 201 121 165 179 q 318 54 240 54 q 453 308 453 54 l 453 486 l 525 486 l 525 308 q 660 54 525 54 q 776 121 738 54 q 813 324 813 179 q 772 526 813 453 q 726 583 757 556 q 664 615 694 610 l 664 678 q 817 576 747 668 q 864 466 846 539 q 882 324 882 393 m 522 854 l 442 808 l 442 989 l 522 989 l 522 854 z "},"ϐ":{"ha":750,"x_min":135,"x_max":682,"o":"m 682 274 q 610 75 682 158 q 436 -8 539 -8 q 353 -5 382 -8 q 282 20 324 -1 q 206 86 240 42 l 206 -319 l 135 -319 l 135 747 q 204 920 135 851 q 385 989 274 989 q 563 930 496 989 q 631 761 631 871 q 620 667 631 711 q 576 582 610 624 q 486 529 542 540 q 682 274 682 506 m 614 278 q 594 394 614 347 q 538 462 575 440 q 463 491 500 483 q 374 499 425 499 l 289 499 l 289 551 l 376 551 q 564 746 564 551 q 515 886 564 840 q 388 932 465 932 q 251 874 297 932 q 206 721 206 815 l 206 278 q 256 118 206 185 q 406 51 306 51 q 561 119 508 51 q 614 278 614 188 z "},"Ё":{"ha":831,"x_min":153,"x_max":753,"o":"m 753 0 l 153 0 l 153 989 l 753 989 l 753 922 l 228 922 l 228 532 l 675 532 l 675 465 l 228 465 l 228 67 l 753 67 l 753 0 m 251 1097 l 251 1204 l 332 1204 l 332 1097 l 251 1097 m 540 1097 l 540 1204 l 621 1204 l 621 1097 l 540 1097 z "},"Ђ":{"ha":1032,"x_min":35,"x_max":897,"o":"m 590 531 l 363 531 l 363 0 l 288 0 l 288 922 l 35 922 l 35 989 l 700 989 l 700 922 l 363 922 l 363 597 l 599 597 q 816 519 735 597 q 897 313 897 442 l 897 285 q 816 78 897 156 q 599 0 735 0 l 543 0 l 543 67 l 590 67 q 762 124 701 67 q 822 285 822 181 l 822 313 q 762 474 822 417 q 590 531 701 531 z "},"Ѓ":{"ha":783,"x_min":164,"x_max":750,"o":"m 750 922 l 239 922 l 239 0 l 164 0 l 164 989 l 750 989 l 750 922 m 442 1083 l 361 1083 l 496 1288 l 589 1288 l 442 1083 z "},"Є":{"ha":894,"x_min":114,"x_max":789,"o":"m 789 281 q 674 69 765 147 q 453 -8 583 -8 q 206 93 307 -8 q 128 231 143 156 q 114 494 114 307 q 128 758 114 682 q 206 896 143 833 q 453 997 307 997 q 675 920 585 997 q 789 708 765 843 l 713 708 q 622 871 690 811 q 453 931 553 931 q 265 854 342 931 q 203 741 217 806 q 189 532 189 676 l 586 532 l 586 465 l 189 465 q 203 248 189 314 q 265 135 217 182 q 453 58 342 58 q 623 118 553 58 q 715 281 693 178 l 789 281 z "},"Ѕ":{"ha":815,"x_min":71,"x_max":733,"o":"m 733 265 q 644 66 733 140 q 400 -8 554 -8 q 216 22 292 -8 q 71 122 140 53 l 124 175 q 251 84 189 110 q 404 58 314 58 q 590 113 522 58 q 658 263 658 167 q 604 401 658 353 q 550 434 578 424 q 461 454 522 444 l 346 472 q 169 544 233 489 q 92 726 92 610 q 174 924 92 850 q 399 997 257 997 q 553 972 488 997 q 683 890 618 947 l 635 842 q 530 910 583 888 q 394 933 476 933 q 226 878 288 933 q 165 729 165 824 q 217 600 165 643 q 364 539 274 553 l 471 522 q 647 457 590 504 q 733 265 733 386 z "},"І":{"ha":381,"x_min":153,"x_max":228,"o":"m 228 0 l 153 0 l 153 989 l 228 989 l 228 0 z "},"Ї":{"ha":381,"x_min":6,"x_max":375,"o":"m 228 0 l 153 0 l 153 989 l 228 989 l 228 0 m 6 1097 l 6 1204 l 86 1204 l 86 1097 l 6 1097 m 294 1097 l 294 1204 l 375 1204 l 375 1097 l 294 1097 z "},"Ј":{"ha":692,"x_min":42,"x_max":553,"o":"m 553 292 q 472 74 553 156 q 258 -8 392 -8 q 42 76 126 -8 l 93 128 q 163 76 128 93 q 258 58 199 58 q 421 123 364 58 q 478 307 478 188 l 478 989 l 553 989 l 553 292 z "},"Љ":{"ha":1440,"x_min":7,"x_max":1381,"o":"m 1245 124 q 1275 152 1245 124 q 1306 285 1306 181 q 1245 446 1306 389 q 1074 503 1185 503 l 792 503 l 792 67 l 1074 67 q 1245 124 1185 67 m 331 922 l 331 565 q 260 131 331 261 q 47 0 190 0 l 7 0 l 7 67 l 32 67 q 107 79 75 67 q 168 127 139 92 q 216 222 197 163 q 246 377 235 281 q 257 604 257 474 l 257 989 l 792 989 l 792 569 l 1082 569 q 1299 492 1218 569 q 1381 285 1381 414 q 1299 78 1381 156 q 1082 0 1218 0 l 717 0 l 717 922 l 331 922 z "},"Њ":{"ha":1467,"x_min":153,"x_max":1407,"o":"m 1326 492 q 1366 453 1326 492 q 1407 285 1407 414 q 1326 78 1407 156 q 1108 0 1244 0 l 743 0 l 743 503 l 228 503 l 228 0 l 153 0 l 153 989 l 228 989 l 228 569 l 743 569 l 743 989 l 818 989 l 818 569 l 1108 569 q 1326 492 1244 569 m 1272 124 q 1302 152 1272 124 q 1332 285 1332 181 q 1272 446 1332 389 q 1100 503 1211 503 l 818 503 l 818 67 l 1100 67 q 1272 124 1211 67 z "},"Ћ":{"ha":1032,"x_min":35,"x_max":897,"o":"m 897 0 l 822 0 l 822 313 q 762 474 822 417 q 590 531 701 531 l 363 531 l 363 0 l 288 0 l 288 922 l 35 922 l 35 989 l 700 989 l 700 922 l 363 922 l 363 597 l 599 597 q 816 519 735 597 q 897 313 897 442 l 897 0 z "},"Ќ":{"ha":833,"x_min":160,"x_max":832,"o":"m 235 989 l 235 517 l 694 989 l 794 989 l 325 517 l 832 0 l 726 0 l 235 514 l 235 0 l 160 0 l 160 989 l 235 989 m 449 1083 l 368 1083 l 503 1288 l 596 1288 l 449 1083 z "},"Ў":{"ha":742,"x_min":17,"x_max":725,"o":"m 565 1222 q 371 1056 551 1056 q 176 1222 190 1056 l 247 1222 q 371 1111 258 1111 q 494 1222 483 1111 l 565 1222 m 725 989 l 365 150 q 179 0 301 0 l 104 0 l 104 67 l 163 67 q 247 92 217 67 q 303 178 276 117 l 346 281 l 17 989 l 97 989 l 385 365 l 644 989 l 725 989 z "},"Џ":{"ha":971,"x_min":153,"x_max":818,"o":"m 818 0 l 524 0 l 524 -250 l 449 -250 l 449 0 l 153 0 l 153 989 l 228 989 l 228 67 l 743 67 l 743 989 l 818 989 l 818 0 z "},"А":{"ha":833,"x_min":19,"x_max":814,"o":"m 814 0 l 733 0 l 647 240 l 186 240 l 100 0 l 19 0 l 383 989 l 450 989 l 814 0 m 624 307 l 417 889 l 210 307 l 624 307 z "},"Б":{"ha":913,"x_min":153,"x_max":817,"o":"m 735 492 q 776 453 735 492 q 817 285 817 414 q 735 78 817 156 q 518 0 654 0 l 153 0 l 153 989 l 756 989 l 756 922 l 228 922 l 228 569 l 518 569 q 735 492 654 569 m 681 124 q 711 152 681 124 q 742 285 742 181 q 681 446 742 389 q 510 503 621 503 l 228 503 l 228 67 l 510 67 q 681 124 621 67 z "},"В":{"ha":932,"x_min":153,"x_max":818,"o":"m 818 267 q 741 71 818 142 q 528 0 664 0 l 153 0 l 153 989 l 517 989 q 724 918 644 989 q 803 733 803 847 q 728 554 803 625 q 649 508 699 528 q 740 456 707 485 q 818 267 818 385 m 670 590 q 699 615 670 590 q 728 731 728 640 q 669 872 728 821 q 508 922 611 922 l 228 922 l 228 539 l 508 539 q 670 590 613 539 m 683 122 q 713 149 683 122 q 743 269 743 176 q 683 417 743 363 q 519 472 622 472 l 228 472 l 228 67 l 519 67 q 683 122 622 67 z "},"Г":{"ha":783,"x_min":164,"x_max":750,"o":"m 750 922 l 239 922 l 239 0 l 164 0 l 164 989 l 750 989 l 750 922 z "},"Д":{"ha":944,"x_min":28,"x_max":889,"o":"m 889 -250 l 814 -250 l 814 0 l 103 0 l 103 -250 l 28 -250 l 28 67 l 118 67 q 217 307 188 175 q 246 628 246 439 l 246 989 l 771 989 l 771 67 l 889 67 l 889 -250 m 696 67 l 696 922 l 317 922 l 317 561 q 201 67 317 258 l 696 67 z "},"Е":{"ha":831,"x_min":153,"x_max":753,"o":"m 753 0 l 153 0 l 153 989 l 753 989 l 753 922 l 228 922 l 228 532 l 675 532 l 675 465 l 228 465 l 228 67 l 753 67 l 753 0 z "},"Ж":{"ha":1231,"x_min":1,"x_max":1229,"o":"m 1 0 l 488 517 l 39 989 l 139 989 l 578 517 l 578 989 l 653 989 l 653 517 l 1092 989 l 1192 989 l 743 517 l 1229 0 l 1124 0 l 653 514 l 653 0 l 578 0 l 578 514 l 107 0 l 1 0 z "},"З":{"ha":861,"x_min":97,"x_max":747,"o":"m 425 -8 q 210 69 299 -8 q 97 281 121 147 l 171 281 q 263 118 193 178 q 433 58 333 58 q 605 115 538 58 q 672 269 672 172 q 453 472 672 472 l 329 472 l 329 539 l 457 539 q 603 590 551 539 q 656 738 656 642 q 596 880 656 829 q 435 931 536 931 q 266 871 335 931 q 175 708 197 811 l 99 708 q 213 920 122 843 q 435 997 303 997 q 648 926 565 997 q 731 739 731 856 q 582 510 731 572 q 747 267 747 453 q 656 67 747 142 q 425 -8 564 -8 z "},"И":{"ha":1000,"x_min":153,"x_max":847,"o":"m 847 0 l 772 0 l 772 867 l 228 0 l 153 0 l 153 989 l 228 989 l 228 125 l 772 989 l 847 989 l 847 0 z "},"Й":{"ha":1000,"x_min":153,"x_max":847,"o":"m 694 1222 q 500 1056 681 1056 q 306 1222 319 1056 l 376 1222 q 500 1111 388 1111 q 624 1222 613 1111 l 694 1222 m 847 0 l 772 0 l 772 867 l 228 0 l 153 0 l 153 989 l 228 989 l 228 125 l 772 989 l 847 989 l 847 0 z "},"К":{"ha":833,"x_min":160,"x_max":832,"o":"m 235 989 l 235 517 l 694 989 l 794 989 l 325 517 l 832 0 l 726 0 l 235 514 l 235 0 l 160 0 l 160 989 l 235 989 z "},"Л":{"ha":944,"x_min":7,"x_max":792,"o":"m 792 0 l 717 0 l 717 922 l 331 922 l 331 565 q 260 131 331 261 q 47 0 190 0 l 7 0 l 7 67 l 32 67 q 107 79 75 67 q 168 127 139 92 q 216 222 197 163 q 246 377 235 281 q 257 604 257 474 l 257 989 l 792 989 l 792 0 z "},"М":{"ha":1136,"x_min":153,"x_max":983,"o":"m 983 0 l 908 0 l 908 815 l 608 139 l 533 139 l 228 815 l 228 0 l 153 0 l 153 989 l 228 989 l 572 226 l 908 989 l 983 989 l 983 0 z "},"Н":{"ha":971,"x_min":153,"x_max":818,"o":"m 818 0 l 743 0 l 743 465 l 228 465 l 228 0 l 153 0 l 153 989 l 228 989 l 228 532 l 743 532 l 743 989 l 818 989 l 818 0 z "},"О":{"ha":906,"x_min":114,"x_max":792,"o":"m 792 579 l 792 494 q 776 230 792 307 q 700 93 760 153 q 453 -8 599 -8 q 206 93 307 -8 q 129 233 144 154 q 114 494 114 313 l 114 560 q 130 763 114 689 q 206 896 146 836 q 453 997 307 997 q 700 896 599 997 q 774 764 757 839 q 792 579 792 689 m 717 464 l 717 518 q 702 742 717 676 q 640 854 688 807 q 453 931 564 931 q 265 854 342 931 q 203 732 217 806 q 189 494 189 658 l 189 451 q 204 244 189 308 q 265 135 219 181 q 453 58 342 58 q 640 135 564 58 q 704 256 692 186 q 717 464 717 326 z "},"П":{"ha":971,"x_min":153,"x_max":818,"o":"m 818 0 l 743 0 l 743 922 l 228 922 l 228 0 l 153 0 l 153 989 l 818 989 l 818 0 z "},"Р":{"ha":876,"x_min":153,"x_max":814,"o":"m 733 911 q 773 872 733 911 q 814 704 814 833 q 733 497 814 575 q 515 419 651 419 l 228 419 l 228 0 l 153 0 l 153 989 l 515 989 q 733 911 651 989 m 678 543 q 709 572 678 543 q 739 704 739 600 q 678 865 739 808 q 507 922 618 922 l 228 922 l 228 486 l 507 486 q 678 543 618 486 z "},"С":{"ha":894,"x_min":114,"x_max":789,"o":"m 789 281 q 674 69 765 147 q 453 -8 583 -8 q 206 93 307 -8 q 128 231 143 156 q 114 494 114 307 q 128 758 114 682 q 206 896 143 833 q 453 997 307 997 q 675 920 585 997 q 789 708 765 843 l 713 708 q 622 871 690 811 q 453 931 553 931 q 265 854 342 931 q 202 735 215 804 q 189 494 189 665 q 202 254 189 324 q 265 135 215 185 q 453 58 342 58 q 623 118 553 58 q 715 281 693 178 l 789 281 z "},"Т":{"ha":749,"x_min":42,"x_max":707,"o":"m 707 922 l 411 922 l 411 0 l 336 0 l 336 922 l 42 922 l 42 989 l 707 989 l 707 922 z "},"У":{"ha":742,"x_min":17,"x_max":725,"o":"m 725 989 l 365 150 q 179 0 301 0 l 104 0 l 104 67 l 163 67 q 247 92 217 67 q 303 178 276 117 l 346 281 l 17 989 l 97 989 l 385 365 l 644 989 l 725 989 z "},"Ф":{"ha":1056,"x_min":78,"x_max":978,"o":"m 826 279 q 865 322 826 279 q 903 528 903 364 q 828 777 903 692 q 565 865 754 863 l 565 192 q 826 279 750 194 m 227 777 q 190 734 227 777 q 153 528 153 692 q 229 279 153 364 q 490 192 306 194 l 490 865 q 227 777 301 863 m 565 -4 l 490 -4 l 490 126 q 176 232 275 132 q 78 529 78 332 q 176 826 78 726 q 490 931 275 925 l 490 1021 l 565 1021 l 565 931 q 879 826 781 925 q 978 529 978 726 q 879 232 978 332 q 565 126 781 132 l 565 -4 z "},"Х":{"ha":739,"x_min":25,"x_max":714,"o":"m 714 0 l 626 0 l 368 440 l 110 0 l 25 0 l 328 507 l 44 989 l 132 989 l 368 574 l 606 989 l 692 989 l 408 507 l 714 0 z "},"Ц":{"ha":992,"x_min":153,"x_max":936,"o":"m 936 -250 l 861 -250 l 861 0 l 153 0 l 153 989 l 228 989 l 228 67 l 743 67 l 743 989 l 818 989 l 818 67 l 936 67 l 936 -250 z "},"Ч":{"ha":894,"x_min":111,"x_max":742,"o":"m 742 0 l 667 0 l 667 417 q 378 375 471 375 q 186 433 261 375 q 111 624 111 490 l 111 989 l 186 989 l 186 633 q 243 482 186 522 q 390 442 300 442 q 667 481 468 442 l 667 989 l 742 989 l 742 0 z "},"Ш":{"ha":1389,"x_min":153,"x_max":1236,"o":"m 1236 0 l 153 0 l 153 989 l 228 989 l 228 67 l 657 67 l 657 989 l 732 989 l 732 67 l 1161 67 l 1161 989 l 1236 989 l 1236 0 z "},"Щ":{"ha":1410,"x_min":153,"x_max":1354,"o":"m 1354 -250 l 1279 -250 l 1279 0 l 153 0 l 153 989 l 228 989 l 228 67 l 657 67 l 657 989 l 732 989 l 732 67 l 1161 67 l 1161 989 l 1236 989 l 1236 67 l 1354 67 l 1354 -250 z "},"Ъ":{"ha":1011,"x_min":42,"x_max":951,"o":"m 870 492 q 911 453 870 492 q 951 285 951 414 q 870 78 951 156 q 653 0 789 0 l 288 0 l 288 922 l 42 922 l 42 989 l 363 989 l 363 569 l 653 569 q 870 492 789 569 m 816 124 q 846 152 816 124 q 876 285 876 181 q 816 446 876 389 q 644 503 756 503 l 363 503 l 363 67 l 644 67 q 816 124 756 67 z "},"Ы":{"ha":1186,"x_min":153,"x_max":1033,"o":"m 1033 0 l 958 0 l 958 989 l 1033 989 l 1033 0 m 735 492 q 776 453 735 492 q 817 285 817 414 q 735 78 817 156 q 518 0 654 0 l 153 0 l 153 989 l 228 989 l 228 569 l 518 569 q 735 492 654 569 m 681 124 q 711 152 681 124 q 742 285 742 181 q 681 446 742 389 q 510 503 621 503 l 228 503 l 228 67 l 510 67 q 681 124 621 67 z "},"Ь":{"ha":876,"x_min":153,"x_max":817,"o":"m 735 492 q 776 453 735 492 q 817 285 817 414 q 735 78 817 156 q 518 0 654 0 l 153 0 l 153 989 l 228 989 l 228 569 l 518 569 q 735 492 654 569 m 681 124 q 711 152 681 124 q 742 285 742 181 q 681 446 742 389 q 510 503 621 503 l 228 503 l 228 67 l 510 67 q 681 124 621 67 z "},"Э":{"ha":894,"x_min":106,"x_max":781,"o":"m 106 281 l 179 281 q 272 118 201 178 q 442 58 342 58 q 629 135 553 58 q 692 248 678 182 q 706 465 706 314 l 308 465 l 308 532 l 706 532 q 692 741 706 676 q 629 854 678 806 q 442 931 553 931 q 273 871 342 931 q 182 708 204 811 l 106 708 q 219 920 129 843 q 442 997 310 997 q 689 896 588 997 q 766 758 751 833 q 781 494 781 682 q 766 231 781 307 q 689 93 751 156 q 442 -8 588 -8 q 220 69 311 -8 q 106 281 129 147 z "},"Ю":{"ha":1250,"x_min":153,"x_max":1136,"o":"m 1136 579 l 1136 494 q 1120 230 1136 307 q 1044 93 1104 153 q 797 -8 943 -8 q 550 93 651 -8 q 475 228 492 151 q 458 465 458 304 l 228 465 l 228 0 l 153 0 l 153 989 l 228 989 l 228 532 l 458 532 q 460 647 458 610 q 469 737 461 685 q 497 826 478 789 q 550 896 517 863 q 797 997 651 997 q 1044 896 943 997 q 1119 764 1101 839 q 1136 579 1136 689 m 1061 464 l 1061 518 q 1047 742 1061 676 q 985 854 1032 807 q 797 931 908 931 q 610 854 686 931 q 547 732 561 806 q 533 494 533 658 l 533 451 q 549 244 533 308 q 610 135 564 181 q 797 58 686 58 q 985 135 908 58 q 1049 256 1036 186 q 1061 464 1061 326 z "},"Я":{"ha":913,"x_min":89,"x_max":760,"o":"m 760 0 l 685 0 l 685 419 l 407 419 l 176 0 l 89 0 l 325 426 q 160 520 221 446 q 99 704 99 594 q 180 911 99 833 q 397 989 261 989 l 760 989 l 760 0 m 685 486 l 685 922 l 406 922 q 234 865 294 922 q 174 704 174 808 q 234 543 174 600 q 406 486 294 486 l 685 486 z "},"а":{"ha":728,"x_min":78,"x_max":599,"o":"m 599 0 l 528 0 l 528 67 q 441 8 486 25 q 324 -8 396 -8 q 126 53 186 -8 q 78 183 78 104 q 140 326 78 275 q 311 376 201 376 l 528 376 l 528 451 q 483 574 528 533 q 339 615 439 615 q 227 596 268 615 q 154 531 186 576 l 103 575 q 199 655 144 632 q 339 678 254 678 q 599 458 599 678 l 599 0 m 528 233 l 528 319 l 319 319 q 149 185 149 319 q 191 86 149 118 q 324 54 233 54 q 490 106 438 54 q 528 233 528 142 z "},"б":{"ha":733,"x_min":104,"x_max":640,"o":"m 640 335 q 558 64 640 146 q 375 -8 489 -8 q 207 47 275 -8 q 118 197 139 101 q 104 496 104 258 q 119 767 104 689 q 185 896 133 844 q 249 941 211 922 q 340 969 288 960 q 424 983 392 979 q 518 991 457 988 q 592 996 579 994 l 592 928 q 513 923 579 926 q 408 915 446 919 q 319 894 369 911 q 240 850 268 878 q 185 743 197 807 q 172 569 172 679 q 256 646 194 615 q 379 676 317 676 q 553 615 490 676 q 640 335 640 532 m 569 328 q 557 473 569 421 q 511 558 544 525 q 375 614 458 614 q 239 558 294 614 q 175 331 175 492 q 239 110 175 175 q 375 54 294 54 q 511 110 458 54 q 556 191 543 142 q 569 328 569 240 z "},"в":{"ha":743,"x_min":135,"x_max":643,"o":"m 643 182 q 591 49 643 97 q 446 0 539 0 l 135 0 l 135 669 l 439 669 q 578 622 525 669 q 632 497 632 575 q 518 347 632 383 q 609 286 575 329 q 643 182 643 243 m 526 407 q 543 422 526 407 q 561 493 561 438 q 525 579 561 549 q 424 610 489 610 l 206 610 l 206 376 l 424 376 q 526 407 490 376 m 535 94 q 553 112 535 94 q 572 188 572 129 q 535 281 572 246 q 431 317 497 317 l 206 317 l 206 60 l 431 60 q 535 94 497 60 z "},"г":{"ha":571,"x_min":140,"x_max":557,"o":"m 557 610 l 211 610 l 211 0 l 140 0 l 140 669 l 557 669 l 557 610 z "},"д":{"ha":765,"x_min":35,"x_max":715,"o":"m 715 -208 l 644 -208 l 644 0 l 106 0 l 106 -208 l 35 -208 l 35 60 l 117 60 q 188 217 163 126 q 214 475 214 307 l 214 669 l 611 669 l 611 60 l 715 60 l 715 -208 m 540 60 l 540 610 l 282 610 l 282 457 q 197 60 282 179 l 540 60 z "},"е":{"ha":726,"x_min":96,"x_max":632,"o":"m 632 319 l 167 319 q 190 178 171 225 q 386 56 240 56 q 481 72 439 56 q 569 136 517 88 l 622 94 q 510 14 561 35 q 383 -8 457 -8 q 96 339 96 -8 q 167 588 96 497 q 364 678 239 678 q 560 591 489 678 q 632 351 632 504 l 632 319 m 561 376 q 549 472 557 444 q 480 578 529 540 q 364 615 431 615 q 260 585 306 615 q 190 503 214 556 q 167 376 171 457 l 561 376 z "},"ж":{"ha":971,"x_min":14,"x_max":957,"o":"m 138 669 l 450 347 l 450 669 l 521 669 l 521 347 l 833 669 l 925 669 l 613 351 l 957 0 l 860 0 l 521 344 l 521 0 l 450 0 l 450 344 l 111 0 l 14 0 l 358 351 l 46 669 l 138 669 z "},"з":{"ha":663,"x_min":51,"x_max":563,"o":"m 563 185 q 489 46 563 99 q 310 -7 415 -7 q 169 15 228 -7 q 51 89 110 36 l 100 138 q 192 74 147 92 q 306 56 238 56 q 436 92 378 56 q 494 186 494 128 q 452 281 494 247 q 340 314 410 314 l 244 314 l 244 374 l 343 374 q 444 406 406 374 q 482 496 482 438 q 438 585 482 553 q 317 617 393 617 q 124 557 210 617 l 82 607 q 317 678 183 678 q 485 630 419 678 q 551 497 551 582 q 522 403 551 444 q 439 346 493 363 q 529 287 496 331 q 563 185 563 243 z "},"и":{"ha":796,"x_min":135,"x_max":661,"o":"m 661 0 l 590 0 l 590 567 l 206 0 l 135 0 l 135 669 l 206 669 l 206 103 l 590 669 l 661 669 l 661 0 z "},"й":{"ha":796,"x_min":135,"x_max":661,"o":"m 593 968 q 399 801 579 801 q 204 968 218 801 l 275 968 q 399 857 286 857 q 522 968 511 857 l 593 968 m 661 0 l 590 0 l 590 567 l 206 0 l 135 0 l 135 669 l 206 669 l 206 103 l 590 669 l 661 669 l 661 0 z "},"к":{"ha":674,"x_min":142,"x_max":660,"o":"m 213 669 l 213 347 l 536 669 l 628 669 l 304 351 l 660 0 l 563 0 l 213 344 l 213 0 l 142 0 l 142 669 l 213 669 z "},"л":{"ha":740,"x_min":28,"x_max":606,"o":"m 201 669 l 606 669 l 606 0 l 535 0 l 535 610 l 271 610 l 271 350 q 214 78 271 157 q 58 0 157 0 l 28 0 l 28 60 l 49 60 q 99 69 78 60 q 147 107 121 78 q 187 204 172 136 q 201 376 201 272 l 201 669 z "},"м":{"ha":900,"x_min":135,"x_max":765,"o":"m 765 0 l 694 0 l 694 525 l 485 94 l 418 94 l 206 525 l 206 0 l 135 0 l 135 669 l 206 669 l 453 165 l 694 669 l 765 669 l 765 0 z "},"н":{"ha":776,"x_min":135,"x_max":642,"o":"m 642 0 l 571 0 l 571 317 l 206 317 l 206 0 l 135 0 l 135 669 l 206 669 l 206 376 l 571 376 l 571 669 l 642 669 l 642 0 z "},"о":{"ha":731,"x_min":96,"x_max":635,"o":"m 635 339 q 551 65 635 150 q 365 -8 478 -8 q 179 65 253 -8 q 96 335 96 149 q 179 604 96 521 q 365 678 253 678 q 565 590 494 678 q 635 339 635 501 m 564 332 q 551 474 564 424 q 504 558 538 524 q 365 615 450 615 q 226 558 281 615 q 167 335 167 497 q 180 196 167 246 q 226 111 193 146 q 365 54 281 54 q 504 111 450 54 q 564 332 564 172 z "},"п":{"ha":776,"x_min":135,"x_max":642,"o":"m 642 0 l 571 0 l 571 610 l 206 610 l 206 0 l 135 0 l 135 669 l 642 669 l 642 0 z "},"р":{"ha":750,"x_min":135,"x_max":654,"o":"m 654 333 q 400 -8 654 -8 q 286 13 328 -8 q 206 86 244 35 l 206 -319 l 135 -319 l 135 669 l 206 669 l 206 583 q 288 657 247 636 q 399 678 328 678 q 654 333 654 678 m 583 333 q 538 548 583 481 q 394 615 493 615 q 251 548 296 615 q 206 335 206 481 q 251 122 206 189 q 394 54 296 54 q 538 122 493 54 q 583 333 583 189 z "},"с":{"ha":685,"x_min":96,"x_max":611,"o":"m 611 94 q 513 15 558 38 q 394 -8 467 -8 q 175 83 254 -8 q 96 335 96 175 q 175 586 96 494 q 394 678 254 678 q 511 655 465 678 q 611 575 557 632 l 563 531 q 485 595 522 575 q 393 615 447 615 q 213 526 274 615 q 167 333 167 461 q 213 143 167 206 q 392 54 275 54 q 484 74 447 54 q 563 139 521 94 l 611 94 z "},"т":{"ha":568,"x_min":14,"x_max":554,"o":"m 554 610 l 326 610 l 326 0 l 256 0 l 256 610 l 14 610 l 14 669 l 554 669 l 554 610 z "},"у":{"ha":597,"x_min":19,"x_max":578,"o":"m 578 669 l 267 -182 q 221 -260 247 -235 q 94 -303 174 -303 l 61 -303 l 61 -240 l 88 -240 q 165 -222 140 -240 q 210 -149 190 -203 l 264 0 l 19 669 l 97 669 l 299 83 l 500 669 l 578 669 z "},"ф":{"ha":926,"x_min":83,"x_max":843,"o":"m 772 333 q 706 533 772 457 q 499 615 640 610 l 499 54 q 702 133 632 58 q 772 333 772 208 m 499 -319 l 428 -319 l 428 -8 q 173 86 263 -1 q 83 335 83 174 q 173 583 83 496 q 428 678 263 671 l 428 989 l 499 989 l 499 678 q 753 583 664 671 q 843 335 843 496 q 753 86 843 174 q 499 -8 664 -1 l 499 -319 m 154 333 q 224 133 154 208 q 428 54 294 58 l 428 615 q 220 533 286 610 q 154 333 154 457 z "},"х":{"ha":639,"x_min":56,"x_max":583,"o":"m 583 0 l 497 0 l 321 282 l 142 0 l 56 0 l 282 342 l 65 669 l 151 669 l 321 400 l 488 669 l 574 669 l 357 342 l 583 0 z "},"ц":{"ha":796,"x_min":135,"x_max":746,"o":"m 746 -208 l 675 -208 l 675 0 l 135 0 l 135 669 l 206 669 l 206 60 l 571 60 l 571 669 l 642 669 l 642 60 l 746 60 l 746 -208 z "},"ч":{"ha":736,"x_min":110,"x_max":601,"o":"m 601 0 l 531 0 l 531 271 q 308 242 392 242 q 110 436 110 242 l 110 669 l 181 669 l 181 443 q 321 308 181 308 q 531 333 411 308 l 531 669 l 601 669 l 601 0 z "},"ш":{"ha":1101,"x_min":135,"x_max":967,"o":"m 967 0 l 135 0 l 135 669 l 206 669 l 206 60 l 515 60 l 515 669 l 586 669 l 586 60 l 896 60 l 896 669 l 967 669 l 967 0 z "},"щ":{"ha":1121,"x_min":135,"x_max":1071,"o":"m 1071 -208 l 1000 -208 l 1000 0 l 135 0 l 135 669 l 206 669 l 206 60 l 515 60 l 515 669 l 586 669 l 586 60 l 896 60 l 896 669 l 967 669 l 967 60 l 1071 60 l 1071 -208 z "},"ъ":{"ha":754,"x_min":14,"x_max":699,"o":"m 642 340 q 670 313 642 340 q 699 197 699 286 q 642 54 699 108 q 492 0 586 0 l 197 0 l 197 610 l 14 610 l 14 669 l 268 669 l 268 394 l 492 394 q 642 340 586 394 m 590 95 q 609 113 590 95 q 628 197 628 131 q 590 299 628 264 q 481 335 551 335 l 268 335 l 268 60 l 481 60 q 590 95 553 60 z "},"ы":{"ha":943,"x_min":135,"x_max":808,"o":"m 808 0 l 738 0 l 738 669 l 808 669 l 808 0 m 566 340 q 594 313 566 340 q 622 197 622 286 q 566 54 622 108 q 415 0 510 0 l 135 0 l 135 669 l 206 669 l 206 394 l 415 394 q 566 340 510 394 m 514 95 q 533 113 514 95 q 551 197 551 131 q 513 299 551 264 q 404 335 475 335 l 206 335 l 206 60 l 404 60 q 514 95 476 60 z "},"ь":{"ha":692,"x_min":135,"x_max":636,"o":"m 580 340 q 608 313 580 340 q 636 197 636 286 q 580 54 636 108 q 429 0 524 0 l 135 0 l 135 669 l 206 669 l 206 394 l 429 394 q 580 340 524 394 m 528 95 q 547 113 528 95 q 565 197 565 131 q 527 299 565 264 q 418 335 489 335 l 206 335 l 206 60 l 418 60 q 528 95 490 60 z "},"э":{"ha":685,"x_min":74,"x_max":589,"o":"m 510 586 q 549 540 510 586 q 589 335 589 494 q 510 83 589 175 q 290 -8 431 -8 q 172 15 218 -8 q 74 94 126 38 l 122 139 q 201 74 164 94 q 293 54 238 54 q 463 128 408 54 q 518 319 518 203 l 200 319 l 200 376 l 517 376 q 454 549 511 483 q 292 615 397 615 q 200 595 238 615 q 122 531 163 575 l 74 575 q 174 655 128 632 q 290 678 219 678 q 510 586 431 678 z "},"ю":{"ha":989,"x_min":135,"x_max":893,"o":"m 893 339 q 810 65 893 150 q 624 -8 736 -8 q 438 65 511 -8 q 354 314 358 144 l 206 314 l 206 0 l 135 0 l 135 669 l 206 669 l 206 374 l 356 374 q 438 604 361 528 q 624 678 511 678 q 823 590 753 678 q 893 339 893 501 m 822 332 q 809 474 822 424 q 763 558 796 524 q 624 615 708 615 q 485 558 539 615 q 425 335 425 497 q 438 196 425 246 q 485 111 451 146 q 624 54 539 54 q 763 111 708 54 q 822 332 822 172 z "},"я":{"ha":728,"x_min":89,"x_max":593,"o":"m 593 0 l 522 0 l 522 272 l 335 272 l 176 0 l 93 0 l 257 275 q 134 340 179 286 q 89 472 89 393 q 145 615 89 561 q 296 669 201 669 l 593 669 l 593 0 m 522 332 l 522 610 l 310 610 q 199 574 238 610 q 161 471 161 538 q 199 368 161 404 q 310 332 238 332 l 522 332 z "},"ё":{"ha":726,"x_min":96,"x_max":632,"o":"m 632 319 l 167 319 q 190 178 171 225 q 386 56 240 56 q 481 72 439 56 q 569 136 517 88 l 622 94 q 510 14 561 35 q 383 -8 457 -8 q 96 339 96 -8 q 167 588 96 497 q 364 678 239 678 q 560 591 489 678 q 632 351 632 504 l 632 319 m 561 376 q 549 472 557 444 q 480 578 529 540 q 364 615 431 615 q 260 585 306 615 q 190 503 214 556 q 167 376 171 457 l 561 376 m 182 833 l 182 940 l 263 940 l 263 833 l 182 833 m 471 833 l 471 940 l 551 940 l 551 833 l 471 833 z "},"ђ":{"ha":776,"x_min":50,"x_max":650,"o":"m 650 -118 q 601 -262 650 -206 q 461 -319 553 -319 l 400 -319 l 400 -257 l 449 -257 q 544 -217 508 -257 q 579 -117 579 -178 l 579 415 q 401 615 579 615 q 258 563 311 615 q 206 415 206 510 l 206 0 l 135 0 l 135 783 l 50 783 l 50 836 l 135 836 l 135 989 l 206 989 l 206 836 l 558 836 l 558 783 l 206 783 l 206 590 q 411 678 289 678 q 587 611 524 678 q 650 428 650 544 l 650 -118 z "},"ѓ":{"ha":571,"x_min":140,"x_max":557,"o":"m 557 610 l 211 610 l 211 0 l 140 0 l 140 669 l 557 669 l 557 610 m 336 819 l 256 819 l 390 1024 l 483 1024 l 336 819 z "},"є":{"ha":685,"x_min":96,"x_max":611,"o":"m 611 94 q 513 15 558 38 q 394 -8 467 -8 q 175 83 254 -8 q 96 335 96 175 q 175 586 96 494 q 394 678 254 678 q 511 655 465 678 q 611 575 557 632 l 563 531 q 485 595 522 575 q 393 615 447 615 q 231 549 288 615 q 168 376 174 483 l 485 376 l 485 319 l 167 319 q 222 128 167 203 q 392 54 276 54 q 484 74 447 54 q 563 139 521 94 l 611 94 z "},"ѕ":{"ha":686,"x_min":69,"x_max":608,"o":"m 608 190 q 536 45 608 99 q 340 -8 464 -8 q 69 88 169 -8 l 118 136 q 338 54 196 54 q 539 190 539 54 q 508 269 539 242 q 411 303 476 296 l 300 313 q 99 488 99 329 q 164 626 99 574 q 339 678 229 678 q 574 607 481 678 l 526 560 q 339 617 449 617 q 213 583 257 617 q 168 488 168 549 q 201 408 168 435 q 304 375 233 381 l 413 365 q 558 319 507 357 q 608 190 608 281 z "},"і":{"ha":340,"x_min":128,"x_max":214,"o":"m 135 0 l 135 669 l 206 669 l 206 0 l 135 0 m 128 901 l 128 989 l 214 989 l 214 901 l 128 901 z "},"ї":{"ha":340,"x_min":-14,"x_max":356,"o":"m 135 0 l 135 669 l 206 669 l 206 0 l 135 0 m -14 833 l -14 940 l 67 940 l 67 833 l -14 833 m 275 833 l 275 940 l 356 940 l 356 833 l 275 833 z "},"ј":{"ha":340,"x_min":-17,"x_max":214,"o":"m 206 -146 q 165 -274 206 -228 q 44 -319 125 -319 l -17 -319 l -17 -257 l 32 -257 q 112 -231 89 -257 q 135 -144 135 -204 l 135 669 l 206 669 l 206 -146 m 128 901 l 128 989 l 214 989 l 214 901 l 128 901 z "},"љ":{"ha":1107,"x_min":28,"x_max":1051,"o":"m 943 95 q 962 113 943 95 q 981 197 981 131 q 942 299 981 264 q 833 335 904 335 l 621 335 l 621 60 l 833 60 q 943 95 906 60 m 201 669 l 621 669 l 621 394 l 844 394 q 995 340 939 394 q 1051 197 1051 286 q 995 54 1051 108 q 844 0 939 0 l 550 0 l 550 610 l 271 610 l 271 350 q 214 78 271 157 q 58 0 157 0 l 28 0 l 28 60 l 49 60 q 99 69 78 60 q 147 107 121 78 q 187 204 172 136 q 201 376 201 272 l 201 669 z "},"њ":{"ha":1128,"x_min":135,"x_max":1072,"o":"m 1016 340 q 1044 313 1016 340 q 1072 197 1072 286 q 1016 54 1072 108 q 865 0 960 0 l 571 0 l 571 335 l 206 335 l 206 0 l 135 0 l 135 669 l 206 669 l 206 394 l 571 394 l 571 669 l 642 669 l 642 394 l 865 394 q 1016 340 960 394 m 964 95 q 983 113 964 95 q 1001 197 1001 131 q 963 299 1001 264 q 854 335 925 335 l 642 335 l 642 60 l 854 60 q 964 95 926 60 z "},"ћ":{"ha":776,"x_min":50,"x_max":650,"o":"m 650 0 l 579 0 l 579 415 q 531 564 579 513 q 394 615 483 615 q 256 563 306 615 q 206 415 206 510 l 206 0 l 135 0 l 135 783 l 50 783 l 50 836 l 135 836 l 135 989 l 206 989 l 206 836 l 558 836 l 558 783 l 206 783 l 206 590 q 295 658 250 638 q 404 678 340 678 q 584 610 518 678 q 650 428 650 543 l 650 0 z "},"ќ":{"ha":674,"x_min":142,"x_max":660,"o":"m 213 669 l 213 347 l 536 669 l 628 669 l 304 351 l 660 0 l 563 0 l 213 344 l 213 0 l 142 0 l 142 669 l 213 669 m 372 819 l 292 819 l 426 1024 l 519 1024 l 372 819 z "},"ў":{"ha":597,"x_min":19,"x_max":578,"o":"m 493 968 q 299 801 479 801 q 104 968 118 801 l 175 968 q 299 857 186 857 q 422 968 411 857 l 493 968 m 578 669 l 267 -182 q 221 -260 247 -235 q 94 -303 174 -303 l 61 -303 l 61 -240 l 88 -240 q 165 -222 140 -240 q 210 -149 190 -203 l 264 0 l 19 669 l 97 669 l 299 83 l 500 669 l 578 669 z "},"џ":{"ha":776,"x_min":135,"x_max":642,"o":"m 642 0 l 424 0 l 424 -208 l 353 -208 l 353 0 l 135 0 l 135 669 l 206 669 l 206 60 l 571 60 l 571 669 l 642 669 l 642 0 z "},"Ґ":{"ha":783,"x_min":164,"x_max":750,"o":"m 750 922 l 239 922 l 239 0 l 164 0 l 164 989 l 675 989 l 675 1225 l 750 1225 l 750 922 z "},"ґ":{"ha":571,"x_min":140,"x_max":557,"o":"m 557 610 l 211 610 l 211 0 l 140 0 l 140 669 l 486 669 l 486 892 l 557 892 l 557 610 z "},"–":{"ha":714,"x_min":74,"x_max":640,"o":"m 74 333 l 74 399 l 640 399 l 640 333 l 74 333 z "},"—":{"ha":1213,"x_min":114,"x_max":1099,"o":"m 114 333 l 114 399 l 1099 399 l 1099 333 l 114 333 z "},"―":{"ha":1213,"x_min":114,"x_max":1099,"o":"m 1099 333 l 114 333 l 114 399 l 1099 399 l 1099 333 z "},"‘":{"ha":361,"x_min":132,"x_max":229,"o":"m 132 892 l 132 989 l 229 1086 l 229 892 l 132 892 z "},"’":{"ha":361,"x_min":132,"x_max":229,"o":"m 132 794 l 132 989 l 229 989 l 229 892 l 132 794 z "},"‚":{"ha":361,"x_min":132,"x_max":229,"o":"m 132 -97 l 132 97 l 229 97 l 229 0 l 132 -97 z "},"“":{"ha":578,"x_min":132,"x_max":446,"o":"m 132 892 l 132 989 l 229 1086 l 229 892 l 132 892 m 349 892 l 349 989 l 446 1086 l 446 892 l 349 892 z "},"”":{"ha":578,"x_min":132,"x_max":446,"o":"m 132 794 l 132 989 l 229 989 l 229 892 l 132 794 m 349 794 l 349 989 l 446 989 l 446 892 l 349 794 z "},"„":{"ha":578,"x_min":132,"x_max":446,"o":"m 132 -97 l 132 97 l 229 97 l 229 0 l 132 -97 m 349 -97 l 349 97 l 446 97 l 446 0 l 349 -97 z "},"†":{"ha":853,"x_min":111,"x_max":742,"o":"m 460 635 l 460 0 l 389 0 l 389 635 l 111 635 l 111 697 l 389 697 l 389 989 l 460 989 l 460 697 l 742 697 l 742 635 l 460 635 z "},"‡":{"ha":853,"x_min":111,"x_max":742,"o":"m 460 -28 l 460 -319 l 389 -319 l 389 -28 l 111 -28 l 111 35 l 389 35 l 389 635 l 111 635 l 111 697 l 389 697 l 389 989 l 460 989 l 460 697 l 742 697 l 742 635 l 460 635 l 460 35 l 742 35 l 742 -28 l 460 -28 z "},"•":{"ha":758,"x_min":153,"x_max":606,"o":"m 539 624 q 572 591 539 624 q 606 464 606 558 q 539 303 606 369 q 379 238 472 238 q 219 303 286 238 q 153 464 153 369 q 219 624 153 558 q 379 690 286 690 q 539 624 472 690 z "},"…":{"ha":1006,"x_min":132,"x_max":874,"o":"m 451 0 l 451 103 l 554 103 l 554 0 l 451 0 m 771 0 l 771 103 l 874 103 l 874 0 l 771 0 m 132 0 l 132 103 l 235 103 l 235 0 l 132 0 z "},"‰":{"ha":1622,"x_min":96,"x_max":1526,"o":"m 1054 176 q 1003 42 1054 93 q 872 -10 953 -10 q 740 42 790 -10 q 689 176 689 93 l 689 325 q 740 460 689 408 q 872 511 790 511 q 1003 460 953 511 q 1054 325 1054 408 l 1054 176 m 1526 176 q 1476 42 1526 93 q 1344 -10 1425 -10 q 1212 42 1263 -10 q 1161 176 1161 93 l 1161 325 q 1212 460 1161 408 q 1344 511 1263 511 q 1476 460 1425 511 q 1526 325 1526 408 l 1526 176 m 461 664 q 410 531 461 582 q 279 479 360 479 q 147 531 197 479 q 96 664 96 582 l 96 813 q 147 947 96 896 q 279 999 197 999 q 410 947 360 999 q 461 813 461 896 l 461 664 m 1465 322 q 1344 458 1465 458 q 1222 322 1222 458 l 1222 179 q 1344 43 1222 43 q 1465 178 1465 43 l 1465 322 m 993 322 q 872 458 993 458 q 750 322 750 458 l 750 179 q 872 43 750 43 q 993 179 993 43 l 993 322 m 400 810 q 279 946 400 946 q 157 810 157 946 l 157 667 q 279 532 157 532 q 400 667 400 532 l 400 810 m 376 0 l 314 0 l 775 989 l 838 989 l 376 0 z "},"‹":{"ha":444,"x_min":58,"x_max":331,"o":"m 58 368 l 331 640 l 331 549 l 150 368 l 331 188 l 331 96 l 58 368 z "},"›":{"ha":444,"x_min":114,"x_max":386,"o":"m 114 96 l 114 188 l 294 368 l 114 549 l 114 640 l 386 368 l 114 96 z "},"⁄":{"ha":246,"x_min":-139,"x_max":385,"o":"m -76 0 l -139 0 l 322 989 l 385 989 l -76 0 z "},"€":{"ha":939,"x_min":69,"x_max":833,"o":"m 833 281 q 718 69 808 147 q 497 -8 628 -8 q 250 93 351 -8 q 181 207 199 147 q 160 372 163 267 l 69 372 l 69 425 l 158 425 l 158 572 l 69 572 l 69 625 l 160 625 q 181 786 163 726 q 250 896 200 846 q 497 997 351 997 q 719 920 629 997 q 833 708 808 843 l 757 708 q 666 871 735 811 q 497 931 597 931 q 310 854 386 931 q 253 764 269 814 q 235 625 238 714 l 574 625 l 574 572 l 233 572 l 233 425 l 574 425 l 574 372 l 235 372 q 253 226 238 278 q 310 135 269 175 q 497 58 386 58 q 667 118 597 58 q 760 281 738 178 l 833 281 z "},"№":{"ha":1306,"x_min":118,"x_max":1224,"o":"m 1221 396 l 857 396 l 857 457 l 1221 457 l 1221 396 m 761 0 l 690 0 l 189 856 l 189 0 l 118 0 l 118 989 l 189 989 l 690 136 l 690 989 l 761 989 l 761 0 m 1167 946 q 1224 753 1224 889 q 1167 560 1224 617 q 1040 511 1118 511 q 914 560 963 511 q 857 753 857 617 q 914 946 857 889 q 1040 994 963 994 q 1167 946 1118 994 m 1124 604 q 1158 753 1158 639 q 1124 901 1158 867 q 1040 935 1090 935 q 957 901 990 935 q 922 753 922 867 q 957 604 922 639 q 1040 571 990 571 q 1124 604 1090 571 z "},"™":{"ha":1124,"x_min":44,"x_max":1046,"o":"m 985 396 l 985 851 l 832 549 l 768 549 l 615 851 l 615 396 l 554 396 l 554 989 l 615 989 l 800 614 l 985 989 l 1046 989 l 1046 396 l 985 396 m 275 932 l 275 396 l 214 396 l 214 932 l 44 932 l 44 989 l 444 989 l 444 932 l 275 932 z "},"Ω":{"ha":906,"x_min":114,"x_max":792,"o":"m 792 0 l 533 0 l 533 65 q 679 188 635 114 q 710 296 703 226 q 717 494 717 365 q 703 735 717 665 q 640 854 690 804 q 453 931 564 931 q 265 854 342 931 q 202 735 215 804 q 189 494 189 665 q 196 296 189 365 q 226 188 203 226 q 372 65 271 114 l 372 0 l 114 0 l 114 65 l 240 65 q 154 164 182 111 q 142 190 147 176 q 133 217 138 204 q 126 249 129 231 q 121 280 122 268 q 118 315 119 292 q 115 349 117 338 q 114 385 114 360 q 114 421 114 411 q 114 458 114 431 q 114 494 114 486 q 128 758 114 682 q 206 896 143 833 q 453 997 307 997 q 700 896 599 997 q 777 758 763 833 q 792 494 792 682 q 792 458 792 486 q 792 421 792 431 q 792 385 792 411 q 790 349 792 360 q 788 315 789 338 q 785 280 786 292 q 780 249 783 268 q 772 217 776 231 q 763 190 768 204 q 751 164 758 176 q 665 65 724 111 l 792 65 l 792 0 z "},"←":{"ha":1426,"x_min":81,"x_max":1349,"o":"m 642 -196 l 81 365 l 642 926 l 738 926 l 211 400 l 1349 400 l 1349 331 l 211 331 l 738 -196 l 642 -196 z "},"↑":{"ha":1426,"x_min":153,"x_max":1275,"o":"m 1275 343 l 749 869 l 749 -268 l 679 -268 l 679 869 l 153 343 l 153 439 l 714 1000 l 1275 439 l 1275 343 z "},"→":{"ha":1426,"x_min":81,"x_max":1349,"o":"m 692 -196 l 1218 331 l 81 331 l 81 400 l 1218 400 l 692 926 l 788 926 l 1349 365 l 788 -196 l 692 -196 z "},"↓":{"ha":1426,"x_min":153,"x_max":1275,"o":"m 1275 293 l 714 -268 l 153 293 l 153 389 l 679 -137 l 679 1000 l 749 1000 l 749 -137 l 1275 389 l 1275 293 z "},"↖":{"ha":1426,"x_min":265,"x_max":1186,"o":"m 1186 -58 l 1138 -107 l 332 697 l 332 -47 l 265 19 l 265 814 l 1058 814 l 1126 746 l 382 746 l 1186 -58 z "},"↗":{"ha":1426,"x_min":240,"x_max":1161,"o":"m 1161 19 l 1094 -47 l 1094 697 l 289 -107 l 240 -58 l 1044 746 l 300 746 l 368 814 l 1161 814 l 1161 19 z "},"↘":{"ha":1426,"x_min":240,"x_max":1161,"o":"m 1161 -107 l 368 -107 l 300 -40 l 1044 -40 l 240 764 l 289 814 l 1094 10 l 1094 754 l 1161 686 l 1161 -107 z "},"↙":{"ha":1426,"x_min":265,"x_max":1186,"o":"m 1186 764 l 382 -40 l 1126 -40 l 1058 -107 l 265 -107 l 265 686 l 332 754 l 332 10 l 1138 814 l 1186 764 z "},"∂":{"ha":750,"x_min":96,"x_max":615,"o":"m 615 335 q 535 65 615 149 q 356 -8 464 -8 q 176 65 247 -8 q 96 335 96 149 q 176 608 96 528 q 346 678 246 678 q 544 583 474 678 l 544 703 q 494 871 544 807 q 342 935 443 935 q 248 918 283 935 q 168 861 213 901 l 122 907 q 225 977 179 957 q 342 997 271 997 q 543 918 471 997 q 615 707 615 839 l 615 335 m 488 111 q 544 335 544 171 q 488 558 544 499 q 356 615 433 615 q 224 558 278 615 q 167 335 167 499 q 224 111 167 171 q 356 54 278 54 q 488 111 433 54 z "},"∆":{"ha":821,"x_min":14,"x_max":807,"o":"m 807 0 l 14 0 l 378 989 l 443 989 l 807 0 m 710 67 l 410 889 l 111 67 l 710 67 z "},"∏":{"ha":971,"x_min":153,"x_max":818,"o":"m 818 -319 l 743 -319 l 743 989 l 228 989 l 228 -319 l 153 -319 l 153 1056 l 818 1056 l 818 -319 z "},"∑":{"ha":765,"x_min":88,"x_max":688,"o":"m 688 -319 l 88 -319 l 88 -253 l 375 388 l 88 989 l 88 1056 l 688 1056 l 688 989 l 172 989 l 443 421 l 443 354 l 172 -253 l 688 -253 l 688 -319 z "},"−":{"ha":714,"x_min":74,"x_max":640,"o":"m 74 333 l 74 399 l 640 399 l 640 333 l 74 333 z "},"∙":{"ha":367,"x_min":132,"x_max":235,"o":"m 132 315 l 132 418 l 235 418 l 235 315 l 132 315 z "},"√":{"ha":764,"x_min":14,"x_max":722,"o":"m 722 922 l 600 922 l 299 0 l 235 0 l 14 669 l 92 669 l 267 132 l 543 989 l 722 989 l 722 922 z "},"∞":{"ha":1100,"x_min":100,"x_max":1000,"o":"m 942 510 q 971 480 942 510 q 1000 361 1000 450 q 942 214 1000 272 q 796 156 885 156 q 670 190 725 156 q 550 306 615 224 q 429 189 485 224 q 306 154 374 154 q 158 213 217 154 q 100 361 100 272 q 158 510 100 450 q 306 569 217 569 q 428 534 372 569 q 550 417 485 499 q 671 535 617 500 q 796 569 725 569 q 942 510 885 569 m 508 361 q 403 473 444 439 q 310 507 361 507 q 206 466 246 507 q 167 361 167 425 q 206 258 167 297 q 310 219 246 219 q 403 253 361 219 q 508 361 446 286 m 894 258 q 914 278 894 258 q 933 361 933 297 q 894 465 933 425 q 790 504 854 504 q 697 471 739 504 q 592 361 654 438 q 697 253 654 286 q 790 219 739 219 q 894 258 854 219 z "},"∤":{"ha":367,"x_min":132,"x_max":235,"o":"m 132 315 l 132 418 l 235 418 l 235 315 l 132 315 z "},"∧":{"ha":367,"x_min":132,"x_max":235,"o":"m 132 315 l 132 418 l 235 418 l 235 315 l 132 315 z "},"∫":{"ha":457,"x_min":42,"x_max":415,"o":"m 415 926 l 367 926 q 264 815 264 926 l 264 -144 q 222 -272 264 -224 q 103 -319 179 -319 l 42 -319 l 42 -257 l 90 -257 q 193 -146 193 -257 l 193 814 q 235 941 193 893 q 354 989 278 989 l 415 989 l 415 926 z "},"≈":{"ha":714,"x_min":74,"x_max":640,"o":"m 640 496 q 554 426 586 442 q 479 410 522 410 q 338 453 440 410 q 232 485 263 485 q 179 474 201 485 q 117 422 157 463 l 74 465 q 160 535 128 519 q 235 551 192 551 q 376 508 274 551 q 482 476 451 476 q 535 488 513 476 q 597 539 557 499 l 640 496 m 640 274 q 554 203 586 219 q 479 188 522 188 q 338 231 440 188 q 232 263 263 263 q 179 251 201 263 q 117 200 157 240 l 74 243 q 160 313 128 297 q 235 329 192 329 q 376 286 274 329 q 482 254 451 254 q 535 265 513 254 q 597 317 557 276 l 640 274 z "},"≠":{"ha":714,"x_min":74,"x_max":640,"o":"m 640 226 l 264 226 l 119 82 l 74 128 l 172 226 l 74 226 l 74 292 l 238 292 l 385 439 l 74 439 l 74 504 l 450 504 l 594 649 l 640 603 l 542 504 l 640 504 l 640 439 l 476 439 l 329 292 l 640 292 l 640 226 z "},"≤":{"ha":714,"x_min":146,"x_max":568,"o":"m 568 165 l 146 389 l 146 456 l 568 679 l 568 603 l 215 422 l 568 242 l 568 165 m 568 -8 l 146 215 l 146 292 l 568 68 l 568 -8 z "},"≥":{"ha":714,"x_min":146,"x_max":568,"o":"m 568 389 l 146 165 l 146 242 l 499 422 l 146 603 l 146 679 l 568 456 l 568 389 m 568 215 l 146 -8 l 146 68 l 568 292 l 568 215 z "},"⋅":{"ha":367,"x_min":132,"x_max":235,"o":"m 132 315 l 132 418 l 235 418 l 235 315 l 132 315 z "},"◊":{"ha":908,"x_min":100,"x_max":808,"o":"m 808 494 l 454 -10 l 100 494 l 454 999 l 808 494 m 729 494 l 454 890 l 179 494 l 454 96 l 729 494 z "},"ﬁ":{"ha":760,"x_min":64,"x_max":633,"o":"m 226 617 l 226 0 l 156 0 l 156 617 l 64 617 l 64 669 l 156 669 l 156 814 q 198 941 156 893 q 317 989 240 989 l 378 989 l 378 926 l 329 926 q 226 815 226 926 l 226 669 l 378 669 l 378 617 l 226 617 m 554 0 l 554 669 l 625 669 l 625 0 l 554 0 m 546 901 l 546 989 l 633 989 l 633 901 l 546 901 z "},"ﬂ":{"ha":814,"x_min":64,"x_max":769,"o":"m 226 617 l 226 0 l 156 0 l 156 617 l 64 617 l 64 669 l 156 669 l 156 814 q 198 941 156 893 q 317 989 240 989 l 378 989 l 378 926 l 329 926 q 226 815 226 926 l 226 669 l 378 669 l 378 617 l 226 617 m 708 0 q 588 46 628 0 q 547 174 547 92 l 547 989 l 618 989 l 618 175 q 641 89 618 115 q 721 63 664 63 l 769 63 l 769 0 l 708 0 z "}}}
